SplineFontDB: 1.0
FontName: ArundinaSerif
FullName: Arundina Serif
FamilyName: Arundina Serif
Weight: Book
Copyright: Copyright (c) 2003 by Bitstream, Inc. All Rights Reserved.\nCopyright (c) 2007 by Software Industry Promotion Agency (Public Organization). All Rights Reserved.
Version: 2.2
ItalicAngle: 0
UnderlinePosition: -75
UnderlineWidth: 50
Ascent: 800
Descent: 200
Order2: 1
XUID: [1021 375 425136265 6775759]
FSType: 0
OS2Version: 2
OS2_WeightWidthSlopeOnly: 0
OS2_UseTypoMetrics: 1
CreationTime: 1131303360
ModificationTime: 1171885204
PfmFamily: 17
TTFWeight: 400
TTFWidth: 5
LineGap: 18
VLineGap: 0
Panose: 2 11 3 0 2 2 2 2 2 4
OS2TypoAscent: 0
OS2TypoAOffset: 1
OS2TypoDescent: -200
OS2TypoDOffset: 1
OS2TypoLinegap: 0
OS2WinAscent: 20
OS2WinAOffset: 1
OS2WinDescent: 54
OS2WinDOffset: 1
HheadAscent: 20
HheadAOffset: 1
HheadDescent: -54
HheadDOffset: 1
OS2SubXSize: 700
OS2SubYSize: 650
OS2SubXOff: 0
OS2SubYOff: 140
OS2SupXSize: 700
OS2SupYSize: 650
OS2SupXOff: 0
OS2SupYOff: 477
OS2StrikeYSize: 50
OS2StrikeYPos: 250
OS2FamilyClass: 261
OS2Vendor: 'BLWK'
ScriptLang: 2
 1 latn 1 dflt 
 0 
ChainSub: coverage 0 0 'liga' 0 0 0 1
 1 1 0
  Coverage: 7 uni0E47
  BCoverage: 12 uni0E2C.alt1
 1
  SeqLookup: 0 'L019'
EndFPST
ChainSub: coverage 0 0 'liga' 0 0 0 1
 1 0 1
  Coverage: 7 uni0E2C
  FCoverage: 39 uni0E34 uni0E35 uni0E36 uni0E37 uni0E47
 1
  SeqLookup: 0 'L019'
EndFPST
ChainSub: coverage 0 0 'liga' 0 0 0 1
 1 0 1
  Coverage: 15 uni0E0E uni0E0F
  FCoverage: 38 uni0E38.alt1 uni0E39.alt1 uni0E3A.alt1
 1
  SeqLookup: 0 'L019'
EndFPST
ChainSub: coverage 0 0 'liga' 0 0 0 1
 1 1 0
  Coverage: 5 a b c
  BCoverage: 23 uni0E1B uni0E1D uni0E1F
 1
  SeqLookup: 0 'L019'
EndFPST
ChainSub: coverage 0 0 'liga' 0 0 0 1
 1 0 1
  Coverage: 5 a b c
  FCoverage: 64 uni0E48.alt1 uni0E49.alt1 uni0E4A.alt1 uni0E4C.alt1 uni0E4B.alt1
 1
  SeqLookup: 0 'L019'
EndFPST
ChainSub: coverage 0 0 'liga' 0 0 0 1
 1 1 0
  Coverage: 64 uni0E48.alt2 uni0E49.alt2 uni0E4A.alt2 uni0E4B.alt2 uni0E4C.alt2

StartChar: .notdef
Encoding: 65536 -1 0
Width: 339
Flags: W
Fore
0 467 m 1,0,-1
 339 467 l 1,1,-1
 339 0 l 1,2,-1
 0 0 l 1,3,-1
 0 467 l 1,0,-1
262 51 m 1,4,5
 250 69 250 69 238.5 85.5 c 128,-1,6
 227 102 227 102 216 118.5 c 128,-1,7
 205 135 205 135 193.5 152 c 128,-1,8
 182 169 182 169 170 188 c 1,9,10
 157 170 157 170 146 153.5 c 128,-1,11
 135 137 135 137 124.5 120.5 c 128,-1,12
 114 104 114 104 103 87 c 128,-1,13
 92 70 92 70 79 51 c 1,14,-1
 262 51 l 1,4,5
261 416 m 1,15,-1
 79 416 l 1,16,-1
 88 402 l 2,17,18
 98 386 98 386 108 371.5 c 128,-1,19
 118 357 118 357 127.5 342 c 128,-1,20
 137 327 137 327 147 312 c 128,-1,21
 157 297 157 297 169 280 c 1,22,-1
 261 416 l 1,15,-1
51 101 m 1,23,24
 73 134 73 134 94 166.5 c 128,-1,25
 115 199 115 199 139 234 c 1,26,27
 126 253 126 253 115.5 268.5 c 128,-1,28
 105 284 105 284 95 299.5 c 128,-1,29
 85 315 85 315 74.5 330.5 c 128,-1,30
 64 346 64 346 51 366 c 1,31,-1
 51 101 l 1,23,24
287 102 m 1,32,-1
 287 364 l 1,33,34
 276 347 276 347 265.5 331 c 128,-1,35
 255 315 255 315 244 299.5 c 128,-1,36
 233 284 233 284 222.5 267.5 c 128,-1,37
 212 251 212 251 200 234 c 1,38,-1
 287 102 l 1,32,-1
EndSplineSet
EndChar
StartChar: exclam
Encoding: 33 33 4
Width: 257
Flags: W
Fore
87 33 m 0,0,1
 87 50 87 50 99 62 c 128,-1,2
 111 74 111 74 129 74 c 0,3,4
 146 74 146 74 158 62 c 128,-1,5
 170 50 170 50 170 33 c 0,6,7
 170 15 170 15 158 3 c 128,-1,8
 146 -9 146 -9 129 -9 c 0,9,10
 111 -9 111 -9 99 3 c 128,-1,11
 87 15 87 15 87 33 c 0,0,1
88 467 m 1,12,-1
 169 467 l 1,13,-1
 148 210 l 1,14,-1
 148 131 l 1,15,-1
 109 131 l 1,16,-1
 109 210 l 1,17,-1
 88 467 l 1,12,-1
EndSplineSet
EndChar
StartChar: quotedbl
Encoding: 34 34 5
Width: 294
Flags: W
Fore
113 467 m 1,0,-1
 113 293 l 1,1,-1
 63 293 l 1,2,-1
 63 467 l 1,3,-1
 113 467 l 1,0,-1
232 467 m 1,4,-1
 232 293 l 1,5,-1
 182 293 l 1,6,-1
 182 467 l 1,7,-1
 232 467 l 1,4,-1
EndSplineSet
EndChar
StartChar: numbersign
Encoding: 35 35 6
Width: 536
Flags: W
Fore
326 282 m 1,0,-1
 237 282 l 1,1,-1
 211 177 l 1,2,-1
 300 177 l 1,3,-1
 326 282 l 1,0,-1
282 460 m 1,4,-1
 250 330 l 1,5,-1
 338 330 l 1,6,-1
 370 460 l 1,7,-1
 424 460 l 1,8,-1
 391 330 l 1,9,-1
 487 330 l 1,10,-1
 487 282 l 1,11,-1
 379 282 l 1,12,-1
 353 177 l 1,13,-1
 451 177 l 1,14,-1
 451 129 l 1,15,-1
 341 129 l 1,16,-1
 309 0 l 1,17,-1
 255 0 l 1,18,-1
 288 129 l 1,19,-1
 200 129 l 1,20,-1
 167 0 l 1,21,-1
 114 0 l 1,22,-1
 146 129 l 1,23,-1
 49 129 l 1,24,-1
 49 177 l 1,25,-1
 158 177 l 1,26,-1
 184 282 l 1,27,-1
 85 282 l 1,28,-1
 85 330 l 1,29,-1
 196 330 l 1,30,-1
 228 460 l 1,31,-1
 282 460 l 1,4,-1
EndSplineSet
EndChar
StartChar: dollar
Encoding: 36 36 7
Width: 407
Flags: W
Fore
216 21 m 1,0,1
 251 24 251 24 269.5 41.5 c 128,-1,2
 288 59 288 59 288 88 c 0,3,4
 288 115 288 115 270 134 c 128,-1,5
 252 153 252 153 216 163 c 1,6,-1
 216 21 l 1,0,1
184 371 m 1,7,8
 152 369 152 369 134 352.5 c 128,-1,9
 116 336 116 336 116 308 c 0,10,11
 116 284 116 284 132.5 267 c 128,-1,12
 149 250 149 250 184 240 c 1,13,-1
 184 371 l 1,7,8
55 22 m 1,14,-1
 55 109 l 1,15,-1
 89 109 l 1,16,17
 90 66 90 66 114 44 c 128,-1,18
 138 22 138 22 184 21 c 1,19,-1
 184 173 l 1,20,21
 113 193 113 193 83.5 219 c 128,-1,22
 54 245 54 245 54 288 c 0,23,24
 54 338 54 338 88.5 368.5 c 128,-1,25
 123 399 123 399 184 403 c 1,26,-1
 184 486 l 1,27,-1
 216 486 l 1,28,-1
 216 403 l 1,29,30
 247 400 247 400 276.5 392.5 c 128,-1,31
 306 385 306 385 333 372 c 1,32,-1
 333 290 l 1,33,-1
 300 290 l 1,34,35
 296 326 296 326 274.5 347 c 128,-1,36
 253 368 253 368 216 371 c 1,37,-1
 216 230 l 1,38,39
 292 209 292 209 323 182 c 128,-1,40
 354 155 354 155 354 109 c 0,41,42
 354 58 354 58 318 26.5 c 128,-1,43
 282 -5 282 -5 216 -10 c 1,44,-1
 216 -94 l 1,45,-1
 184 -94 l 1,46,-1
 184 -10 l 1,47,48
 154 -9 154 -9 122 -1 c 128,-1,49
 90 7 90 7 55 22 c 1,14,-1
EndSplineSet
EndChar
StartChar: percent
Encoding: 37 37 8
Width: 608
Flags: W
Fore
143 446 m 256,0,1
 116 446 116 446 100.5 420 c 128,-1,2
 85 394 85 394 85 348 c 0,3,4
 85 301 85 301 100.5 275 c 128,-1,5
 116 249 116 249 143 249 c 256,6,7
 170 249 170 249 185.5 275 c 128,-1,8
 201 301 201 301 201 348 c 0,9,10
 201 394 201 394 185.5 420 c 128,-1,11
 170 446 170 446 143 446 c 256,0,1
465 217 m 256,12,13
 438 217 438 217 422.5 190.5 c 128,-1,14
 407 164 407 164 407 118 c 256,15,16
 407 72 407 72 422.5 46 c 128,-1,17
 438 20 438 20 465 20 c 256,18,19
 492 20 492 20 507.5 46 c 128,-1,20
 523 72 523 72 523 118 c 256,21,22
 523 164 523 164 507.5 190.5 c 128,-1,23
 492 217 492 217 465 217 c 256,12,13
465 245 m 256,24,25
 515 245 515 245 544 210.5 c 128,-1,26
 573 176 573 176 573 118 c 256,27,28
 573 60 573 60 544 25.5 c 128,-1,29
 515 -9 515 -9 465 -9 c 256,30,31
 415 -9 415 -9 386 25.5 c 128,-1,32
 357 60 357 60 357 118 c 0,33,34
 357 177 357 177 386 211 c 128,-1,35
 415 245 415 245 465 245 c 256,24,25
426 475 m 1,36,-1
 474 475 l 1,37,-1
 182 -9 l 1,38,-1
 134 -9 l 1,39,-1
 426 475 l 1,36,-1
143 475 m 0,40,41
 192 475 192 475 221.5 440.5 c 128,-1,42
 251 406 251 406 251 348 c 0,43,44
 251 289 251 289 222 255 c 128,-1,45
 193 221 193 221 143 221 c 256,46,47
 93 221 93 221 64 255 c 128,-1,48
 35 289 35 289 35 348 c 0,49,50
 35 406 35 406 64 440.5 c 128,-1,51
 93 475 93 475 143 475 c 0,40,41
EndSplineSet
EndChar
StartChar: ampersand
Encoding: 38 38 9
Width: 570
Flags: W
Fore
346 72 m 1,0,-1
 164 264 l 1,1,2
 136 239 136 239 122.5 211 c 128,-1,3
 109 183 109 183 109 151 c 0,4,5
 109 99 109 99 145 64 c 128,-1,6
 181 29 181 29 235 29 c 0,7,8
 267 29 267 29 295 40 c 128,-1,9
 323 51 323 51 346 72 c 1,0,-1
540 0 m 1,10,-1
 414 0 l 1,11,-1
 371 45 l 1,12,13
 339 18 339 18 301.5 4.5 c 128,-1,14
 264 -9 264 -9 221 -9 c 0,15,16
 140 -9 140 -9 93 32.5 c 128,-1,17
 46 74 46 74 46 144 c 0,18,19
 46 186 46 186 69.5 222 c 128,-1,20
 93 258 93 258 142 289 c 1,21,22
 126 308 126 308 118.5 327 c 128,-1,23
 111 346 111 346 111 367 c 0,24,25
 111 417 111 417 147 446 c 128,-1,26
 183 475 183 475 244 475 c 0,27,28
 266 475 266 475 293.5 470 c 128,-1,29
 321 465 321 465 357 454 c 1,30,-1
 357 373 l 1,31,-1
 322 373 l 1,32,33
 317 406 317 406 297.5 424 c 128,-1,34
 278 442 278 442 243 442 c 0,35,36
 211 442 211 442 191 424 c 128,-1,37
 171 406 171 406 171 378 c 0,38,39
 171 359 171 359 181.5 340 c 128,-1,40
 192 321 192 321 226 286 c 2,41,-1
 387 116 l 1,42,43
 409 141 409 141 421 170 c 128,-1,44
 433 199 433 199 436 232 c 1,45,-1
 380 232 l 1,46,-1
 380 265 l 1,47,-1
 528 265 l 1,48,-1
 528 232 l 1,49,-1
 474 232 l 1,50,51
 469 191 469 191 453.5 155.5 c 128,-1,52
 438 120 438 120 412 90 c 1,53,-1
 466 33 l 1,54,-1
 540 33 l 1,55,-1
 540 0 l 1,10,-1
EndSplineSet
EndChar
StartChar: quotesingle
Encoding: 39 39 10
Width: 176
Flags: W
Fore
113 467 m 1,0,-1
 113 293 l 1,1,-1
 63 293 l 1,2,-1
 63 467 l 1,3,-1
 113 467 l 1,0,-1
EndSplineSet
EndChar
StartChar: parenleft
Encoding: 40 40 11
Width: 250
Flags: W
Fore
204 -100 m 1,0,1
 128 -66 128 -66 89.5 8 c 128,-1,2
 51 82 51 82 51 193 c 0,3,4
 51 305 51 305 89.5 378.5 c 128,-1,5
 128 452 128 452 204 486 c 1,6,-1
 204 456 l 1,7,8
 156 422 156 422 135 362 c 128,-1,9
 114 302 114 302 114 193 c 256,10,11
 114 84 114 84 135 24 c 128,-1,12
 156 -36 156 -36 204 -69 c 1,13,-1
 204 -100 l 1,0,1
EndSplineSet
EndChar
StartChar: parenright
Encoding: 41 41 12
Width: 250
Flags: W
Fore
45 -100 m 1,0,-1
 45 -69 l 1,1,2
 93 -36 93 -36 114.5 24 c 128,-1,3
 136 84 136 84 136 193 c 256,4,5
 136 302 136 302 114.5 362 c 128,-1,6
 93 422 93 422 45 456 c 1,7,-1
 45 486 l 1,8,9
 122 452 122 452 160.5 378.5 c 128,-1,10
 199 305 199 305 199 193 c 0,11,12
 199 82 199 82 160.5 8 c 128,-1,13
 122 -66 122 -66 45 -100 c 1,0,-1
EndSplineSet
EndChar
StartChar: asterisk
Encoding: 42 42 13
Width: 320
Flags: W
Fore
310 387 m 1,0,-1
 188 330 l 1,1,-1
 310 272 l 1,2,-1
 286 235 l 1,3,-1
 177 303 l 1,4,-1
 181 184 l 1,5,-1
 139 184 l 1,6,-1
 143 303 l 1,7,-1
 34 235 l 1,8,-1
 10 272 l 1,9,-1
 132 329 l 1,10,-1
 10 387 l 1,11,-1
 34 424 l 1,12,-1
 143 356 l 1,13,-1
 139 475 l 1,14,-1
 181 475 l 1,15,-1
 177 356 l 1,16,-1
 286 424 l 1,17,-1
 310 387 l 1,0,-1
EndSplineSet
EndChar
StartChar: plus
Encoding: 43 43 14
Width: 536
Flags: W
Fore
293 401 m 1,0,-1
 293 226 l 1,1,-1
 468 226 l 1,2,-1
 468 175 l 1,3,-1
 293 175 l 1,4,-1
 293 0 l 1,5,-1
 243 0 l 1,6,-1
 243 175 l 1,7,-1
 68 175 l 1,8,-1
 68 226 l 1,9,-1
 243 226 l 1,10,-1
 243 401 l 1,11,-1
 293 401 l 1,0,-1
EndSplineSet
EndChar
StartChar: comma
Encoding: 44 44 15
Width: 204
Flags: W
Fore
23 -62 m 1,0,1
 52 -40 52 -40 66 -11 c 128,-1,2
 80 18 80 18 80 60 c 2,3,-1
 80 71 l 1,4,-1
 141 71 l 1,5,6
 139 17 139 17 116 -21 c 128,-1,7
 93 -59 93 -59 48 -87 c 1,8,-1
 23 -62 l 1,0,1
EndSplineSet
EndChar
StartChar: hyphen
Encoding: 45 45 16
Width: 216
Flags: W
Fore
28 196 m 1,0,-1
 188 196 l 1,1,-1
 188 147 l 1,2,-1
 28 147 l 1,3,-1
 28 196 l 1,0,-1
EndSplineSet
EndChar
StartChar: period
Encoding: 46 46 17
Width: 204
Flags: W
Fore
60 33 m 0,0,1
 60 50 60 50 72 62 c 128,-1,2
 84 74 84 74 102 74 c 0,3,4
 119 74 119 74 131 62 c 128,-1,5
 143 50 143 50 143 33 c 0,6,7
 143 15 143 15 131 3 c 128,-1,8
 119 -9 119 -9 102 -9 c 0,9,10
 84 -9 84 -9 72 3 c 128,-1,11
 60 15 60 15 60 33 c 0,0,1
EndSplineSet
EndChar
StartChar: slash
Encoding: 47 47 18
Width: 216
Flags: W
Fore
166 467 m 1,0,-1
 216 467 l 1,1,-1
 50 -60 l 1,2,-1
 0 -60 l 1,3,-1
 166 467 l 1,0,-1
EndSplineSet
EndChar
StartChar: zero
Encoding: 48 48 19
Width: 407
Flags: W
Fore
204 22 m 256,0,1
 252 22 252 22 275.5 74.5 c 128,-1,2
 299 127 299 127 299 233 c 256,3,4
 299 339 299 339 275.5 391.5 c 128,-1,5
 252 444 252 444 204 444 c 256,6,7
 156 444 156 444 132 391.5 c 128,-1,8
 108 339 108 339 108 233 c 256,9,10
 108 127 108 127 132 74.5 c 128,-1,11
 156 22 156 22 204 22 c 256,0,1
204 -9 m 0,12,13
 127 -9 127 -9 84.5 54.5 c 128,-1,14
 42 118 42 118 42 233 c 256,15,16
 42 348 42 348 84.5 411.5 c 128,-1,17
 127 475 127 475 204 475 c 0,18,19
 280 475 280 475 322.5 411.5 c 128,-1,20
 365 348 365 348 365 233 c 256,21,22
 365 118 365 118 322.5 54.5 c 128,-1,23
 280 -9 280 -9 204 -9 c 0,12,13
EndSplineSet
EndChar
StartChar: one
Encoding: 49 49 20
Width: 407
Flags: W
Fore
91 0 m 1,0,-1
 91 33 l 1,1,-1
 172 33 l 1,2,-1
 172 421 l 1,3,-1
 78 360 l 1,4,-1
 78 401 l 1,5,-1
 192 475 l 1,6,-1
 235 475 l 1,7,-1
 235 33 l 1,8,-1
 316 33 l 1,9,-1
 316 0 l 1,10,-1
 91 0 l 1,0,-1
EndSplineSet
EndChar
StartChar: two
Encoding: 50 50 21
Width: 407
Flags: W
Fore
82 355 m 1,0,-1
 47 355 l 1,1,-1
 47 438 l 1,2,3
 80 456 80 456 114 465.5 c 128,-1,4
 148 475 148 475 180 475 c 0,5,6
 253 475 253 475 295.5 439.5 c 128,-1,7
 338 404 338 404 338 344 c 0,8,9
 338 275 338 275 242 180 c 0,10,11
 235 173 235 173 231 169 c 2,12,-1
 113 51 l 1,13,-1
 308 51 l 1,14,-1
 308 109 l 1,15,-1
 344 109 l 1,16,-1
 344 0 l 1,17,-1
 44 0 l 1,18,-1
 44 34 l 1,19,-1
 185 175 l 2,20,21
 232 222 232 222 252 261.5 c 128,-1,22
 272 301 272 301 272 344 c 0,23,24
 272 391 272 391 247.5 417.5 c 128,-1,25
 223 444 223 444 180 444 c 0,26,27
 135 444 135 444 110.5 422 c 128,-1,28
 86 400 86 400 82 355 c 1,0,-1
EndSplineSet
EndChar
StartChar: three
Encoding: 51 51 22
Width: 407
Flags: W
Fore
62 447 m 1,0,1
 99 461 99 461 132.5 468 c 128,-1,2
 166 475 166 475 195 475 c 0,3,4
 264 475 264 475 302 445.5 c 128,-1,5
 340 416 340 416 340 364 c 0,6,7
 340 321 340 321 313.5 293 c 128,-1,8
 287 265 287 265 239 255 c 1,9,10
 296 246 296 246 328 212.5 c 128,-1,11
 360 179 360 179 360 126 c 0,12,13
 360 61 360 61 316 26 c 128,-1,14
 272 -9 272 -9 189 -9 c 0,15,16
 153 -9 153 -9 118 -1.5 c 128,-1,17
 83 6 83 6 49 22 c 1,18,-1
 49 113 l 1,19,-1
 84 113 l 1,20,21
 87 68 87 68 114 45 c 128,-1,22
 141 22 141 22 191 22 c 0,23,24
 239 22 239 22 266.5 49.5 c 128,-1,25
 294 77 294 77 294 125 c 0,26,27
 294 180 294 180 265.5 208.5 c 128,-1,28
 237 237 237 237 182 237 c 2,29,-1
 152 237 l 1,30,-1
 152 269 l 1,31,-1
 168 269 l 2,32,33
 223 269 223 269 250 291.5 c 128,-1,34
 277 314 277 314 277 360 c 0,35,36
 277 401 277 401 254.5 422.5 c 128,-1,37
 232 444 232 444 190 444 c 256,38,39
 148 444 148 444 124.5 424 c 128,-1,40
 101 404 101 404 97 365 c 1,41,-1
 62 365 l 1,42,-1
 62 447 l 1,0,1
EndSplineSet
EndChar
StartChar: four
Encoding: 52 52 23
Width: 407
Flags: W
Fore
223 158 m 1,0,-1
 223 406 l 1,1,-1
 64 158 l 1,2,-1
 223 158 l 1,0,-1
361 0 m 1,3,-1
 148 0 l 1,4,-1
 148 33 l 1,5,-1
 223 33 l 1,6,-1
 223 125 l 1,7,-1
 20 125 l 1,8,-1
 20 159 l 1,9,-1
 224 475 l 1,10,-1
 286 475 l 1,11,-1
 286 158 l 1,12,-1
 375 158 l 1,13,-1
 375 125 l 1,14,-1
 286 125 l 1,15,-1
 286 33 l 1,16,-1
 361 33 l 1,17,-1
 361 0 l 1,3,-1
EndSplineSet
EndChar
StartChar: five
Encoding: 53 53 24
Width: 407
Flags: W
Fore
322 467 m 1,0,-1
 322 415 l 1,1,-1
 108 415 l 1,2,-1
 108 282 l 1,3,4
 124 293 124 293 146 298.5 c 128,-1,5
 168 304 168 304 195 304 c 0,6,7
 270 304 270 304 314 262 c 128,-1,8
 358 220 358 220 358 148 c 0,9,10
 358 74 358 74 313.5 32.5 c 128,-1,11
 269 -9 269 -9 189 -9 c 0,12,13
 157 -9 157 -9 123.5 -1.5 c 128,-1,14
 90 6 90 6 54 22 c 1,15,-1
 54 113 l 1,16,-1
 90 113 l 1,17,18
 93 68 93 68 118 45 c 128,-1,19
 143 22 143 22 189 22 c 0,20,21
 239 22 239 22 265.5 54.5 c 128,-1,22
 292 87 292 87 292 148 c 256,23,24
 292 209 292 209 265.5 241 c 128,-1,25
 239 273 239 273 189 273 c 0,26,27
 161 273 161 273 139.5 263 c 128,-1,28
 118 253 118 253 102 232 c 1,29,-1
 75 232 l 1,30,-1
 75 467 l 1,31,-1
 322 467 l 1,0,-1
EndSplineSet
EndChar
StartChar: six
Encoding: 54 54 25
Width: 407
Flags: W
Fore
209 22 m 256,0,1
 253 22 253 22 277 54 c 128,-1,2
 301 86 301 86 301 147 c 256,3,4
 301 208 301 208 277 240.5 c 128,-1,5
 253 273 253 273 209 273 c 0,6,7
 164 273 164 273 141 241.5 c 128,-1,8
 118 210 118 210 118 151 c 0,9,10
 118 89 118 89 141.5 55.5 c 128,-1,11
 165 22 165 22 209 22 c 256,0,1
108 257 m 1,12,13
 129 280 129 280 155.5 291.5 c 128,-1,14
 182 303 182 303 216 303 c 0,15,16
 286 303 286 303 326.5 261.5 c 128,-1,17
 367 220 367 220 367 147 c 0,18,19
 367 76 367 76 323.5 33.5 c 128,-1,20
 280 -9 280 -9 207 -9 c 0,21,22
 128 -9 128 -9 85.5 50 c 128,-1,23
 43 109 43 109 43 218 c 0,24,25
 43 340 43 340 93 407.5 c 128,-1,26
 143 475 143 475 235 475 c 0,27,28
 260 475 260 475 287 470.5 c 128,-1,29
 314 466 314 466 342 456 c 1,30,-1
 342 380 l 1,31,-1
 307 380 l 1,32,33
 303 411 303 411 283 427.5 c 128,-1,34
 263 444 263 444 228 444 c 0,35,36
 168 444 168 444 138 398 c 128,-1,37
 108 352 108 352 108 257 c 1,12,13
EndSplineSet
EndChar
StartChar: seven
Encoding: 55 55 26
Width: 407
Flags: W
Fore
361 435 m 1,0,-1
 179 0 l 1,1,-1
 132 0 l 1,2,-1
 306 415 l 1,3,-1
 90 415 l 1,4,-1
 90 358 l 1,5,-1
 54 358 l 1,6,-1
 54 467 l 1,7,-1
 361 467 l 1,8,-1
 361 435 l 1,0,-1
EndSplineSet
EndChar
StartChar: eight
Encoding: 56 56 27
Width: 407
Flags: W
Fore
298 127 m 256,0,1
 298 177 298 177 273 205 c 128,-1,2
 248 233 248 233 204 233 c 0,3,4
 159 233 159 233 134 205 c 128,-1,5
 109 177 109 177 109 127 c 256,6,7
 109 77 109 77 134 49.5 c 128,-1,8
 159 22 159 22 204 22 c 0,9,10
 248 22 248 22 273 49.5 c 128,-1,11
 298 77 298 77 298 127 c 256,0,1
285 354 m 256,12,13
 285 397 285 397 263.5 420.5 c 128,-1,14
 242 444 242 444 204 444 c 0,15,16
 165 444 165 444 143.5 420.5 c 128,-1,17
 122 397 122 397 122 354 c 256,18,19
 122 311 122 311 143.5 287.5 c 128,-1,20
 165 264 165 264 204 264 c 0,21,22
 242 264 242 264 263.5 287.5 c 128,-1,23
 285 311 285 311 285 354 c 256,12,13
252 248 m 1,24,25
 305 241 305 241 334.5 209 c 128,-1,26
 364 177 364 177 364 127 c 0,27,28
 364 62 364 62 322.5 26.5 c 128,-1,29
 281 -9 281 -9 204 -9 c 0,30,31
 126 -9 126 -9 84.5 26.5 c 128,-1,32
 43 62 43 62 43 127 c 0,33,34
 43 177 43 177 72.5 209 c 128,-1,35
 102 241 102 241 156 248 c 1,36,37
 108 257 108 257 83 284.5 c 128,-1,38
 58 312 58 312 58 354 c 0,39,40
 58 410 58 410 97 442.5 c 128,-1,41
 136 475 136 475 204 475 c 0,42,43
 271 475 271 475 310 442.5 c 128,-1,44
 349 410 349 410 349 354 c 0,45,46
 349 312 349 312 323.5 284.5 c 128,-1,47
 298 257 298 257 252 248 c 1,24,25
EndSplineSet
EndChar
StartChar: nine
Encoding: 57 57 28
Width: 407
Flags: W
Fore
300 209 m 1,0,1
 278 186 278 186 251 174.5 c 128,-1,2
 224 163 224 163 190 163 c 0,3,4
 120 163 120 163 80 204.5 c 128,-1,5
 40 246 40 246 40 319 c 0,6,7
 40 390 40 390 83.5 432.5 c 128,-1,8
 127 475 127 475 200 475 c 0,9,10
 280 475 280 475 322 416 c 128,-1,11
 364 357 364 357 364 248 c 0,12,13
 364 125 364 125 314 58 c 128,-1,14
 264 -9 264 -9 172 -9 c 0,15,16
 147 -9 147 -9 120 -4.5 c 128,-1,17
 93 0 93 0 65 10 c 1,18,-1
 65 87 l 1,19,-1
 100 87 l 1,20,21
 104 56 104 56 124.5 39 c 128,-1,22
 145 22 145 22 179 22 c 0,23,24
 239 22 239 22 268.5 67.5 c 128,-1,25
 298 113 298 113 300 209 c 1,0,1
198 444 m 256,26,27
 154 444 154 444 130 412 c 128,-1,28
 106 380 106 380 106 319 c 256,29,30
 106 258 106 258 130 225.5 c 128,-1,31
 154 193 154 193 198 193 c 256,32,33
 242 193 242 193 265.5 224.5 c 128,-1,34
 289 256 289 256 289 315 c 0,35,36
 289 377 289 377 265.5 410.5 c 128,-1,37
 242 444 242 444 198 444 c 256,26,27
EndSplineSet
EndChar
StartChar: colon
Encoding: 58 58 29
Width: 216
Flags: W
Fore
67 33 m 0,0,1
 67 50 67 50 79 62 c 128,-1,2
 91 74 91 74 108 74 c 256,3,4
 125 74 125 74 137.5 62 c 128,-1,5
 150 50 150 50 150 33 c 0,6,7
 150 15 150 15 138 3 c 128,-1,8
 126 -9 126 -9 108 -9 c 256,9,10
 90 -9 90 -9 78.5 3 c 128,-1,11
 67 15 67 15 67 33 c 0,0,1
67 236 m 256,12,13
 67 253 67 253 79 265.5 c 128,-1,14
 91 278 91 278 108 278 c 0,15,16
 126 278 126 278 138 266 c 128,-1,17
 150 254 150 254 150 236 c 256,18,19
 150 218 150 218 138 206.5 c 128,-1,20
 126 195 126 195 108 195 c 0,21,22
 91 195 91 195 79 207 c 128,-1,23
 67 219 67 219 67 236 c 256,12,13
EndSplineSet
EndChar
StartChar: semicolon
Encoding: 59 59 30
Width: 216
Flags: W
Fore
23 -62 m 1,0,1
 52 -40 52 -40 66 -11 c 128,-1,2
 80 18 80 18 80 60 c 2,3,-1
 80 71 l 1,4,-1
 141 71 l 1,5,6
 139 17 139 17 116 -21 c 128,-1,7
 93 -59 93 -59 48 -87 c 1,8,-1
 23 -62 l 1,0,1
68 236 m 256,9,10
 68 253 68 253 80 265.5 c 128,-1,11
 92 278 92 278 109 278 c 0,12,13
 127 278 127 278 139 265.5 c 128,-1,14
 151 253 151 253 151 236 c 256,15,16
 151 219 151 219 139 207 c 128,-1,17
 127 195 127 195 109 195 c 0,18,19
 92 195 92 195 80 207 c 128,-1,20
 68 219 68 219 68 236 c 256,9,10
EndSplineSet
EndChar
StartChar: less
Encoding: 60 60 31
Width: 536
Flags: W
Fore
468 319 m 1,0,-1
 144 200 l 1,1,-1
 468 83 l 1,2,-1
 468 29 l 1,3,-1
 68 175 l 1,4,-1
 68 227 l 1,5,-1
 468 372 l 1,6,-1
 468 319 l 1,0,-1
EndSplineSet
EndChar
StartChar: equal
Encoding: 61 61 32
Width: 536
Flags: W
Fore
68 289 m 1,0,-1
 468 289 l 1,1,-1
 468 239 l 1,2,-1
 68 239 l 1,3,-1
 68 289 l 1,0,-1
68 162 m 1,4,-1
 468 162 l 1,5,-1
 468 112 l 1,6,-1
 68 112 l 1,7,-1
 68 162 l 1,4,-1
EndSplineSet
EndChar
StartChar: greater
Encoding: 62 62 33
Width: 536
Flags: W
Fore
68 319 m 1,0,-1
 68 372 l 1,1,-1
 468 227 l 1,2,-1
 468 175 l 1,3,-1
 68 29 l 1,4,-1
 68 83 l 1,5,-1
 392 200 l 1,6,-1
 68 319 l 1,0,-1
EndSplineSet
EndChar
StartChar: question
Encoding: 63 63 34
Width: 343
Flags: W
Fore
113 33 m 0,0,1
 113 50 113 50 124.5 62 c 128,-1,2
 136 74 136 74 154 74 c 256,3,4
 172 74 172 74 184 62 c 128,-1,5
 196 50 196 50 196 33 c 0,6,7
 196 15 196 15 184 3 c 128,-1,8
 172 -9 172 -9 154 -9 c 256,9,10
 136 -9 136 -9 124.5 3 c 128,-1,11
 113 15 113 15 113 33 c 0,0,1
44 446 m 1,12,13
 77 461 77 461 106.5 468 c 128,-1,14
 136 475 136 475 163 475 c 0,15,16
 232 475 232 475 272 441.5 c 128,-1,17
 312 408 312 408 312 351 c 0,18,19
 312 293 312 293 277.5 256.5 c 128,-1,20
 243 220 243 220 173 204 c 1,21,-1
 173 124 l 1,22,-1
 135 124 l 1,23,-1
 135 227 l 1,24,25
 190 240 190 240 218 271.5 c 128,-1,26
 246 303 246 303 246 352 c 0,27,28
 246 395 246 395 223 419.5 c 128,-1,29
 200 444 200 444 161 444 c 0,30,31
 125 444 125 444 102.5 423.5 c 128,-1,32
 80 403 80 403 74 365 c 1,33,-1
 44 365 l 1,34,-1
 44 446 l 1,12,13
EndSplineSet
EndChar
StartChar: at
Encoding: 64 64 35
Width: 640
Flags: W
Fore
404 77 m 1,0,1
 386 52 386 52 363 39.5 c 128,-1,2
 340 27 340 27 311 27 c 0,3,4
 256 27 256 27 222 66 c 128,-1,5
 188 105 188 105 188 168 c 0,6,7
 188 230 188 230 222 269 c 128,-1,8
 256 308 256 308 311 308 c 0,9,10
 340 308 340 308 363 296 c 128,-1,11
 386 284 386 284 404 258 c 1,12,-1
 404 302 l 1,13,-1
 453 302 l 1,14,-1
 453 61 l 1,15,16
 506 72 506 72 535.5 111 c 128,-1,17
 565 150 565 150 565 209 c 0,18,19
 565 244 565 244 554.5 275 c 128,-1,20
 544 306 544 306 523 332 c 0,21,22
 490 374 490 374 442 396 c 128,-1,23
 394 418 394 418 339 418 c 0,24,25
 310 418 310 418 282.5 412 c 128,-1,26
 255 406 255 406 228 394 c 0,27,28
 165 365 165 365 130 306 c 128,-1,29
 95 247 95 247 95 170 c 0,30,31
 95 118 95 118 111 73.5 c 128,-1,32
 127 29 127 29 156 -3 c 0,33,34
 190 -40 190 -40 237 -59.5 c 128,-1,35
 284 -79 284 -79 338 -79 c 0,36,37
 378 -79 378 -79 413 -67 c 128,-1,38
 448 -55 448 -55 478 -31 c 1,39,-1
 495 -53 l 1,40,41
 461 -82 461 -82 418 -96.5 c 128,-1,42
 375 -111 375 -111 324 -111 c 0,43,44
 267 -111 267 -111 215 -90.5 c 128,-1,45
 163 -70 163 -70 124 -31 c 0,46,47
 84 8 84 8 63 59.5 c 128,-1,48
 42 111 42 111 42 170 c 0,49,50
 42 227 42 227 63 278 c 128,-1,51
 84 329 84 329 124 369 c 0,52,53
 164 408 164 408 217.5 429.5 c 128,-1,54
 271 451 271 451 332 451 c 0,55,56
 399 451 399 451 454 425 c 128,-1,57
 509 399 509 399 547 350 c 0,58,59
 570 319 570 319 582.5 283.5 c 128,-1,60
 595 248 595 248 595 209 c 0,61,62
 595 125 595 125 544 76.5 c 128,-1,63
 493 28 493 28 404 27 c 1,64,-1
 404 77 l 1,0,1
404 152 m 2,65,-1
 404 184 l 2,66,67
 404 223 404 223 382 247.5 c 128,-1,68
 360 272 360 272 324 272 c 0,69,70
 286 272 286 272 265 244.5 c 128,-1,71
 244 217 244 217 244 168 c 0,72,73
 244 118 244 118 265 90.5 c 128,-1,74
 286 63 286 63 324 63 c 0,75,76
 360 63 360 63 382 88 c 128,-1,77
 404 113 404 113 404 152 c 2,65,-1
EndSplineSet
EndChar
StartChar: A
Encoding: 65 65 36
Width: 462
Flags: W
Fore
128 169 m 1,0,-1
 300 169 l 1,1,-1
 214 391 l 1,2,-1
 128 169 l 1,0,-1
-4 0 m 1,3,-1
 -4 33 l 1,4,-1
 37 33 l 1,5,-1
 204 467 l 1,6,-1
 256 467 l 1,7,-1
 422 33 l 1,8,-1
 468 33 l 1,9,-1
 468 0 l 1,10,-1
 299 0 l 1,11,-1
 299 33 l 1,12,-1
 351 33 l 1,13,-1
 312 136 l 1,14,-1
 115 136 l 1,15,-1
 76 33 l 1,16,-1
 127 33 l 1,17,-1
 127 0 l 1,18,-1
 -4 0 l 1,3,-1
EndSplineSet
KernsSLIFO: 57 -50 0 0
EndChar
StartChar: B
Encoding: 66 66 37
Width: 470
Flags: W
Fore
158 33 m 1,0,-1
 252 33 l 2,1,2
 308 33 308 33 334 57.5 c 128,-1,3
 360 82 360 82 360 135 c 256,4,5
 360 188 360 188 334 212 c 128,-1,6
 308 236 308 236 252 236 c 2,7,-1
 158 236 l 1,8,-1
 158 33 l 1,0,-1
158 269 m 1,9,-1
 237 269 l 2,10,11
 289 269 289 269 312.5 288.5 c 128,-1,12
 336 308 336 308 336 351 c 256,13,14
 336 394 336 394 312.5 413.5 c 128,-1,15
 289 433 289 433 237 433 c 2,16,-1
 158 433 l 1,17,-1
 158 269 l 1,9,-1
35 0 m 1,18,-1
 35 33 l 1,19,-1
 95 33 l 1,20,-1
 95 433 l 1,21,-1
 35 433 l 1,22,-1
 35 467 l 1,23,-1
 266 467 l 2,24,25
 336 467 336 467 372 438 c 128,-1,26
 408 409 408 409 408 351 c 0,27,28
 408 310 408 310 383 285 c 128,-1,29
 358 260 358 260 310 255 c 1,30,31
 370 247 370 247 400.5 216.5 c 128,-1,32
 431 186 431 186 431 135 c 0,33,34
 431 66 431 66 387.5 33 c 128,-1,35
 344 0 344 0 251 0 c 2,36,-1
 35 0 l 1,18,-1
EndSplineSet
EndChar
StartChar: C
Encoding: 67 67 38
Width: 490
Flags: W
Fore
451 124 m 1,0,1
 431 58 431 58 382 24.5 c 128,-1,2
 333 -9 333 -9 259 -9 c 0,3,4
 213 -9 213 -9 174 6.5 c 128,-1,5
 135 22 135 22 105 52 c 0,6,7
 70 88 70 88 53 132.5 c 128,-1,8
 36 177 36 177 36 233 c 0,9,10
 36 342 36 342 98.5 408.5 c 128,-1,11
 161 475 161 475 264 475 c 0,12,13
 303 475 303 475 345.5 465 c 128,-1,14
 388 455 388 455 438 435 c 1,15,-1
 438 327 l 1,16,-1
 403 327 l 1,17,18
 392 386 392 386 357 414 c 128,-1,19
 322 442 322 442 259 442 c 0,20,21
 184 442 184 442 146 388.5 c 128,-1,22
 108 335 108 335 108 233 c 256,23,24
 108 131 108 131 146 77.5 c 128,-1,25
 184 24 184 24 259 24 c 0,26,27
 311 24 311 24 345 49 c 128,-1,28
 379 74 379 74 394 124 c 1,29,-1
 451 124 l 1,0,1
EndSplineSet
EndChar
StartChar: D
Encoding: 68 68 39
Width: 513
Flags: W
Fore
158 33 m 1,0,-1
 216 33 l 2,1,2
 307 33 307 33 355.5 85 c 128,-1,3
 404 137 404 137 404 234 c 256,4,5
 404 331 404 331 355.5 382 c 128,-1,6
 307 433 307 433 216 433 c 2,7,-1
 158 433 l 1,8,-1
 158 33 l 1,0,-1
35 0 m 1,9,-1
 35 33 l 1,10,-1
 95 33 l 1,11,-1
 95 433 l 1,12,-1
 35 433 l 1,13,-1
 35 467 l 1,14,-1
 221 467 l 2,15,16
 342 467 342 467 409 405.5 c 128,-1,17
 476 344 476 344 476 234 c 256,18,19
 476 124 476 124 408.5 62 c 128,-1,20
 341 0 341 0 221 0 c 2,21,-1
 35 0 l 1,9,-1
EndSplineSet
EndChar
StartChar: E
Encoding: 69 69 40
Width: 467
Flags: W
Fore
35 0 m 1,0,-1
 35 33 l 1,1,-1
 95 33 l 1,2,-1
 95 433 l 1,3,-1
 35 433 l 1,4,-1
 35 467 l 1,5,-1
 411 467 l 1,6,-1
 411 363 l 1,7,-1
 372 363 l 1,8,-1
 372 428 l 1,9,-1
 158 428 l 1,10,-1
 158 272 l 1,11,-1
 311 272 l 1,12,-1
 311 330 l 1,13,-1
 349 330 l 1,14,-1
 349 175 l 1,15,-1
 311 175 l 1,16,-1
 311 234 l 1,17,-1
 158 234 l 1,18,-1
 158 38 l 1,19,-1
 378 38 l 1,20,-1
 378 104 l 1,21,-1
 416 104 l 1,22,-1
 416 0 l 1,23,-1
 35 0 l 1,0,-1
EndSplineSet
EndChar
StartChar: F
Encoding: 70 70 41
Width: 444
Flags: W
Fore
35 0 m 1,0,-1
 35 33 l 1,1,-1
 95 33 l 1,2,-1
 95 433 l 1,3,-1
 35 433 l 1,4,-1
 35 467 l 1,5,-1
 417 467 l 1,6,-1
 417 363 l 1,7,-1
 379 363 l 1,8,-1
 379 428 l 1,9,-1
 158 428 l 1,10,-1
 158 272 l 1,11,-1
 317 272 l 1,12,-1
 317 330 l 1,13,-1
 356 330 l 1,14,-1
 356 175 l 1,15,-1
 317 175 l 1,16,-1
 317 234 l 1,17,-1
 158 234 l 1,18,-1
 158 33 l 1,19,-1
 233 33 l 1,20,-1
 233 0 l 1,21,-1
 35 0 l 1,0,-1
EndSplineSet
EndChar
StartChar: G
Encoding: 71 71 42
Width: 511
Flags: W
Fore
410 327 m 1,0,1
 399 386 399 386 364.5 414 c 128,-1,2
 330 442 330 442 268 442 c 0,3,4
 187 442 187 442 147.5 390 c 128,-1,5
 108 338 108 338 108 233 c 0,6,7
 108 130 108 130 148.5 77 c 128,-1,8
 189 24 189 24 269 24 c 0,9,10
 304 24 304 24 336.5 33 c 128,-1,11
 369 42 369 42 397 60 c 1,12,-1
 397 180 l 1,13,-1
 310 180 l 1,14,-1
 310 213 l 1,15,-1
 461 213 l 1,16,-1
 461 39 l 1,17,18
 419 15 419 15 371 3 c 128,-1,19
 323 -9 323 -9 269 -9 c 0,20,21
 163 -9 163 -9 99.5 57 c 128,-1,22
 36 123 36 123 36 233 c 0,23,24
 36 344 36 344 99.5 409.5 c 128,-1,25
 163 475 163 475 271 475 c 0,26,27
 311 475 311 475 354 465.5 c 128,-1,28
 397 456 397 456 445 438 c 1,29,-1
 445 327 l 1,30,-1
 410 327 l 1,0,1
EndSplineSet
EndChar
StartChar: H
Encoding: 72 72 43
Width: 558
Flags: W
Fore
35 0 m 1,0,-1
 35 33 l 1,1,-1
 95 33 l 1,2,-1
 95 433 l 1,3,-1
 35 433 l 1,4,-1
 35 467 l 1,5,-1
 218 467 l 1,6,-1
 218 433 l 1,7,-1
 158 433 l 1,8,-1
 158 272 l 1,9,-1
 400 272 l 1,10,-1
 400 433 l 1,11,-1
 340 433 l 1,12,-1
 340 467 l 1,13,-1
 523 467 l 1,14,-1
 523 433 l 1,15,-1
 463 433 l 1,16,-1
 463 33 l 1,17,-1
 523 33 l 1,18,-1
 523 0 l 1,19,-1
 340 0 l 1,20,-1
 340 33 l 1,21,-1
 400 33 l 1,22,-1
 400 234 l 1,23,-1
 158 234 l 1,24,-1
 158 33 l 1,25,-1
 218 33 l 1,26,-1
 218 0 l 1,27,-1
 35 0 l 1,0,-1
EndSplineSet
EndChar
StartChar: I
Encoding: 73 73 44
Width: 253
Flags: W
Fore
158 33 m 1,0,-1
 218 33 l 1,1,-1
 218 0 l 1,2,-1
 35 0 l 1,3,-1
 35 33 l 1,4,-1
 95 33 l 1,5,-1
 95 433 l 1,6,-1
 35 433 l 1,7,-1
 35 467 l 1,8,-1
 218 467 l 1,9,-1
 218 433 l 1,10,-1
 158 433 l 1,11,-1
 158 33 l 1,0,-1
EndSplineSet
EndChar
StartChar: J
Encoding: 74 74 45
Width: 257
Flags: W
Fore
-54 -112 m 1,0,-1
 -54 -38 l 1,1,-1
 -18 -38 l 1,2,3
 -17 -69 -17 -69 -3.5 -84.5 c 128,-1,4
 10 -100 10 -100 38 -100 c 0,5,6
 75 -100 75 -100 89.5 -76.5 c 128,-1,7
 104 -53 104 -53 104 15 c 2,8,-1
 104 433 l 1,9,-1
 32 433 l 1,10,-1
 32 467 l 1,11,-1
 227 467 l 1,12,-1
 227 433 l 1,13,-1
 168 433 l 1,14,-1
 168 13 l 2,15,16
 168 -65 168 -65 137 -99 c 128,-1,17
 106 -133 106 -133 37 -133 c 0,18,19
 15 -133 15 -133 -8 -127.5 c 128,-1,20
 -31 -122 -31 -122 -54 -112 c 1,0,-1
EndSplineSet
EndChar
StartChar: K
Encoding: 75 75 46
Width: 478
Flags: W
Fore
35 0 m 1,0,-1
 35 33 l 1,1,-1
 95 33 l 1,2,-1
 95 433 l 1,3,-1
 35 433 l 1,4,-1
 35 467 l 1,5,-1
 218 467 l 1,6,-1
 218 433 l 1,7,-1
 158 433 l 1,8,-1
 158 257 l 1,9,-1
 359 433 l 1,10,-1
 308 433 l 1,11,-1
 308 467 l 1,12,-1
 463 467 l 1,13,-1
 463 433 l 1,14,-1
 411 433 l 1,15,-1
 211 257 l 1,16,-1
 435 33 l 1,17,-1
 488 33 l 1,18,-1
 488 0 l 1,19,-1
 380 0 l 1,20,-1
 158 221 l 1,21,-1
 158 33 l 1,22,-1
 218 33 l 1,23,-1
 218 0 l 1,24,-1
 35 0 l 1,0,-1
EndSplineSet
EndChar
StartChar: L
Encoding: 76 76 47
Width: 425
Flags: W
Fore
35 0 m 1,0,-1
 35 33 l 1,1,-1
 95 33 l 1,2,-1
 95 433 l 1,3,-1
 35 433 l 1,4,-1
 35 467 l 1,5,-1
 218 467 l 1,6,-1
 218 433 l 1,7,-1
 158 433 l 1,8,-1
 158 38 l 1,9,-1
 371 38 l 1,10,-1
 371 116 l 1,11,-1
 410 116 l 1,12,-1
 410 0 l 1,13,-1
 35 0 l 1,0,-1
EndSplineSet
EndChar
StartChar: M
Encoding: 77 77 48
Width: 655
Flags: W
Fore
35 0 m 1,0,-1
 35 33 l 1,1,-1
 95 33 l 1,2,-1
 95 433 l 1,3,-1
 32 433 l 1,4,-1
 32 467 l 1,5,-1
 168 467 l 1,6,-1
 332 134 l 1,7,-1
 495 467 l 1,8,-1
 623 467 l 1,9,-1
 623 433 l 1,10,-1
 561 433 l 1,11,-1
 561 33 l 1,12,-1
 620 33 l 1,13,-1
 620 0 l 1,14,-1
 438 0 l 1,15,-1
 438 33 l 1,16,-1
 497 33 l 1,17,-1
 497 394 l 1,18,-1
 337 68 l 1,19,-1
 293 68 l 1,20,-1
 133 394 l 1,21,-1
 133 33 l 1,22,-1
 193 33 l 1,23,-1
 193 0 l 1,24,-1
 35 0 l 1,0,-1
EndSplineSet
EndChar
StartChar: N
Encoding: 78 78 49
Width: 560
Flags: W
Fore
31 0 m 1,0,-1
 31 33 l 1,1,-1
 94 33 l 1,2,-1
 94 433 l 1,3,-1
 31 433 l 1,4,-1
 31 467 l 1,5,-1
 151 467 l 1,6,-1
 431 99 l 1,7,-1
 431 433 l 1,8,-1
 368 433 l 1,9,-1
 368 467 l 1,10,-1
 532 467 l 1,11,-1
 532 433 l 1,12,-1
 469 433 l 1,13,-1
 469 -9 l 1,14,-1
 431 -9 l 1,15,-1
 132 384 l 1,16,-1
 132 33 l 1,17,-1
 195 33 l 1,18,-1
 195 0 l 1,19,-1
 31 0 l 1,0,-1
EndSplineSet
EndChar
StartChar: O
Encoding: 79 79 50
Width: 525
Flags: W
Fore
262 24 m 0,0,1
 339 24 339 24 378 77 c 128,-1,2
 417 130 417 130 417 233 c 256,3,4
 417 336 417 336 378 389 c 128,-1,5
 339 442 339 442 262 442 c 0,6,7
 186 442 186 442 147 389 c 128,-1,8
 108 336 108 336 108 233 c 256,9,10
 108 130 108 130 147 77 c 128,-1,11
 186 24 186 24 262 24 c 0,0,1
262 -9 m 0,12,13
 215 -9 215 -9 175 6.5 c 128,-1,14
 135 22 135 22 105 52 c 0,15,16
 70 88 70 88 53 132 c 128,-1,17
 36 176 36 176 36 233 c 0,18,19
 36 289 36 289 53 333.5 c 128,-1,20
 70 378 70 378 105 413 c 0,21,22
 136 444 136 444 175 459.5 c 128,-1,23
 214 475 214 475 262 475 c 0,24,25
 364 475 364 475 426.5 408.5 c 128,-1,26
 489 342 489 342 489 233 c 0,27,28
 489 177 489 177 471.5 132 c 128,-1,29
 454 87 454 87 420 52 c 0,30,31
 389 22 389 22 349.5 6.5 c 128,-1,32
 310 -9 310 -9 262 -9 c 0,12,13
EndSplineSet
EndChar
StartChar: P
Encoding: 80 80 51
Width: 431
Flags: W
Fore
158 237 m 1,0,-1
 241 237 l 2,1,2
 287 237 287 237 311.5 262.5 c 128,-1,3
 336 288 336 288 336 335 c 0,4,5
 336 383 336 383 311.5 408 c 128,-1,6
 287 433 287 433 241 433 c 2,7,-1
 158 433 l 1,8,-1
 158 237 l 1,0,-1
35 0 m 1,9,-1
 35 33 l 1,10,-1
 95 33 l 1,11,-1
 95 433 l 1,12,-1
 35 433 l 1,13,-1
 35 467 l 1,14,-1
 256 467 l 2,15,16
 326 467 326 467 367 431.5 c 128,-1,17
 408 396 408 396 408 335 c 0,18,19
 408 275 408 275 367 239.5 c 128,-1,20
 326 204 326 204 256 204 c 2,21,-1
 158 204 l 1,22,-1
 158 33 l 1,23,-1
 230 33 l 1,24,-1
 230 0 l 1,25,-1
 35 0 l 1,9,-1
EndSplineSet
EndChar
StartChar: Q
Encoding: 81 81 52
Width: 525
Flags: W
Fore
270 -9 m 1,0,1
 163 -9 163 -9 99.5 56.5 c 128,-1,2
 36 122 36 122 36 233 c 0,3,4
 36 289 36 289 53 333.5 c 128,-1,5
 70 378 70 378 105 413 c 0,6,7
 136 444 136 444 175 459.5 c 128,-1,8
 214 475 214 475 262 475 c 0,9,10
 364 475 364 475 426.5 408.5 c 128,-1,11
 489 342 489 342 489 233 c 0,12,13
 489 140 489 140 442.5 77 c 128,-1,14
 396 14 396 14 313 -4 c 1,15,16
 330 -25 330 -25 354 -35 c 128,-1,17
 378 -45 378 -45 412 -45 c 2,18,-1
 422 -45 l 1,19,-1
 422 -102 l 1,20,21
 369 -100 369 -100 331.5 -76.5 c 128,-1,22
 294 -53 294 -53 270 -9 c 1,0,1
262 24 m 0,23,24
 339 24 339 24 378 77 c 128,-1,25
 417 130 417 130 417 233 c 256,26,27
 417 336 417 336 378 389 c 128,-1,28
 339 442 339 442 262 442 c 0,29,30
 186 442 186 442 147 389 c 128,-1,31
 108 336 108 336 108 233 c 256,32,33
 108 130 108 130 147 77 c 128,-1,34
 186 24 186 24 262 24 c 0,23,24
EndSplineSet
EndChar
StartChar: R
Encoding: 82 82 53
Width: 482
Flags: W
Fore
307 232 m 1,0,1
 328 226 328 226 344 211.5 c 128,-1,2
 360 197 360 197 372 172 c 2,3,-1
 440 33 l 1,4,-1
 497 33 l 1,5,-1
 497 0 l 1,6,-1
 387 0 l 1,7,-1
 314 148 l 2,8,9
 293 191 293 191 276 204 c 128,-1,10
 259 217 259 217 228 217 c 2,11,-1
 158 217 l 1,12,-1
 158 33 l 1,13,-1
 224 33 l 1,14,-1
 224 0 l 1,15,-1
 35 0 l 1,16,-1
 35 33 l 1,17,-1
 95 33 l 1,18,-1
 95 433 l 1,19,-1
 35 433 l 1,20,-1
 35 467 l 1,21,-1
 272 467 l 2,22,23
 340 467 340 467 377 434 c 128,-1,24
 414 401 414 401 414 342 c 0,25,26
 414 294 414 294 387 266.5 c 128,-1,27
 360 239 360 239 307 232 c 1,0,1
158 250 m 1,28,-1
 250 250 l 2,29,30
 298 250 298 250 320 272.5 c 128,-1,31
 342 295 342 295 342 342 c 0,32,33
 342 388 342 388 320 410.5 c 128,-1,34
 298 433 298 433 250 433 c 2,35,-1
 158 433 l 1,36,-1
 158 250 l 1,28,-1
EndSplineSet
EndChar
StartChar: S
Encoding: 83 83 54
Width: 438
Flags: W
Fore
60 22 m 1,0,-1
 60 129 l 1,1,-1
 95 129 l 1,2,3
 97 76 97 76 126.5 50 c 128,-1,4
 156 24 156 24 215 24 c 0,5,6
 271 24 271 24 300 46 c 128,-1,7
 329 68 329 68 329 111 c 0,8,9
 329 145 329 145 311.5 162.5 c 128,-1,10
 294 180 294 180 237 198 c 2,11,-1
 175 216 l 2,12,13
 108 237 108 237 81 267 c 128,-1,14
 54 297 54 297 54 350 c 0,15,16
 54 410 54 410 96 442.5 c 128,-1,17
 138 475 138 475 214 475 c 0,18,19
 247 475 247 475 285.5 468 c 128,-1,20
 324 461 324 461 368 447 c 1,21,-1
 368 348 l 1,22,-1
 333 348 l 1,23,24
 328 397 328 397 300 419.5 c 128,-1,25
 272 442 272 442 216 442 c 0,26,27
 166 442 166 442 140.5 421.5 c 128,-1,28
 115 401 115 401 115 363 c 0,29,30
 115 330 115 330 134.5 310.5 c 128,-1,31
 154 291 154 291 216 273 c 2,32,-1
 274 255 l 2,33,34
 337 236 337 236 364.5 206.5 c 128,-1,35
 392 177 392 177 392 127 c 0,36,37
 392 60 392 60 348.5 25.5 c 128,-1,38
 305 -9 305 -9 219 -9 c 0,39,40
 180 -9 180 -9 140 -1.5 c 128,-1,41
 100 6 100 6 60 22 c 1,0,-1
EndSplineSet
EndChar
StartChar: T
Encoding: 84 84 55
Width: 427
Flags: W
Fore
122 0 m 1,0,-1
 122 33 l 1,1,-1
 182 33 l 1,2,-1
 182 429 l 1,3,-1
 45 429 l 1,4,-1
 45 356 l 1,5,-1
 6 356 l 1,6,-1
 6 467 l 1,7,-1
 420 467 l 1,8,-1
 420 356 l 1,9,-1
 382 356 l 1,10,-1
 382 429 l 1,11,-1
 245 429 l 1,12,-1
 245 33 l 1,13,-1
 305 33 l 1,14,-1
 305 0 l 1,15,-1
 122 0 l 1,0,-1
EndSplineSet
EndChar
StartChar: U
Encoding: 85 85 56
Width: 540
Flags: W
Fore
90 433 m 1,0,-1
 30 433 l 1,1,-1
 30 467 l 1,2,-1
 212 467 l 1,3,-1
 212 433 l 1,4,-1
 153 433 l 1,5,-1
 153 192 l 2,6,7
 153 102 153 102 182 67 c 128,-1,8
 211 32 211 32 283 32 c 256,9,10
 355 32 355 32 384 67 c 128,-1,11
 413 102 413 102 413 192 c 2,12,-1
 413 433 l 1,13,-1
 353 433 l 1,14,-1
 353 467 l 1,15,-1
 511 467 l 1,16,-1
 511 433 l 1,17,-1
 451 433 l 1,18,-1
 451 186 l 2,19,20
 451 79 451 79 410 35 c 128,-1,21
 369 -9 369 -9 271 -9 c 256,22,23
 173 -9 173 -9 131.5 35.5 c 128,-1,24
 90 80 90 80 90 186 c 2,25,-1
 90 433 l 1,0,-1
EndSplineSet
EndChar
StartChar: V
Encoding: 86 86 57
Width: 462
Flags: W
Fore
112 433 m 1,0,-1
 250 75 l 1,1,-1
 387 433 l 1,2,-1
 335 433 l 1,3,-1
 335 467 l 1,4,-1
 472 467 l 1,5,-1
 472 433 l 1,6,-1
 426 433 l 1,7,-1
 260 0 l 1,8,-1
 206 0 l 1,9,-1
 40 433 l 1,10,-1
 -6 433 l 1,11,-1
 -6 467 l 1,12,-1
 164 467 l 1,13,-1
 164 433 l 1,14,-1
 112 433 l 1,0,-1
EndSplineSet
KernsSLIFO: 36 -50 0 0
EndChar
StartChar: W
Encoding: 87 87 58
Width: 658
Flags: W
Fore
488 0 m 1,0,-1
 436 0 l 1,1,-1
 330 380 l 1,2,-1
 223 0 l 1,3,-1
 172 0 l 1,4,-1
 49 433 l 1,5,-1
 3 433 l 1,6,-1
 3 467 l 1,7,-1
 173 467 l 1,8,-1
 173 433 l 1,9,-1
 115 433 l 1,10,-1
 212 88 l 1,11,-1
 319 467 l 1,12,-1
 369 467 l 1,13,-1
 477 84 l 1,14,-1
 575 433 l 1,15,-1
 522 433 l 1,16,-1
 522 467 l 1,17,-1
 656 467 l 1,18,-1
 656 433 l 1,19,-1
 610 433 l 1,20,-1
 488 0 l 1,0,-1
EndSplineSet
EndChar
StartChar: X
Encoding: 88 88 59
Width: 456
Flags: W
Fore
212 200 m 1,0,-1
 98 33 l 1,1,-1
 158 33 l 1,2,-1
 158 0 l 1,3,-1
 4 0 l 1,4,-1
 4 33 l 1,5,-1
 58 33 l 1,6,-1
 192 229 l 1,7,-1
 56 433 l 1,8,-1
 6 433 l 1,9,-1
 6 467 l 1,10,-1
 191 467 l 1,11,-1
 191 433 l 1,12,-1
 136 433 l 1,13,-1
 236 283 l 1,14,-1
 339 433 l 1,15,-1
 278 433 l 1,16,-1
 278 467 l 1,17,-1
 431 467 l 1,18,-1
 431 433 l 1,19,-1
 379 433 l 1,20,-1
 255 253 l 1,21,-1
 403 33 l 1,22,-1
 452 33 l 1,23,-1
 452 0 l 1,24,-1
 268 0 l 1,25,-1
 268 33 l 1,26,-1
 323 33 l 1,27,-1
 212 200 l 1,0,-1
EndSplineSet
EndChar
StartChar: Y
Encoding: 89 89 60
Width: 422
Flags: W
Fore
121 0 m 1,0,-1
 121 33 l 1,1,-1
 180 33 l 1,2,-1
 180 201 l 1,3,-1
 36 433 l 1,4,-1
 -7 433 l 1,5,-1
 -7 467 l 1,6,-1
 166 467 l 1,7,-1
 166 433 l 1,8,-1
 112 433 l 1,9,-1
 228 244 l 1,10,-1
 345 433 l 1,11,-1
 292 433 l 1,12,-1
 292 467 l 1,13,-1
 428 467 l 1,14,-1
 428 433 l 1,15,-1
 384 433 l 1,16,-1
 244 207 l 1,17,-1
 244 33 l 1,18,-1
 303 33 l 1,19,-1
 303 0 l 1,20,-1
 121 0 l 1,0,-1
EndSplineSet
EndChar
StartChar: Z
Encoding: 90 90 61
Width: 445
Flags: W
Fore
29 0 m 1,0,-1
 29 22 l 1,1,-1
 319 428 l 1,2,-1
 78 428 l 1,3,-1
 78 358 l 1,4,-1
 40 358 l 1,5,-1
 40 467 l 1,6,-1
 408 467 l 1,7,-1
 408 444 l 1,8,-1
 118 38 l 1,9,-1
 381 38 l 1,10,-1
 381 104 l 1,11,-1
 420 104 l 1,12,-1
 420 0 l 1,13,-1
 29 0 l 1,0,-1
EndSplineSet
EndChar
StartChar: bracketleft
Encoding: 91 91 62
Width: 250
Flags: W
Fore
55 486 m 1,0,-1
 200 486 l 1,1,-1
 200 453 l 1,2,-1
 115 453 l 1,3,-1
 115 -51 l 1,4,-1
 200 -51 l 1,5,-1
 200 -84 l 1,6,-1
 55 -84 l 1,7,-1
 55 486 l 1,0,-1
EndSplineSet
EndChar
StartChar: backslash
Encoding: 92 92 63
Width: 216
Flags: W
Fore
50 467 m 1,0,-1
 216 -60 l 1,1,-1
 166 -60 l 1,2,-1
 0 467 l 1,3,-1
 50 467 l 1,0,-1
EndSplineSet
EndChar
StartChar: bracketright
Encoding: 93 93 64
Width: 250
Flags: W
Fore
195 486 m 1,0,-1
 195 -84 l 1,1,-1
 49 -84 l 1,2,-1
 49 -51 l 1,3,-1
 135 -51 l 1,4,-1
 135 453 l 1,5,-1
 49 453 l 1,6,-1
 49 486 l 1,7,-1
 195 486 l 1,0,-1
EndSplineSet
EndChar
StartChar: asciicircum
Encoding: 94 94 65
Width: 536
Flags: W
Fore
299 467 m 1,0,-1
 468 292 l 1,1,-1
 420 292 l 1,2,-1
 268 412 l 1,3,-1
 116 292 l 1,4,-1
 68 292 l 1,5,-1
 237 467 l 1,6,-1
 299 467 l 1,0,-1
EndSplineSet
EndChar
StartChar: underscore
Encoding: 95 95 66
Width: 320
Flags: W
Fore
320 -126 m 1,0,-1
 320 -151 l 1,1,-1
 0 -151 l 1,2,-1
 0 -126 l 1,3,-1
 320 -126 l 1,0,-1
EndSplineSet
EndChar
StartChar: grave
Encoding: 96 96 67
Width: 320
Flags: W
Fore
115 511 m 1,0,-1
 196 394 l 1,1,-1
 159 394 l 1,2,-1
 53 511 l 1,3,-1
 115 511 l 1,0,-1
EndSplineSet
EndChar
StartChar: a
Encoding: 97 97 68
Width: 381
Flags: W
Fore
255 104 m 2,0,-1
 255 175 l 1,1,-1
 180 175 l 2,2,3
 138 175 138 175 117 156.5 c 128,-1,4
 96 138 96 138 96 100 c 0,5,6
 96 65 96 65 117 44.5 c 128,-1,7
 138 24 138 24 175 24 c 0,8,9
 211 24 211 24 233 46 c 128,-1,10
 255 68 255 68 255 104 c 2,0,-1
312 207 m 2,11,-1
 312 33 l 1,12,-1
 364 33 l 1,13,-1
 364 0 l 1,14,-1
 255 0 l 1,15,-1
 255 36 l 1,16,17
 236 13 236 13 211 2 c 128,-1,18
 186 -9 186 -9 152 -9 c 0,19,20
 97 -9 97 -9 64.5 20.5 c 128,-1,21
 32 50 32 50 32 100 c 0,22,23
 32 151 32 151 69 179.5 c 128,-1,24
 106 208 106 208 174 208 c 2,25,-1
 255 208 l 1,26,-1
 255 231 l 2,27,28
 255 269 255 269 232 289.5 c 128,-1,29
 209 310 209 310 167 310 c 0,30,31
 133 310 133 310 112.5 294.5 c 128,-1,32
 92 279 92 279 87 248 c 1,33,-1
 58 248 l 1,34,-1
 58 316 l 1,35,36
 88 328 88 328 116 334.5 c 128,-1,37
 144 341 144 341 171 341 c 0,38,39
 240 341 240 341 276 307 c 128,-1,40
 312 273 312 273 312 207 c 2,11,-1
EndSplineSet
Substitution: 0 65534 'L019' uni0E38
Substitution: 0 65534 'L019' uni0E38
EndChar
StartChar: b
Encoding: 98 98 69
Width: 410
Flags: W
Fore
74 33 m 1,0,-1
 74 453 l 1,1,-1
 19 453 l 1,2,-1
 19 486 l 1,3,-1
 131 486 l 1,4,-1
 131 280 l 1,5,6
 148 312 148 312 174 326.5 c 128,-1,7
 200 341 200 341 239 341 c 0,8,9
 300 341 300 341 339 292.5 c 128,-1,10
 378 244 378 244 378 166 c 256,11,12
 378 88 378 88 339 39.5 c 128,-1,13
 300 -9 300 -9 239 -9 c 0,14,15
 200 -9 200 -9 174 5.5 c 128,-1,16
 148 20 148 20 131 52 c 1,17,-1
 131 0 l 1,18,-1
 19 0 l 1,19,-1
 19 33 l 1,20,-1
 74 33 l 1,0,-1
131 150 m 2,21,22
 131 90 131 90 154 58.5 c 128,-1,23
 177 27 177 27 221 27 c 256,24,25
 265 27 265 27 287.5 62 c 128,-1,26
 310 97 310 97 310 166 c 0,27,28
 310 236 310 236 287.5 270.5 c 128,-1,29
 265 305 265 305 221 305 c 256,30,31
 177 305 177 305 154 273.5 c 128,-1,32
 131 242 131 242 131 182 c 2,33,-1
 131 150 l 2,21,22
EndSplineSet
Substitution: 0 65534 'L019' uni0E39
Substitution: 0 65534 'L019' uni0E39
EndChar
StartChar: c
Encoding: 99 99 70
Width: 358
Flags: W
Fore
329 100 m 1,0,1
 317 47 317 47 282.5 19 c 128,-1,2
 248 -9 248 -9 193 -9 c 0,3,4
 120 -9 120 -9 76 39 c 128,-1,5
 32 87 32 87 32 166 c 0,6,7
 32 246 32 246 76 293.5 c 128,-1,8
 120 341 120 341 193 341 c 0,9,10
 224 341 224 341 255.5 333.5 c 128,-1,11
 287 326 287 326 318 312 c 1,12,-1
 318 227 l 1,13,-1
 285 227 l 1,14,15
 278 270 278 270 256 290 c 128,-1,16
 234 310 234 310 193 310 c 0,17,18
 147 310 147 310 123 274 c 128,-1,19
 99 238 99 238 99 166 c 256,20,21
 99 94 99 94 123 58 c 128,-1,22
 147 22 147 22 193 22 c 0,23,24
 230 22 230 22 252.5 41.5 c 128,-1,25
 275 61 275 61 283 100 c 1,26,-1
 329 100 l 1,0,1
EndSplineSet
Substitution: 0 65534 'L019' uni0E3A
Substitution: 0 65534 'L019' uni0E3A
EndChar
StartChar: d
Encoding: 100 100 71
Width: 410
Flags: W
Fore
336 33 m 1,0,-1
 391 33 l 1,1,-1
 391 0 l 1,2,-1
 278 0 l 1,3,-1
 278 52 l 1,4,5
 262 20 262 20 235.5 5.5 c 128,-1,6
 209 -9 209 -9 171 -9 c 0,7,8
 109 -9 109 -9 70.5 39.5 c 128,-1,9
 32 88 32 88 32 166 c 256,10,11
 32 244 32 244 70.5 292.5 c 128,-1,12
 109 341 109 341 171 341 c 0,13,14
 209 341 209 341 235.5 326.5 c 128,-1,15
 262 312 262 312 278 280 c 1,16,-1
 278 453 l 1,17,-1
 224 453 l 1,18,-1
 224 486 l 1,19,-1
 336 486 l 1,20,-1
 336 33 l 1,0,-1
278 150 m 2,21,-1
 278 182 l 2,22,23
 278 242 278 242 255 273.5 c 128,-1,24
 232 305 232 305 189 305 c 0,25,26
 145 305 145 305 122 270.5 c 128,-1,27
 99 236 99 236 99 166 c 0,28,29
 99 97 99 97 122 62 c 128,-1,30
 145 27 145 27 189 27 c 0,31,32
 232 27 232 27 255 58.5 c 128,-1,33
 278 90 278 90 278 150 c 2,21,-1
EndSplineSet
EndChar
StartChar: e
Encoding: 101 101 72
Width: 379
Flags: W
Fore
347 160 m 1,0,-1
 99 160 l 1,1,-1
 99 157 l 2,2,3
 99 90 99 90 124.5 56 c 128,-1,4
 150 22 150 22 199 22 c 0,5,6
 237 22 237 22 261 41.5 c 128,-1,7
 285 61 285 61 295 100 c 1,8,-1
 341 100 l 1,9,10
 328 46 328 46 290.5 18.5 c 128,-1,11
 253 -9 253 -9 193 -9 c 0,12,13
 120 -9 120 -9 76 39 c 128,-1,14
 32 87 32 87 32 166 c 256,15,16
 32 245 32 245 75.5 293 c 128,-1,17
 119 341 119 341 189 341 c 0,18,19
 265 341 265 341 305.5 294.5 c 128,-1,20
 346 248 346 248 347 160 c 1,0,-1
279 193 m 1,21,22
 277 252 277 252 254.5 281 c 128,-1,23
 232 310 232 310 189 310 c 0,24,25
 150 310 150 310 127 280.5 c 128,-1,26
 104 251 104 251 99 193 c 1,27,-1
 279 193 l 1,21,22
EndSplineSet
EndChar
StartChar: f
Encoding: 102 102 73
Width: 237
Flags: W
Fore
275 408 m 1,0,-1
 245 408 l 1,1,2
 244 431 244 431 231.5 443.5 c 128,-1,3
 219 456 219 456 194 456 c 0,4,5
 162 456 162 456 149 438 c 128,-1,6
 136 420 136 420 136 375 c 2,7,-1
 136 332 l 1,8,-1
 228 332 l 1,9,-1
 228 299 l 1,10,-1
 136 299 l 1,11,-1
 136 33 l 1,12,-1
 209 33 l 1,13,-1
 209 0 l 1,14,-1
 23 0 l 1,15,-1
 23 33 l 1,16,-1
 78 33 l 1,17,-1
 78 299 l 1,18,-1
 23 299 l 1,19,-1
 23 332 l 1,20,-1
 78 332 l 1,21,-1
 78 374 l 2,22,23
 78 429 78 429 107 457.5 c 128,-1,24
 136 486 136 486 192 486 c 0,25,26
 213 486 213 486 234 482.5 c 128,-1,27
 255 479 255 479 275 471 c 1,28,-1
 275 408 l 1,0,-1
EndSplineSet
EndChar
StartChar: g
Encoding: 103 103 74
Width: 410
Flags: W
Fore
336 299 m 1,0,-1
 336 7 l 2,1,2
 336 -65 336 -65 296.5 -103.5 c 128,-1,3
 257 -142 257 -142 184 -142 c 0,4,5
 152 -142 152 -142 122 -136.5 c 128,-1,6
 92 -131 92 -131 64 -118 c 1,7,-1
 64 -49 l 1,8,-1
 94 -49 l 1,9,10
 100 -81 100 -81 120.5 -96 c 128,-1,11
 141 -111 141 -111 180 -111 c 0,12,13
 231 -111 231 -111 254.5 -82.5 c 128,-1,14
 278 -54 278 -54 278 7 c 2,15,-1
 278 52 l 1,16,17
 262 20 262 20 235.5 5.5 c 128,-1,18
 209 -9 209 -9 171 -9 c 0,19,20
 109 -9 109 -9 70.5 39.5 c 128,-1,21
 32 88 32 88 32 166 c 256,22,23
 32 244 32 244 70.5 292.5 c 128,-1,24
 109 341 109 341 171 341 c 0,25,26
 209 341 209 341 235.5 326.5 c 128,-1,27
 262 312 262 312 278 280 c 1,28,-1
 278 332 l 1,29,-1
 391 332 l 1,30,-1
 391 299 l 1,31,-1
 336 299 l 1,0,-1
278 182 m 2,32,33
 278 242 278 242 255 273.5 c 128,-1,34
 232 305 232 305 189 305 c 0,35,36
 145 305 145 305 122 270.5 c 128,-1,37
 99 236 99 236 99 166 c 0,38,39
 99 97 99 97 122 62 c 128,-1,40
 145 27 145 27 189 27 c 0,41,42
 232 27 232 27 255 58.5 c 128,-1,43
 278 90 278 90 278 150 c 2,44,-1
 278 182 l 2,32,33
EndSplineSet
EndChar
StartChar: h
Encoding: 104 104 75
Width: 412
Flags: W
Fore
26 0 m 1,0,-1
 26 33 l 1,1,-1
 78 33 l 1,2,-1
 78 453 l 1,3,-1
 23 453 l 1,4,-1
 23 486 l 1,5,-1
 136 486 l 1,6,-1
 136 273 l 1,7,8
 152 307 152 307 177 324 c 128,-1,9
 202 341 202 341 236 341 c 0,10,11
 291 341 291 341 317 309.5 c 128,-1,12
 343 278 343 278 343 211 c 2,13,-1
 343 33 l 1,14,-1
 394 33 l 1,15,-1
 394 0 l 1,16,-1
 236 0 l 1,17,-1
 236 33 l 1,18,-1
 285 33 l 1,19,-1
 285 193 l 2,20,21
 285 254 285 254 270 276.5 c 128,-1,22
 255 299 255 299 218 299 c 0,23,24
 177 299 177 299 156.5 270 c 128,-1,25
 136 241 136 241 136 185 c 2,26,-1
 136 33 l 1,27,-1
 186 33 l 1,28,-1
 186 0 l 1,29,-1
 26 0 l 1,0,-1
EndSplineSet
EndChar
StartChar: i
Encoding: 105 105 76
Width: 205
Flags: W
Fore
62 435 m 256,0,1
 62 450 62 450 72.5 460.5 c 128,-1,2
 83 471 83 471 98 471 c 0,3,4
 112 471 112 471 122.5 460.5 c 128,-1,5
 133 450 133 450 133 435 c 256,6,7
 133 420 133 420 123 410 c 128,-1,8
 113 400 113 400 98 400 c 256,9,10
 83 400 83 400 72.5 410 c 128,-1,11
 62 420 62 420 62 435 c 256,0,1
136 33 m 1,12,-1
 190 33 l 1,13,-1
 190 0 l 1,14,-1
 23 0 l 1,15,-1
 23 33 l 1,16,-1
 78 33 l 1,17,-1
 78 299 l 1,18,-1
 23 299 l 1,19,-1
 23 332 l 1,20,-1
 136 332 l 1,21,-1
 136 33 l 1,12,-1
EndSplineSet
EndChar
StartChar: j
Encoding: 106 106 77
Width: 198
Flags: W
Fore
64 435 m 256,0,1
 64 450 64 450 74.5 460.5 c 128,-1,2
 85 471 85 471 100 471 c 0,3,4
 114 471 114 471 124.5 460.5 c 128,-1,5
 135 450 135 450 135 435 c 256,6,7
 135 420 135 420 125 410 c 128,-1,8
 115 400 115 400 100 400 c 256,9,10
 85 400 85 400 74.5 410 c 128,-1,11
 64 420 64 420 64 435 c 256,0,1
78 299 m 1,12,-1
 24 299 l 1,13,-1
 24 332 l 1,14,-1
 136 332 l 1,15,-1
 136 -33 l 2,16,17
 136 -84 136 -84 105.5 -113 c 128,-1,18
 75 -142 75 -142 21 -142 c 0,19,20
 -1 -142 -1 -142 -21.5 -137 c 128,-1,21
 -42 -132 -42 -132 -61 -122 c 1,22,-1
 -61 -53 l 1,23,-1
 -32 -53 l 1,24,25
 -29 -83 -29 -83 -16 -97 c 128,-1,26
 -3 -111 -3 -111 22 -111 c 0,27,28
 51 -111 51 -111 64.5 -92 c 128,-1,29
 78 -73 78 -73 78 -33 c 2,30,-1
 78 299 l 1,12,-1
EndSplineSet
EndChar
StartChar: k
Encoding: 107 107 78
Width: 388
Flags: W
Fore
183 0 m 1,0,-1
 22 0 l 1,1,-1
 22 33 l 1,2,-1
 74 33 l 1,3,-1
 74 453 l 1,4,-1
 19 453 l 1,5,-1
 19 486 l 1,6,-1
 131 486 l 1,7,-1
 131 170 l 1,8,-1
 271 299 l 1,9,-1
 223 299 l 1,10,-1
 223 332 l 1,11,-1
 374 332 l 1,12,-1
 374 299 l 1,13,-1
 317 299 l 1,14,-1
 218 207 l 1,15,-1
 344 33 l 1,16,-1
 392 33 l 1,17,-1
 392 0 l 1,18,-1
 228 0 l 1,19,-1
 228 33 l 1,20,-1
 276 33 l 1,21,-1
 177 170 l 1,22,-1
 131 127 l 1,23,-1
 131 33 l 1,24,-1
 183 33 l 1,25,-1
 183 0 l 1,0,-1
EndSplineSet
EndChar
StartChar: l
Encoding: 108 108 79
Width: 205
Flags: W
Fore
131 33 m 1,0,-1
 186 33 l 1,1,-1
 186 0 l 1,2,-1
 19 0 l 1,3,-1
 19 33 l 1,4,-1
 74 33 l 1,5,-1
 74 453 l 1,6,-1
 19 453 l 1,7,-1
 19 486 l 1,8,-1
 131 486 l 1,9,-1
 131 33 l 1,0,-1
EndSplineSet
EndChar
StartChar: m
Encoding: 109 109 80
Width: 607
Flags: W
Fore
332 268 m 1,0,1
 348 304 348 304 374 322.5 c 128,-1,2
 400 341 400 341 434 341 c 0,3,4
 486 341 486 341 512 308.5 c 128,-1,5
 538 276 538 276 538 211 c 2,6,-1
 538 33 l 1,7,-1
 589 33 l 1,8,-1
 589 0 l 1,9,-1
 430 0 l 1,10,-1
 430 33 l 1,11,-1
 480 33 l 1,12,-1
 480 205 l 2,13,14
 480 255 480 255 465 277 c 128,-1,15
 450 299 450 299 415 299 c 0,16,17
 377 299 377 299 357 270 c 128,-1,18
 337 241 337 241 337 185 c 2,19,-1
 337 33 l 1,20,-1
 387 33 l 1,21,-1
 387 0 l 1,22,-1
 229 0 l 1,23,-1
 229 33 l 1,24,-1
 279 33 l 1,25,-1
 279 207 l 2,26,27
 279 257 279 257 264 278 c 128,-1,28
 249 299 249 299 214 299 c 0,29,30
 176 299 176 299 156 270 c 128,-1,31
 136 241 136 241 136 185 c 2,32,-1
 136 33 l 1,33,-1
 186 33 l 1,34,-1
 186 0 l 1,35,-1
 26 0 l 1,36,-1
 26 33 l 1,37,-1
 78 33 l 1,38,-1
 78 300 l 1,39,-1
 23 300 l 1,40,-1
 23 332 l 1,41,-1
 136 332 l 1,42,-1
 136 273 l 1,43,44
 152 307 152 307 176.5 324 c 128,-1,45
 201 341 201 341 232 341 c 0,46,47
 271 341 271 341 297 322 c 128,-1,48
 323 303 323 303 332 268 c 1,0,1
EndSplineSet
EndChar
StartChar: n
Encoding: 110 110 81
Width: 412
Flags: W
Fore
26 0 m 1,0,-1
 26 33 l 1,1,-1
 78 33 l 1,2,-1
 78 299 l 1,3,-1
 23 299 l 1,4,-1
 23 332 l 1,5,-1
 136 332 l 1,6,-1
 136 273 l 1,7,8
 152 307 152 307 177 324 c 128,-1,9
 202 341 202 341 236 341 c 0,10,11
 291 341 291 341 317 309.5 c 128,-1,12
 343 278 343 278 343 211 c 2,13,-1
 343 33 l 1,14,-1
 394 33 l 1,15,-1
 394 0 l 1,16,-1
 236 0 l 1,17,-1
 236 33 l 1,18,-1
 285 33 l 1,19,-1
 285 193 l 2,20,21
 285 254 285 254 270 277 c 128,-1,22
 255 300 255 300 218 300 c 0,23,24
 177 300 177 300 156.5 270.5 c 128,-1,25
 136 241 136 241 136 185 c 2,26,-1
 136 33 l 1,27,-1
 186 33 l 1,28,-1
 186 0 l 1,29,-1
 26 0 l 1,0,-1
EndSplineSet
EndChar
StartChar: o
Encoding: 111 111 82
Width: 385
Flags: W
Fore
193 22 m 256,0,1
 239 22 239 22 262.5 58.5 c 128,-1,2
 286 95 286 95 286 166 c 256,3,4
 286 237 286 237 262.5 273.5 c 128,-1,5
 239 310 239 310 193 310 c 256,6,7
 147 310 147 310 123 273.5 c 128,-1,8
 99 237 99 237 99 166 c 256,9,10
 99 95 99 95 123 58.5 c 128,-1,11
 147 22 147 22 193 22 c 256,0,1
193 -9 m 256,12,13
 120 -9 120 -9 76 39 c 128,-1,14
 32 87 32 87 32 166 c 0,15,16
 32 246 32 246 76 293.5 c 128,-1,17
 120 341 120 341 193 341 c 256,18,19
 266 341 266 341 309.5 293.5 c 128,-1,20
 353 246 353 246 353 166 c 0,21,22
 353 87 353 87 309.5 39 c 128,-1,23
 266 -9 266 -9 193 -9 c 256,12,13
EndSplineSet
EndChar
StartChar: p
Encoding: 112 112 83
Width: 410
Flags: W
Fore
131 182 m 2,0,-1
 131 150 l 2,1,2
 131 90 131 90 154 58.5 c 128,-1,3
 177 27 177 27 221 27 c 256,4,5
 265 27 265 27 287.5 62 c 128,-1,6
 310 97 310 97 310 166 c 0,7,8
 310 236 310 236 287.5 270.5 c 128,-1,9
 265 305 265 305 221 305 c 256,10,11
 177 305 177 305 154 273.5 c 128,-1,12
 131 242 131 242 131 182 c 2,0,-1
74 299 m 1,13,-1
 19 299 l 1,14,-1
 19 332 l 1,15,-1
 131 332 l 1,16,-1
 131 280 l 1,17,18
 148 312 148 312 174 326.5 c 128,-1,19
 200 341 200 341 239 341 c 0,20,21
 300 341 300 341 339 292.5 c 128,-1,22
 378 244 378 244 378 166 c 256,23,24
 378 88 378 88 339 39.5 c 128,-1,25
 300 -9 300 -9 239 -9 c 0,26,27
 200 -9 200 -9 174 5.5 c 128,-1,28
 148 20 148 20 131 52 c 1,29,-1
 131 -100 l 1,30,-1
 186 -100 l 1,31,-1
 186 -133 l 1,32,-1
 19 -133 l 1,33,-1
 19 -100 l 1,34,-1
 74 -100 l 1,35,-1
 74 299 l 1,13,-1
EndSplineSet
EndChar
StartChar: q
Encoding: 113 113 84
Width: 410
Flags: W
Fore
336 299 m 1,0,-1
 336 -100 l 1,1,-1
 391 -100 l 1,2,-1
 391 -133 l 1,3,-1
 224 -133 l 1,4,-1
 224 -100 l 1,5,-1
 278 -100 l 1,6,-1
 278 52 l 1,7,8
 262 20 262 20 235.5 5.5 c 128,-1,9
 209 -9 209 -9 171 -9 c 0,10,11
 109 -9 109 -9 70.5 39.5 c 128,-1,12
 32 88 32 88 32 166 c 256,13,14
 32 244 32 244 70.5 292.5 c 128,-1,15
 109 341 109 341 171 341 c 0,16,17
 209 341 209 341 235.5 326.5 c 128,-1,18
 262 312 262 312 278 280 c 1,19,-1
 278 332 l 1,20,-1
 391 332 l 1,21,-1
 391 299 l 1,22,-1
 336 299 l 1,0,-1
278 182 m 2,23,24
 278 242 278 242 255 273.5 c 128,-1,25
 232 305 232 305 189 305 c 0,26,27
 145 305 145 305 122 270.5 c 128,-1,28
 99 236 99 236 99 166 c 0,29,30
 99 97 99 97 122 62 c 128,-1,31
 145 27 145 27 189 27 c 0,32,33
 232 27 232 27 255 58.5 c 128,-1,34
 278 90 278 90 278 150 c 2,35,-1
 278 182 l 2,23,24
EndSplineSet
EndChar
StartChar: r
Encoding: 114 114 85
Width: 306
Flags: W
Fore
306 333 m 1,0,-1
 306 250 l 1,1,-1
 273 250 l 1,2,3
 271 275 271 275 259 287 c 128,-1,4
 247 299 247 299 223 299 c 0,5,6
 181 299 181 299 158.5 269.5 c 128,-1,7
 136 240 136 240 136 185 c 2,8,-1
 136 33 l 1,9,-1
 202 33 l 1,10,-1
 202 0 l 1,11,-1
 26 0 l 1,12,-1
 26 33 l 1,13,-1
 78 33 l 1,14,-1
 78 300 l 1,15,-1
 23 300 l 1,16,-1
 23 332 l 1,17,-1
 136 332 l 1,18,-1
 136 273 l 1,19,20
 152 308 152 308 178.5 324.5 c 128,-1,21
 205 341 205 341 244 341 c 0,22,23
 258 341 258 341 273.5 339 c 128,-1,24
 289 337 289 337 306 333 c 1,0,-1
EndSplineSet
EndChar
StartChar: s
Encoding: 115 115 86
Width: 328
Flags: W
Fore
36 19 m 1,0,-1
 36 96 l 1,1,-1
 69 96 l 1,2,3
 70 59 70 59 92.5 40.5 c 128,-1,4
 115 22 115 22 157 22 c 0,5,6
 196 22 196 22 216.5 36.5 c 128,-1,7
 237 51 237 51 237 79 c 0,8,9
 237 100 237 100 222 113.5 c 128,-1,10
 207 127 207 127 159 143 c 2,11,-1
 118 157 l 2,12,13
 75 171 75 171 55.5 191.5 c 128,-1,14
 36 212 36 212 36 244 c 0,15,16
 36 289 36 289 70 315 c 128,-1,17
 104 341 104 341 163 341 c 0,18,19
 189 341 189 341 218 334.5 c 128,-1,20
 247 328 247 328 278 314 c 1,21,-1
 278 242 l 1,22,-1
 244 242 l 1,23,24
 243 274 243 274 222 292 c 128,-1,25
 201 310 201 310 164 310 c 0,26,27
 128 310 128 310 109.5 297.5 c 128,-1,28
 91 285 91 285 91 259 c 0,29,30
 91 238 91 238 105 225.5 c 128,-1,31
 119 213 119 213 161 200 c 2,32,-1
 207 186 l 2,33,34
 254 171 254 171 275 149 c 128,-1,35
 296 127 296 127 296 92 c 0,36,37
 296 45 296 45 259.5 18 c 128,-1,38
 223 -9 223 -9 160 -9 c 0,39,40
 128 -9 128 -9 97.5 -2.5 c 128,-1,41
 67 4 67 4 36 19 c 1,0,-1
EndSplineSet
EndChar
StartChar: t
Encoding: 116 116 87
Width: 257
Flags: W
Fore
69 299 m 1,0,-1
 19 299 l 1,1,-1
 19 332 l 1,2,-1
 69 332 l 1,3,-1
 69 435 l 1,4,-1
 127 435 l 1,5,-1
 127 332 l 1,6,-1
 235 332 l 1,7,-1
 235 299 l 1,8,-1
 127 299 l 1,9,-1
 127 88 l 2,10,11
 127 45 127 45 135 33.5 c 128,-1,12
 143 22 143 22 165 22 c 0,13,14
 188 22 188 22 198 35.5 c 128,-1,15
 208 49 208 49 209 78 c 1,16,-1
 252 78 l 1,17,18
 250 33 250 33 227.5 12 c 128,-1,19
 205 -9 205 -9 160 -9 c 0,20,21
 110 -9 110 -9 89.5 13 c 128,-1,22
 69 35 69 35 69 88 c 2,23,-1
 69 299 l 1,0,-1
EndSplineSet
EndChar
StartChar: u
Encoding: 117 117 88
Width: 412
Flags: W
Fore
227 332 m 1,0,-1
 334 332 l 1,1,-1
 334 33 l 1,2,-1
 388 33 l 1,3,-1
 388 0 l 1,4,-1
 276 0 l 1,5,-1
 276 59 l 1,6,7
 260 26 260 26 235 8.5 c 128,-1,8
 210 -9 210 -9 177 -9 c 0,9,10
 121 -9 121 -9 95 22.5 c 128,-1,11
 69 54 69 54 69 121 c 2,12,-1
 69 299 l 1,13,-1
 17 299 l 1,14,-1
 17 332 l 1,15,-1
 127 332 l 1,16,-1
 127 139 l 2,17,18
 127 78 127 78 142 55.5 c 128,-1,19
 157 33 157 33 195 33 c 0,20,21
 235 33 235 33 255.5 62.5 c 128,-1,22
 276 92 276 92 276 148 c 2,23,-1
 276 299 l 1,24,-1
 227 299 l 1,25,-1
 227 332 l 1,0,-1
EndSplineSet
EndChar
StartChar: v
Encoding: 118 118 89
Width: 362
Flags: W
Fore
158 0 m 1,0,-1
 36 299 l 1,1,-1
 -2 299 l 1,2,-1
 -2 332 l 1,3,-1
 151 332 l 1,4,-1
 151 299 l 1,5,-1
 98 299 l 1,6,-1
 191 70 l 1,7,-1
 285 299 l 1,8,-1
 235 299 l 1,9,-1
 235 332 l 1,10,-1
 360 332 l 1,11,-1
 360 299 l 1,12,-1
 323 299 l 1,13,-1
 200 0 l 1,14,-1
 158 0 l 1,0,-1
EndSplineSet
EndChar
StartChar: w
Encoding: 119 119 90
Width: 548
Flags: W
Fore
307 332 m 1,0,-1
 392 73 l 1,1,-1
 467 299 l 1,2,-1
 419 299 l 1,3,-1
 419 332 l 1,4,-1
 540 332 l 1,5,-1
 540 299 l 1,6,-1
 502 299 l 1,7,-1
 404 0 l 1,8,-1
 356 0 l 1,9,-1
 274 248 l 1,10,-1
 192 0 l 1,11,-1
 146 0 l 1,12,-1
 47 299 l 1,13,-1
 10 299 l 1,14,-1
 10 332 l 1,15,-1
 161 332 l 1,16,-1
 161 299 l 1,17,-1
 107 299 l 1,18,-1
 181 73 l 1,19,-1
 267 332 l 1,20,-1
 307 332 l 1,0,-1
EndSplineSet
EndChar
StartChar: x
Encoding: 120 120 91
Width: 361
Flags: W
Fore
186 203 m 1,0,-1
 256 299 l 1,1,-1
 211 299 l 1,2,-1
 211 332 l 1,3,-1
 339 332 l 1,4,-1
 339 299 l 1,5,-1
 295 299 l 1,6,-1
 206 176 l 1,7,-1
 310 33 l 1,8,-1
 353 33 l 1,9,-1
 353 0 l 1,10,-1
 200 0 l 1,11,-1
 200 33 l 1,12,-1
 242 33 l 1,13,-1
 170 132 l 1,14,-1
 97 33 l 1,15,-1
 140 33 l 1,16,-1
 140 0 l 1,17,-1
 14 0 l 1,18,-1
 14 33 l 1,19,-1
 58 33 l 1,20,-1
 150 159 l 1,21,-1
 49 299 l 1,22,-1
 8 299 l 1,23,-1
 8 332 l 1,24,-1
 156 332 l 1,25,-1
 156 299 l 1,26,-1
 116 299 l 1,27,-1
 186 203 l 1,0,-1
EndSplineSet
EndChar
StartChar: y
Encoding: 121 121 92
Width: 362
Flags: W
Fore
138 -61 m 2,0,-1
 160 -6 l 1,1,-1
 36 299 l 1,2,-1
 -2 299 l 1,3,-1
 -2 332 l 1,4,-1
 151 332 l 1,5,-1
 151 299 l 1,6,-1
 98 299 l 1,7,-1
 191 70 l 1,8,-1
 285 299 l 1,9,-1
 235 299 l 1,10,-1
 235 332 l 1,11,-1
 360 332 l 1,12,-1
 360 299 l 1,13,-1
 323 299 l 1,14,-1
 170 -75 l 2,15,16
 155 -114 155 -114 135.5 -128 c 128,-1,17
 116 -142 116 -142 82 -142 c 0,18,19
 67 -142 67 -142 51.5 -139.5 c 128,-1,20
 36 -137 36 -137 20 -132 c 1,21,-1
 20 -69 l 1,22,-1
 50 -69 l 1,23,24
 52 -90 52 -90 61 -99.5 c 128,-1,25
 70 -109 70 -109 88 -109 c 256,26,27
 106 -109 106 -109 116.5 -99.5 c 128,-1,28
 127 -90 127 -90 138 -61 c 2,0,-1
EndSplineSet
EndChar
StartChar: z
Encoding: 122 122 93
Width: 337
Flags: W
Fore
26 0 m 1,0,-1
 26 27 l 1,1,-1
 234 299 l 1,2,-1
 69 299 l 1,3,-1
 69 241 l 1,4,-1
 36 241 l 1,5,-1
 36 332 l 1,6,-1
 308 332 l 1,7,-1
 308 305 l 1,8,-1
 100 33 l 1,9,-1
 280 33 l 1,10,-1
 280 93 l 1,11,-1
 314 93 l 1,12,-1
 314 0 l 1,13,-1
 26 0 l 1,0,-1
EndSplineSet
EndChar
StartChar: braceleft
Encoding: 123 123 94
Width: 407
Flags: W
Fore
327 -72 m 1,0,-1
 327 -104 l 1,1,-1
 308 -104 l 2,2,3
 230 -104 230 -104 203.5 -81 c 128,-1,4
 177 -58 177 -58 177 11 c 2,5,-1
 177 92 l 2,6,7
 177 138 177 138 160 156.5 c 128,-1,8
 143 175 143 175 99 175 c 2,9,-1
 80 175 l 1,10,-1
 80 207 l 1,11,-1
 99 207 l 2,12,13
 143 207 143 207 160 225.5 c 128,-1,14
 177 244 177 244 177 291 c 2,15,-1
 177 371 l 2,16,17
 177 440 177 440 203.5 463 c 128,-1,18
 230 486 230 486 308 486 c 2,19,-1
 327 486 l 1,20,-1
 327 454 l 1,21,-1
 306 454 l 2,22,23
 262 454 262 454 248.5 440 c 128,-1,24
 235 426 235 426 235 382 c 2,25,-1
 235 292 l 2,26,27
 235 243 235 243 219.5 221.5 c 128,-1,28
 204 200 204 200 163 191 c 1,29,30
 204 180 204 180 219.5 159.5 c 128,-1,31
 235 139 235 139 235 90 c 2,32,-1
 235 0 l 2,33,34
 235 -44 235 -44 248.5 -58 c 128,-1,35
 262 -72 262 -72 306 -72 c 2,36,-1
 327 -72 l 1,0,-1
EndSplineSet
EndChar
StartChar: bar
Encoding: 124 124 95
Width: 216
Flags: W
Fore
133 489 m 1,0,-1
 133 -151 l 1,1,-1
 83 -151 l 1,2,-1
 83 489 l 1,3,-1
 133 489 l 1,0,-1
EndSplineSet
EndChar
StartChar: braceright
Encoding: 125 125 96
Width: 407
Flags: W
Fore
80 -72 m 1,0,-1
 102 -72 l 2,1,2
 146 -72 146 -72 159 -58 c 128,-1,3
 172 -44 172 -44 172 0 c 2,4,-1
 172 90 l 2,5,6
 172 139 172 139 187.5 159.5 c 128,-1,7
 203 180 203 180 244 191 c 1,8,9
 203 200 203 200 187.5 221.5 c 128,-1,10
 172 243 172 243 172 292 c 2,11,-1
 172 382 l 2,12,13
 172 427 172 427 159 440.5 c 128,-1,14
 146 454 146 454 102 454 c 2,15,-1
 80 454 l 1,16,-1
 80 486 l 1,17,-1
 100 486 l 2,18,19
 177 486 177 486 203.5 463 c 128,-1,20
 230 440 230 440 230 371 c 2,21,-1
 230 291 l 2,22,23
 230 244 230 244 247 225.5 c 128,-1,24
 264 207 264 207 308 207 c 2,25,-1
 327 207 l 1,26,-1
 327 175 l 1,27,-1
 308 175 l 2,28,29
 264 175 264 175 247 156.5 c 128,-1,30
 230 138 230 138 230 92 c 2,31,-1
 230 11 l 2,32,33
 230 -58 230 -58 203.5 -81 c 128,-1,34
 177 -104 177 -104 100 -104 c 2,35,-1
 80 -104 l 1,36,-1
 80 -72 l 1,0,-1
EndSplineSet
EndChar
StartChar: asciitilde
Encoding: 126 126 97
Width: 536
Flags: W
Fore
468 252 m 1,0,-1
 468 206 l 1,1,2
 437 179 437 179 409 165.5 c 128,-1,3
 381 152 381 152 352 152 c 0,4,5
 322 152 322 152 268 173 c 2,6,-1
 264 174 l 2,7,8
 261 175 261 175 254 178 c 0,9,10
 208 196 208 196 179 196 c 256,11,12
 150 196 150 196 122.5 184.5 c 128,-1,13
 95 173 95 173 68 149 c 1,14,-1
 68 196 l 1,15,16
 99 224 99 224 127 236.5 c 128,-1,17
 155 249 155 249 184 249 c 0,18,19
 214 249 214 249 269 228 c 2,20,-1
 272 227 l 2,21,22
 275 226 275 226 282 223 c 0,23,24
 327 205 327 205 357 205 c 0,25,26
 386 205 386 205 413.5 216.5 c 128,-1,27
 441 228 441 228 468 252 c 1,0,-1
EndSplineSet
EndChar
StartChar: nounicode-3-1-45
Encoding: 65540 -1 98
Width: 0
Flags: W
Fore
-2 -4 m 1,0,-1
 -236 -4 l 1,1,-1
 -236 590 l 1,2,-1
 -2 590 l 1,3,-1
 -2 -4 l 1,0,-1
EndSplineSet
EndChar
StartChar: uni0E10.alt1
Encoding: 63232 63232 99
Width: 374
Flags: W
Fore
354 315 m 1,0,1
 346 311 346 311 337 310 c 128,-1,2
 328 309 328 309 318 309 c 0,3,4
 292 309 292 309 267.5 314.5 c 128,-1,5
 243 320 243 320 218 330 c 0,6,7
 198 338 198 338 185.5 346.5 c 128,-1,8
 173 355 173 355 150 355 c 0,9,10
 128 355 128 355 109.5 336.5 c 128,-1,11
 91 318 91 318 83 300 c 1,12,-1
 101 300 l 2,13,14
 126 300 126 300 160 299 c 128,-1,15
 194 298 194 298 227.5 292.5 c 128,-1,16
 261 287 261 287 287.5 275.5 c 128,-1,17
 314 264 314 264 324 244 c 0,18,19
 329 233 329 233 330.5 222 c 128,-1,20
 332 211 332 211 332 200 c 0,21,22
 332 172 332 172 326 144.5 c 128,-1,23
 320 117 320 117 314 90 c 0,24,25
 309 68 309 68 306 46 c 128,-1,26
 303 24 303 24 298 1 c 1,27,-1
 224 1 l 1,28,-1
 161 143 l 1,29,30
 153 130 153 130 140.5 122 c 128,-1,31
 128 114 128 114 113 114 c 0,32,33
 86 114 86 114 68 127.5 c 128,-1,34
 50 141 50 141 50 170 c 0,35,36
 50 203 50 203 71.5 217.5 c 128,-1,37
 93 232 93 232 123 232 c 0,38,39
 139 232 139 232 150 227 c 128,-1,40
 161 222 161 222 169.5 213.5 c 128,-1,41
 178 205 178 205 184 193.5 c 128,-1,42
 190 182 190 182 196 169 c 2,43,-1
 251 41 l 1,44,45
 260 81 260 81 267 121 c 128,-1,46
 274 161 274 161 274 203 c 0,47,48
 274 228 274 228 257 245 c 0,49,50
 248 254 248 254 224 258.5 c 128,-1,51
 200 263 200 263 171.5 265 c 128,-1,52
 143 267 143 267 116.5 267.5 c 128,-1,53
 90 268 90 268 77 268 c 0,54,55
 60 268 60 268 42.5 267 c 128,-1,56
 25 266 25 266 8 264 c 1,57,58
 25 323 25 323 60.5 354.5 c 128,-1,59
 96 386 96 386 159 386 c 0,60,61
 178 386 178 386 193.5 381 c 128,-1,62
 209 376 209 376 222.5 370.5 c 128,-1,63
 236 365 236 365 249.5 360 c 128,-1,64
 263 355 263 355 279 355 c 0,65,66
 299 355 299 355 318 363 c 128,-1,67
 337 371 337 371 354 380 c 1,68,-1
 354 315 l 1,0,1
140 170 m 0,69,70
 140 180 140 180 133 194 c 128,-1,71
 126 208 126 208 115 208 c 0,72,73
 101 208 101 208 96 196.5 c 128,-1,74
 91 185 91 185 91 174 c 256,75,76
 91 163 91 163 97 151.5 c 128,-1,77
 103 140 103 140 116 140 c 0,78,79
 128 140 128 140 134 149.5 c 128,-1,80
 140 159 140 159 140 170 c 0,69,70
EndSplineSet
EndChar
StartChar: uni0E34.alt1
Encoding: 63233 63233 100
Width: 0
Flags: W
Fore
-464 493 m 1,0,1
 -463 495 l 1,2,3
 -462 497 l 2,4,5
 -459 504 -459 504 -450.5 518.5 c 128,-1,6
 -442 533 -442 533 -425 548 c 128,-1,7
 -408 563 -408 563 -381 574.5 c 128,-1,8
 -354 586 -354 586 -314 586 c 0,9,10
 -242 586 -242 586 -201.5 551 c 128,-1,11
 -161 516 -161 516 -137 456 c 1,12,-1
 -161 457 l 1,13,14
 -182 462 -182 462 -203.5 466.5 c 128,-1,15
 -225 471 -225 471 -243 474.5 c 128,-1,16
 -261 478 -261 478 -273 480 c 128,-1,17
 -285 482 -285 482 -287 482 c 0,18,19
 -306 485 -306 485 -329 486.5 c 128,-1,20
 -352 488 -352 488 -375.5 489.5 c 128,-1,21
 -399 491 -399 491 -422 492 c 128,-1,22
 -445 493 -445 493 -464 493 c 1,0,1
-200 492 m 1,23,24
 -222 517 -222 517 -250.5 537 c 128,-1,25
 -279 557 -279 557 -314 557 c 0,26,27
 -324 557 -324 557 -336.5 553.5 c 128,-1,28
 -349 550 -349 550 -361 544.5 c 128,-1,29
 -373 539 -373 539 -383 531.5 c 128,-1,30
 -393 524 -393 524 -399 515 c 1,31,32
 -349 515 -349 515 -299 509.5 c 128,-1,33
 -249 504 -249 504 -200 492 c 1,23,24
EndSplineSet
EndChar
StartChar: uni0E35.alt1
Encoding: 63234 63234 101
Width: 0
Flags: W
Fore
-129 461 m 1,0,-1
 -151 461 l 1,1,2
 -189 470 -189 470 -228.5 477 c 128,-1,3
 -268 484 -268 484 -305 488.5 c 128,-1,4
 -342 493 -342 493 -374.5 495 c 128,-1,5
 -407 497 -407 497 -432 497 c 2,6,-1
 -459 497 l 1,7,8
 -430 539 -430 539 -391 565 c 128,-1,9
 -352 591 -352 591 -299 591 c 0,10,11
 -273 591 -273 591 -243.5 583.5 c 128,-1,12
 -214 576 -214 576 -194 559 c 1,13,-1
 -194 606 l 1,14,-1
 -129 606 l 1,15,-1
 -129 461 l 1,0,-1
-177 494 m 1,16,17
 -198 525 -198 525 -230.5 543.5 c 128,-1,18
 -263 562 -263 562 -301 562 c 0,19,20
 -324 562 -324 562 -348 550 c 128,-1,21
 -372 538 -372 538 -386 521 c 1,22,23
 -338 517 l 128,-1,24
 -314 515 -314 515 -290 512 c 0,25,26
 -261 508 -261 508 -233.5 503.5 c 128,-1,27
 -206 499 -206 499 -177 494 c 1,16,17
EndSplineSet
EndChar
StartChar: uni0E36.alt1
Encoding: 63235 63235 102
Width: 0
Flags: W
Fore
-116 566 m 0,0,1
 -116 543 -116 543 -130 531 c 128,-1,2
 -144 519 -144 519 -166 517 c 1,3,4
 -155 502 -155 502 -143.5 485.5 c 128,-1,5
 -132 469 -132 469 -126 452 c 1,6,7
 -142 458 -142 458 -158 461.5 c 128,-1,8
 -174 465 -174 465 -191 469 c 2,9,-1
 -195 470 l 2,10,11
 -263 483 -263 483 -326.5 489.5 c 128,-1,12
 -390 496 -390 496 -456 496 c 1,13,14
 -433 542 -433 542 -398 566.5 c 128,-1,15
 -363 591 -363 591 -311 591 c 0,16,17
 -293 591 -293 591 -273.5 586.5 c 128,-1,18
 -254 582 -254 582 -237 575 c 1,19,20
 -234 597 -234 597 -217 607.5 c 128,-1,21
 -200 618 -200 618 -180 618 c 0,22,23
 -154 618 -154 618 -135 606.5 c 128,-1,24
 -116 595 -116 595 -116 566 c 0,0,1
-149 566 m 0,25,26
 -149 580 -149 580 -157 589 c 128,-1,27
 -165 598 -165 598 -179 598 c 0,28,29
 -192 598 -192 598 -197.5 587.5 c 128,-1,30
 -203 577 -203 577 -203 566 c 0,31,32
 -203 557 -203 557 -196.5 546.5 c 128,-1,33
 -190 536 -190 536 -179 536 c 0,34,35
 -166 536 -166 536 -157.5 544.5 c 128,-1,36
 -149 553 -149 553 -149 566 c 0,25,26
-189 494 m 1,37,38
 -209 520 -209 520 -242 540 c 128,-1,39
 -275 560 -275 560 -309 560 c 0,40,41
 -332 560 -332 560 -352.5 550 c 128,-1,42
 -373 540 -373 540 -387 523 c 1,43,-1
 -361 521 l 2,44,45
 -319 517 -319 517 -276.5 511.5 c 128,-1,46
 -234 506 -234 506 -189 494 c 1,37,38
EndSplineSet
EndChar
StartChar: uni0E37.alt1
Encoding: 63236 63236 103
Width: 0
Flags: W
Fore
-129 461 m 1,0,1
 -212 476 -212 476 -294 487 c 128,-1,2
 -376 498 -376 498 -461 500 c 1,3,4
 -458 508 -458 508 -453 514.5 c 128,-1,5
 -448 521 -448 521 -443 527 c 0,6,7
 -414 562 -414 562 -379.5 578 c 128,-1,8
 -345 594 -345 594 -300 594 c 0,9,10
 -288 594 l 128,-1,11
 -282 594 -282 594 -276 592 c 1,12,-1
 -276 615 l 1,13,-1
 -216 615 l 1,14,-1
 -216 577 l 1,15,-1
 -189 562 l 1,16,-1
 -189 614 l 1,17,-1
 -129 614 l 1,18,-1
 -129 461 l 1,19,-1
 -129 461 l 1,0,1
-166 495 m 1,20,21
 -189 524 -189 524 -225 545 c 128,-1,22
 -261 566 -261 566 -299 566 c 0,23,24
 -328 566 -328 566 -351.5 554.5 c 128,-1,25
 -375 543 -375 543 -395 523 c 1,26,-1
 -345 519 l 2,27,28
 -327 517 -327 517 -313.5 516 c 128,-1,29
 -300 515 -300 515 -285 513 c 2,30,-1
 -279 512 l 2,31,32
 -249 507 -249 507 -222 503.5 c 128,-1,33
 -195 500 -195 500 -166 495 c 1,20,21
EndSplineSet
EndChar
StartChar: ellipsis
Encoding: 8230 8230 104
Width: 640
Flags: W
Fore
492 33 m 0,0,1
 492 50 492 50 504 62 c 128,-1,2
 516 74 516 74 533 74 c 256,3,4
 550 74 550 74 562.5 62 c 128,-1,5
 575 50 575 50 575 33 c 0,6,7
 575 15 575 15 562.5 3 c 128,-1,8
 550 -9 550 -9 533 -9 c 0,9,10
 515 -9 515 -9 503.5 3 c 128,-1,11
 492 15 492 15 492 33 c 0,0,1
278 33 m 0,12,13
 278 50 278 50 290.5 62 c 128,-1,14
 303 74 303 74 320 74 c 256,15,16
 337 74 337 74 349.5 62 c 128,-1,17
 362 50 362 50 362 33 c 0,18,19
 362 15 362 15 349.5 3 c 128,-1,20
 337 -9 337 -9 320 -9 c 0,21,22
 302 -9 302 -9 290 3 c 128,-1,23
 278 15 278 15 278 33 c 0,12,13
65 33 m 0,24,25
 65 50 65 50 77.5 62 c 128,-1,26
 90 74 90 74 107 74 c 256,27,28
 124 74 124 74 136 62 c 128,-1,29
 148 50 148 50 148 33 c 0,30,31
 148 15 148 15 136 3 c 128,-1,32
 124 -9 124 -9 107 -9 c 0,33,34
 89 -9 89 -9 77 3 c 128,-1,35
 65 15 65 15 65 33 c 0,24,25
EndSplineSet
EndChar
StartChar: uni0E48.alt1
Encoding: 63237 63237 105
Width: 0
Flags: W
Fore
-207 469 m 1,0,-1
 -207 598 l 1,1,-1
 -149 598 l 1,2,-1
 -149 469 l 1,3,-1
 -207 469 l 1,0,-1
EndSplineSet
Substitution: 0 65534 'L019' uni0E48.alt3
Substitution: 0 65534 'L019' uni0E48.alt3
EndChar
StartChar: uni0E49.alt1
Encoding: 63238 63238 106
Width: 0
Flags: W
Fore
-86 628 m 1,0,1
 -92 582 -92 582 -112.5 551.5 c 128,-1,2
 -133 521 -133 521 -163 502 c 128,-1,3
 -193 483 -193 483 -231 474 c 128,-1,4
 -269 465 -269 465 -310 462 c 1,5,-1
 -310 490 l 1,6,7
 -296 493 -296 493 -281.5 502 c 128,-1,8
 -267 511 -267 511 -265 528 c 1,9,10
 -273 525 -273 525 -282 525 c 0,11,12
 -305 525 -305 525 -321.5 539.5 c 128,-1,13
 -338 554 -338 554 -338 578 c 0,14,15
 -338 604 -338 604 -318 617 c 128,-1,16
 -298 630 -298 630 -275 630 c 0,17,18
 -247 630 -247 630 -230.5 615 c 128,-1,19
 -214 600 -214 600 -214 571 c 0,20,21
 -214 554 -214 554 -221.5 535.5 c 128,-1,22
 -229 517 -229 517 -239 503 c 1,23,24
 -192 517 -192 517 -169.5 548.5 c 128,-1,25
 -147 580 -147 580 -145 628 c 1,26,-1
 -86 628 l 1,27,-1
 -86 628 l 1,0,1
-249 580 m 256,28,29
 -249 593 -249 593 -256.5 603 c 128,-1,30
 -264 613 -264 613 -278 613 c 256,31,32
 -292 613 -292 613 -297 601.5 c 128,-1,33
 -302 590 -302 590 -302 579 c 0,34,35
 -302 566 -302 566 -295.5 555 c 128,-1,36
 -289 544 -289 544 -275 544 c 0,37,38
 -260 544 -260 544 -254.5 555.5 c 128,-1,39
 -249 567 -249 567 -249 580 c 256,28,29
EndSplineSet
Substitution: 0 65534 'L019' uni0E49.alt3
Substitution: 0 65534 'L019' uni0E49.alt3
EndChar
StartChar: uni0E4A.alt1
Encoding: 63239 63239 107
Width: 0
Flags: W
Fore
-103 606 m 1,0,1
 -103 589 -103 589 -107.5 572.5 c 128,-1,2
 -112 556 -112 556 -118 541 c 0,3,4
 -133 502 -133 502 -162.5 486.5 c 128,-1,5
 -192 471 -192 471 -230 464 c 1,6,-1
 -230 491 l 1,7,8
 -220 502 -220 502 -216 510.5 c 128,-1,9
 -212 519 -212 519 -212 533 c 0,10,11
 -212 544 -212 544 -216 557 c 128,-1,12
 -220 570 -220 570 -237 570 c 0,13,14
 -241 570 -241 570 -245.5 566 c 128,-1,15
 -250 562 -250 562 -254.5 557 c 128,-1,16
 -259 552 -259 552 -263 548 c 128,-1,17
 -267 544 -267 544 -270 544 c 256,18,19
 -273 544 -273 544 -277.5 548 c 128,-1,20
 -282 552 -282 552 -287 556.5 c 128,-1,21
 -292 561 -292 561 -297 565 c 128,-1,22
 -302 569 -302 569 -305 569 c 0,23,24
 -320 569 -320 569 -327 556.5 c 128,-1,25
 -334 544 -334 544 -334 531 c 0,26,27
 -334 519 -334 519 -326 508 c 128,-1,28
 -318 497 -318 497 -307 493 c 1,29,30
 -308 496 -308 496 -309 499.5 c 128,-1,31
 -310 503 -310 503 -310 506 c 0,32,33
 -310 518 -310 518 -301.5 523.5 c 128,-1,34
 -293 529 -293 529 -282 529 c 256,35,36
 -271 529 -271 529 -264 520.5 c 128,-1,37
 -257 512 -257 512 -257 501 c 0,38,39
 -257 492 -257 492 -262.5 485 c 128,-1,40
 -268 478 -268 478 -275.5 474 c 128,-1,41
 -283 470 -283 470 -292.5 468 c 128,-1,42
 -302 466 -302 466 -309 466 c 0,43,44
 -338 466 -338 466 -357.5 484 c 128,-1,45
 -377 502 -377 502 -377 531 c 0,46,47
 -377 547 -377 547 -370 560.5 c 128,-1,48
 -363 574 -363 574 -352.5 583.5 c 128,-1,49
 -342 593 -342 593 -330 599 c 128,-1,50
 -318 605 -318 605 -307 607 c 1,51,-1
 -270 578 l 1,52,53
 -268 580 -268 580 -263 584.5 c 128,-1,54
 -258 589 -258 589 -252.5 594 c 128,-1,55
 -247 599 -247 599 -241.5 603 c 128,-1,56
 -236 607 -236 607 -234 607 c 0,57,58
 -229 607 -229 607 -223 604.5 c 128,-1,59
 -217 602 -217 602 -213 600 c 0,60,61
 -175 583 -175 583 -175 545 c 0,62,63
 -175 537 -175 537 -176 528.5 c 128,-1,64
 -177 520 -177 520 -183 508 c 1,65,66
 -173 513 -173 513 -167.5 522.5 c 128,-1,67
 -162 532 -162 532 -159 544 c 128,-1,68
 -156 556 -156 556 -155 568 c 128,-1,69
 -154 580 -154 580 -154 589 c 0,70,71
 -154 596 -154 596 -154 602.5 c 128,-1,72
 -154 609 -154 609 -155 616 c 1,73,-1
 -103 616 l 1,74,-1
 -103 606 l 1,75,-1
 -103 606 l 1,0,1
EndSplineSet
Substitution: 0 65534 'L019' uni0E4A.alt3
Substitution: 0 65534 'L019' uni0E4A.alt3
EndChar
StartChar: nounicode-3-1-4f
Encoding: 65541 -1 108
Width: 374
Flags: W
Fore
316 -71 m 2,0,-1
 316 -95 l 2,1,2
 316 -104 316 -104 315.5 -114.5 c 128,-1,3
 315 -125 315 -125 313 -135.5 c 128,-1,4
 311 -146 311 -146 305.5 -154.5 c 128,-1,5
 300 -163 300 -163 291 -167 c 0,6,7
 284 -169 284 -169 277.5 -170 c 128,-1,8
 271 -171 271 -171 264 -172 c 1,9,-1
 217 -172 l 1,10,-1
 180 -136 l 1,11,12
 172 -144 172 -144 165.5 -152 c 128,-1,13
 159 -160 159 -160 152 -168 c 1,14,-1
 125 -137 l 1,15,16
 119 -152 119 -152 105 -163 c 128,-1,17
 91 -174 91 -174 63 -174 c 0,18,19
 33 -174 33 -174 17.5 -157.5 c 128,-1,20
 2 -141 2 -141 2 -113 c 0,21,22
 2 -87 2 -87 18.5 -74.5 c 128,-1,23
 35 -62 35 -62 57 -62 c 0,24,25
 70 -62 70 -62 82.5 -64 c 128,-1,26
 95 -66 95 -66 107 -78 c 1,27,28
 108 -75 108 -75 108.5 -69.5 c 128,-1,29
 109 -64 109 -64 109.5 -57.5 c 128,-1,30
 110 -51 110 -51 110 -45.5 c 128,-1,31
 110 -40 110 -40 110 -38 c 1,32,-1
 140 -28 l 1,33,-1
 161 -28 l 1,34,-1
 161 -33 l 2,35,36
 161 -49 161 -49 156 -67 c 128,-1,37
 151 -85 151 -85 142 -98 c 1,38,-1
 157 -114 l 1,39,40
 164 -105 164 -105 168.5 -100.5 c 128,-1,41
 173 -96 173 -96 181 -88 c 1,42,43
 184 -91 184 -91 192 -99.5 c 128,-1,44
 200 -108 200 -108 209 -117 c 128,-1,45
 218 -126 218 -126 225.5 -133 c 128,-1,46
 233 -140 233 -140 236 -140 c 2,47,-1
 251 -140 l 2,48,49
 261 -140 261 -140 264 -136 c 1,50,-1
 267 -116 l 1,51,-1
 261 -116 l 2,52,53
 241 -116 241 -116 225 -106 c 128,-1,54
 209 -96 209 -96 209 -73 c 256,55,56
 209 -50 209 -50 222.5 -40.5 c 128,-1,57
 236 -31 236 -31 257 -31 c 0,58,59
 266 -31 266 -31 276.5 -33.5 c 128,-1,60
 287 -36 287 -36 295.5 -40.5 c 128,-1,61
 304 -45 304 -45 310 -53 c 128,-1,62
 316 -61 316 -61 316 -71 c 2,0,-1
354 315 m 1,63,64
 346 311 346 311 337 310 c 128,-1,65
 328 309 328 309 318 309 c 0,66,67
 292 309 292 309 267.5 315 c 128,-1,68
 243 321 243 321 220 331 c 0,69,70
 210 336 210 336 202.5 340.5 c 128,-1,71
 195 345 195 345 187.5 349 c 128,-1,72
 180 353 180 353 171 355 c 128,-1,73
 162 357 162 357 150 357 c 0,74,75
 127 357 127 357 108 338.5 c 128,-1,76
 89 320 89 320 81 300 c 1,77,-1
 93 300 l 2,78,79
 118 300 118 300 153 299 c 128,-1,80
 188 298 188 298 222 292.5 c 128,-1,81
 256 287 256 287 284.5 275.5 c 128,-1,82
 313 264 313 264 324 244 c 0,83,84
 329 234 329 234 330 224 c 128,-1,85
 331 214 331 214 331 203 c 0,86,87
 331 177 331 177 326.5 152 c 128,-1,88
 322 127 322 127 316.5 101.5 c 128,-1,89
 311 76 311 76 305.5 51 c 128,-1,90
 300 26 300 26 298 0 c 1,91,-1
 225 0 l 1,92,-1
 161 143 l 1,93,94
 153 131 153 131 141.5 122 c 128,-1,95
 130 113 130 113 115 113 c 0,96,97
 89 113 89 113 69.5 127 c 128,-1,98
 50 141 50 141 50 170 c 0,99,100
 50 202 50 202 70.5 217 c 128,-1,101
 91 232 91 232 121 232 c 0,102,103
 152 232 152 232 168.5 213.5 c 128,-1,104
 185 195 185 195 196 169 c 2,105,-1
 252 40 l 1,106,107
 261 82 261 82 268.5 121.5 c 128,-1,108
 276 161 276 161 276 203 c 0,109,110
 276 229 276 229 260 245 c 0,111,112
 252 254 252 254 227 258.5 c 128,-1,113
 202 263 202 263 173 265.5 c 128,-1,114
 144 268 144 268 116.5 268.5 c 128,-1,115
 89 269 89 269 77 269 c 0,116,117
 60 269 60 269 42.5 268 c 128,-1,118
 25 267 25 267 8 265 c 1,119,120
 25 323 25 323 57.5 355 c 128,-1,121
 90 387 90 387 153 387 c 0,122,123
 171 387 171 387 186.5 382 c 128,-1,124
 202 377 202 377 217 371 c 128,-1,125
 232 365 232 365 247 360 c 128,-1,126
 262 355 262 355 278 355 c 0,127,128
 298 355 298 355 317 362 c 128,-1,129
 336 369 336 369 354 378 c 1,130,-1
 354 315 l 1,131,-1
 354 315 l 1,63,64
279 -72 m 256,132,133
 279 -64 279 -64 274.5 -57 c 128,-1,134
 270 -50 270 -50 261 -50 c 0,135,136
 250 -50 250 -50 246 -57.5 c 128,-1,137
 242 -65 242 -65 242 -75 c 0,138,139
 242 -83 242 -83 248 -89 c 128,-1,140
 254 -95 254 -95 262 -95 c 0,141,142
 271 -95 271 -95 275 -87.5 c 128,-1,143
 279 -80 279 -80 279 -72 c 256,132,133
92 -117 m 0,144,145
 92 -106 92 -106 81 -99.5 c 128,-1,146
 70 -93 70 -93 62 -93 c 0,147,148
 52 -93 52 -93 45.5 -99.5 c 128,-1,149
 39 -106 39 -106 39 -116 c 0,150,151
 39 -142 39 -142 64 -142 c 0,152,153
 78 -142 78 -142 85 -136.5 c 128,-1,154
 92 -131 92 -131 92 -117 c 0,144,145
142 173 m 256,155,156
 142 184 142 184 135 196 c 128,-1,157
 128 208 128 208 115 208 c 0,158,159
 101 208 101 208 96 196.5 c 128,-1,160
 91 185 91 185 91 174 c 256,161,162
 91 163 91 163 97 151 c 128,-1,163
 103 139 103 139 116 139 c 0,164,165
 128 139 128 139 135 150.5 c 128,-1,166
 142 162 142 162 142 173 c 256,155,156
EndSplineSet
EndChar
StartChar: uni0E4C.alt1
Encoding: 63241 63241 109
Width: 0
Flags: W
Fore
-82 657 m 1,0,1
 -86 620 -86 620 -107.5 593.5 c 128,-1,2
 -129 567 -129 567 -167 562 c 1,3,4
 -155 546 -155 546 -155 525 c 0,5,6
 -155 498 -155 498 -173.5 481.5 c 128,-1,7
 -192 465 -192 465 -218 465 c 256,8,9
 -244 465 -244 465 -264 480 c 128,-1,10
 -284 495 -284 495 -284 523 c 0,11,12
 -284 546 -284 546 -271 562 c 0,13,14
 -256 580 -256 580 -233 584 c 128,-1,15
 -210 588 -210 588 -188.5 592 c 128,-1,16
 -167 596 -167 596 -152 608.5 c 128,-1,17
 -137 621 -137 621 -137 657 c 1,18,-1
 -82 657 l 1,19,-1
 -82 657 l 1,0,1
-193 521 m 0,20,21
 -193 527 -193 527 -194.5 534 c 128,-1,22
 -196 541 -196 541 -199 548 c 128,-1,23
 -202 555 -202 555 -207 559.5 c 128,-1,24
 -212 564 -212 564 -219 564 c 0,25,26
 -233 564 -233 564 -239.5 548.5 c 128,-1,27
 -246 533 -246 533 -246 522 c 256,28,29
 -246 511 -246 511 -238 497 c 128,-1,30
 -230 483 -230 483 -217 483 c 256,31,32
 -204 483 -204 483 -198.5 497 c 128,-1,33
 -193 511 -193 511 -193 521 c 0,20,21
EndSplineSet
Substitution: 0 65534 'L019' uni0E4C.alt3
Substitution: 0 65534 'L019' uni0E4C.alt3
EndChar
StartChar: uni0E48.alt2
Encoding: 63242 63242 110
Width: 0
Flags: W
Fore
-113 469 m 1,0,-1
 -113 598 l 1,1,-1
 -55 598 l 1,2,-1
 -55 469 l 1,3,-1
 -113 469 l 1,0,-1
EndSplineSet
Substitution: 0 65534 'L021' uni0E48.alt3
Substitution: 0 65534 'L020' uni0E48
Substitution: 0 65534 'L019' uni0E48.alt1
Substitution: 0 65534 'L021' uni0E48.alt3
Substitution: 0 65534 'L020' uni0E48
Substitution: 0 65534 'L019' uni0E48.alt1
EndChar
StartChar: uni0E49.alt2
Encoding: 63243 63243 111
Width: 0
Flags: W
Fore
2 628 m 1,0,1
 0 611 0 611 -4 594.5 c 128,-1,2
 -8 578 -8 578 -16 563 c 0,3,4
 -30 535 -30 535 -53.5 516.5 c 128,-1,5
 -77 498 -77 498 -104.5 487 c 128,-1,6
 -132 476 -132 476 -162.5 470.5 c 128,-1,7
 -193 465 -193 465 -221 463 c 1,8,-1
 -221 491 l 1,9,10
 -205 494 -205 494 -193 502 c 128,-1,11
 -181 510 -181 510 -176 527 c 1,12,13
 -180 525 -180 525 -187 525 c 0,14,15
 -213 525 -213 525 -231.5 537.5 c 128,-1,16
 -250 550 -250 550 -250 578 c 0,17,18
 -250 604 -250 604 -230 617 c 128,-1,19
 -210 630 -210 630 -187 630 c 0,20,21
 -159 630 -159 630 -142.5 615 c 128,-1,22
 -126 600 -126 600 -126 571 c 0,23,24
 -126 553 -126 553 -132.5 535 c 128,-1,25
 -139 517 -139 517 -150 503 c 1,26,27
 -104 517 -104 517 -81.5 549 c 128,-1,28
 -59 581 -59 581 -59 628 c 1,29,-1
 2 628 l 1,30,-1
 2 628 l 1,0,1
-161 580 m 0,31,32
 -161 594 -161 594 -168.5 603.5 c 128,-1,33
 -176 613 -176 613 -190 613 c 0,34,35
 -203 613 -203 613 -209 601.5 c 128,-1,36
 -215 590 -215 590 -215 579 c 256,37,38
 -215 568 -215 568 -208.5 555 c 128,-1,39
 -202 542 -202 542 -188 542 c 256,40,41
 -174 542 -174 542 -167.5 555 c 128,-1,42
 -161 568 -161 568 -161 580 c 0,31,32
EndSplineSet
Substitution: 0 65534 'L021' uni0E49.alt3
Substitution: 0 65534 'L020' uni0E49
Substitution: 0 65534 'L019' uni0E49.alt1
Substitution: 0 65534 'L021' uni0E49.alt3
Substitution: 0 65534 'L020' uni0E49
Substitution: 0 65534 'L019' uni0E49.alt1
EndChar
StartChar: uni0E4A.alt2
Encoding: 63244 63244 112
Width: 0
Flags: W
Fore
-3 606 m 1,0,1
 -3 589 -3 589 -7.5 572.5 c 128,-1,2
 -12 556 -12 556 -18 541 c 0,3,4
 -33 502 -33 502 -62.5 486.5 c 128,-1,5
 -92 471 -92 471 -130 463 c 1,6,-1
 -130 491 l 1,7,8
 -124 498 -124 498 -118 508 c 128,-1,9
 -112 518 -112 518 -112 532 c 0,10,11
 -112 537 -112 537 -112.5 543.5 c 128,-1,12
 -113 550 -113 550 -115 556 c 128,-1,13
 -117 562 -117 562 -121.5 566 c 128,-1,14
 -126 570 -126 570 -134 570 c 0,15,16
 -138 570 -138 570 -142.5 566.5 c 128,-1,17
 -147 563 -147 563 -151.5 558.5 c 128,-1,18
 -156 554 -156 554 -160 550 c 128,-1,19
 -164 546 -164 546 -167 546 c 256,20,21
 -170 546 -170 546 -175.5 550 c 128,-1,22
 -181 554 -181 554 -187.5 558.5 c 128,-1,23
 -194 563 -194 563 -200 567 c 128,-1,24
 -206 571 -206 571 -209 571 c 0,25,26
 -217 571 -217 571 -222 566.5 c 128,-1,27
 -227 562 -227 562 -230 555.5 c 128,-1,28
 -233 549 -233 549 -234 542 c 128,-1,29
 -235 535 -235 535 -235 530 c 0,30,31
 -235 519 -235 519 -228.5 506 c 128,-1,32
 -222 493 -222 493 -205 489 c 1,33,34
 -206 492 -206 492 -208 495.5 c 128,-1,35
 -210 499 -210 499 -210 504 c 2,36,-1
 -210 506 l 1,37,38
 -208 518 -208 518 -200.5 523.5 c 128,-1,39
 -193 529 -193 529 -182 529 c 256,40,41
 -171 529 -171 529 -163.5 521 c 128,-1,42
 -156 513 -156 513 -156 502 c 0,43,44
 -156 483 -156 483 -173.5 474 c 128,-1,45
 -191 465 -191 465 -206 465 c 0,46,47
 -235 465 -235 465 -256 483.5 c 128,-1,48
 -277 502 -277 502 -277 531 c 0,49,50
 -277 563 -277 563 -257 582.5 c 128,-1,51
 -237 602 -237 602 -212 607 c 1,52,-1
 -169 579 l 1,53,54
 -167 581 -167 581 -162 585.5 c 128,-1,55
 -157 590 -157 590 -151.5 595 c 128,-1,56
 -146 600 -146 600 -141 603.5 c 128,-1,57
 -136 607 -136 607 -134 607 c 0,58,59
 -129 607 -129 607 -123 604.5 c 128,-1,60
 -117 602 -117 602 -113 600 c 0,61,62
 -75 583 -75 583 -75 544 c 0,63,64
 -75 536 -75 536 -77 528 c 128,-1,65
 -79 520 -79 520 -82 512 c 1,66,67
 -73 517 -73 517 -67.5 526 c 128,-1,68
 -62 535 -62 535 -59 546 c 128,-1,69
 -56 557 -56 557 -55 568.5 c 128,-1,70
 -54 580 -54 580 -54 589 c 0,71,72
 -54 596 -54 596 -54 602.5 c 128,-1,73
 -54 609 -54 609 -55 616 c 1,74,-1
 -3 616 l 1,75,-1
 -3 606 l 1,76,-1
 -3 606 l 1,0,1
EndSplineSet
Substitution: 0 65534 'L021' uni0E4A.alt3
Substitution: 0 65534 'L020' uni0E4A
Substitution: 0 65534 'L019' uni0E4A.alt1
Substitution: 0 65534 'L021' uni0E4A.alt3
Substitution: 0 65534 'L020' uni0E4A
Substitution: 0 65534 'L019' uni0E4A.alt1
EndChar
StartChar: uni0E4B.alt2
Encoding: 63245 63245 113
Width: 0
Flags: W
Fore
-55 526 m 1,0,-1
 -55 468 l 1,1,-1
 -113 468 l 1,2,-1
 -113 526 l 1,3,-1
 -163 526 l 1,4,-1
 -163 558 l 1,5,-1
 -113 558 l 1,6,-1
 -113 614 l 1,7,-1
 -55 614 l 1,8,-1
 -55 558 l 1,9,-1
 -3 558 l 1,10,-1
 -3 526 l 1,11,-1
 -55 526 l 1,0,-1
EndSplineSet
Substitution: 0 65534 'L021' uni0E4B.alt3
Substitution: 0 65534 'L020' uni0E4B
Substitution: 0 65534 'L019' uni0E4B.alt1
Substitution: 0 65534 'L021' uni0E4B.alt3
Substitution: 0 65534 'L020' uni0E4B
Substitution: 0 65534 'L019' uni0E4B.alt1
EndChar
StartChar: uni0E4C.alt2
Encoding: 63246 63246 114
Width: 0
Flags: W
Fore
14 657 m 1,0,1
 10 620 10 620 -11.5 593.5 c 128,-1,2
 -33 567 -33 567 -71 562 c 1,3,4
 -59 546 -59 546 -59 525 c 0,5,6
 -59 498 -59 498 -77.5 481.5 c 128,-1,7
 -96 465 -96 465 -122 465 c 256,8,9
 -148 465 -148 465 -168 480 c 128,-1,10
 -188 495 -188 495 -188 523 c 0,11,12
 -188 546 -188 546 -175 562 c 0,13,14
 -160 580 -160 580 -137 584 c 128,-1,15
 -114 588 -114 588 -92.5 592 c 128,-1,16
 -71 596 -71 596 -56 608.5 c 128,-1,17
 -41 621 -41 621 -41 657 c 1,18,-1
 14 657 l 1,19,-1
 14 657 l 1,0,1
-97 521 m 0,20,21
 -97 527 -97 527 -98.5 534 c 128,-1,22
 -100 541 -100 541 -103 548 c 128,-1,23
 -106 555 -106 555 -111 559.5 c 128,-1,24
 -116 564 -116 564 -123 564 c 0,25,26
 -137 564 -137 564 -143.5 548.5 c 128,-1,27
 -150 533 -150 533 -150 522 c 256,28,29
 -150 511 -150 511 -142 497 c 128,-1,30
 -134 483 -134 483 -121 483 c 256,31,32
 -108 483 -108 483 -102.5 497 c 128,-1,33
 -97 511 -97 511 -97 521 c 0,20,21
EndSplineSet
Substitution: 0 65534 'L021' uni0E4C.alt3
Substitution: 0 65534 'L020' uni0E4C
Substitution: 0 65534 'L019' uni0E4C.alt1
Substitution: 0 65534 'L021' uni0E4C.alt3
Substitution: 0 65534 'L020' uni0E4C
Substitution: 0 65534 'L019' uni0E4C.alt1
EndChar
StartChar: uni0E0D.alt1
Encoding: 63247 63247 115
Width: 556
Flags: W
Fore
271 0 m 1,0,-1
 271 252 l 2,1,2
 271 300 271 300 251.5 326 c 128,-1,3
 232 352 232 352 181 352 c 0,4,5
 165 352 165 352 146.5 348 c 128,-1,6
 128 344 128 344 110 337 c 128,-1,7
 92 330 92 330 76 320 c 128,-1,8
 60 310 60 310 49 298 c 1,9,-1
 151 298 l 1,10,-1
 151 270 l 1,11,12
 128 262 128 262 116 247.5 c 128,-1,13
 104 233 104 233 104 207 c 2,14,-1
 104 117 l 1,15,16
 112 120 112 120 121 123 c 128,-1,17
 130 126 130 126 139 126 c 0,18,19
 165 126 165 126 182 110 c 128,-1,20
 199 94 199 94 199 68 c 0,21,22
 199 31 199 31 179.5 14 c 128,-1,23
 160 -3 160 -3 125 -3 c 0,24,25
 93 -3 93 -3 68 17 c 128,-1,26
 43 37 43 37 43 70 c 2,27,-1
 43 198 l 2,28,29
 43 221 43 221 56.5 239.5 c 128,-1,30
 70 258 70 258 88 269 c 1,31,-1
 7 269 l 1,32,-1
 7 313 l 1,33,34
 27 326 27 326 48 339 c 128,-1,35
 69 352 69 352 91 362 c 128,-1,36
 113 372 113 372 136 378.5 c 128,-1,37
 159 385 159 385 184 385 c 0,38,39
 251 385 251 385 291.5 351.5 c 128,-1,40
 332 318 332 318 332 248 c 2,41,-1
 332 33 l 1,42,-1
 449 33 l 1,43,-1
 449 349 l 1,44,-1
 484 380 l 1,45,-1
 510 380 l 1,46,-1
 510 0 l 1,47,-1
 271 0 l 1,0,-1
161 56 m 256,48,49
 161 70 161 70 154 85 c 128,-1,50
 147 100 147 100 130 100 c 0,51,52
 116 100 116 100 108.5 88 c 128,-1,53
 101 76 101 76 101 64 c 256,54,55
 101 52 101 52 109.5 37 c 128,-1,56
 118 22 118 22 132 22 c 256,57,58
 146 22 146 22 153.5 32 c 128,-1,59
 161 42 161 42 161 56 c 256,48,49
EndSplineSet
EndChar
StartChar: quoteleft
Encoding: 8216 8216 116
Width: 197
Flags: W
Fore
129 400 m 1,0,-1
 129 388 l 1,1,2
 81 360 81 360 81 328 c 0,3,4
 81 309 81 309 91 309 c 0,5,6
 94 309 94 309 99 312 c 0,7,8
 106 315 106 315 112 315 c 0,9,10
 125 315 125 315 133 306 c 128,-1,11
 141 297 141 297 141 286 c 0,12,13
 141 267 141 267 129.5 259 c 128,-1,14
 118 251 118 251 104 251 c 0,15,16
 81 251 81 251 67 269 c 128,-1,17
 53 287 53 287 53 308 c 0,18,19
 53 372 53 372 129 400 c 1,0,-1
EndSplineSet
EndChar
StartChar: quoteright
Encoding: 8217 8217 117
Width: 197
Flags: W
Fore
69 251 m 1,0,-1
 69 265 l 1,1,2
 87 274 87 274 101.5 289 c 128,-1,3
 116 304 116 304 116 323 c 256,4,5
 116 342 116 342 106 342 c 0,6,7
 104 342 104 342 97 339 c 1,8,9
 88 337 88 337 85 337 c 0,10,11
 71 337 71 337 63.5 346.5 c 128,-1,12
 56 356 56 356 56 367 c 0,13,14
 56 379 56 379 65 389.5 c 128,-1,15
 74 400 74 400 94 400 c 0,16,17
 116 400 116 400 129.5 382 c 128,-1,18
 143 364 143 364 143 344 c 0,19,20
 143 280 143 280 69 251 c 1,0,-1
EndSplineSet
EndChar
StartChar: quotedblleft
Encoding: 8220 8220 118
Width: 263
Flags: W
Fore
94 400 m 1,0,-1
 94 389 l 1,1,2
 46 364 46 364 46 330 c 0,3,4
 46 312 46 312 56 312 c 0,5,6
 59 312 59 312 66 314 c 0,7,8
 76 316 76 316 78 316 c 0,9,10
 91 316 91 316 99.5 306.5 c 128,-1,11
 108 297 108 297 108 286 c 0,12,13
 108 270 108 270 96.5 261 c 128,-1,14
 85 252 85 252 70 252 c 0,15,16
 46 252 46 252 32 270 c 128,-1,17
 18 288 18 288 18 309 c 0,18,19
 18 377 18 377 94 400 c 1,0,-1
232 399 m 1,20,-1
 232 389 l 1,21,22
 185 361 185 361 185 328 c 0,23,24
 185 311 185 311 195 311 c 0,25,26
 196 311 196 311 204 314 c 0,27,28
 213 316 213 316 216 316 c 0,29,30
 245 316 245 316 245 287 c 0,31,32
 245 270 245 270 233 261 c 128,-1,33
 221 252 221 252 207 252 c 0,34,35
 188 252 188 252 173 269 c 128,-1,36
 158 286 158 286 158 309 c 0,37,38
 158 378 158 378 232 399 c 1,20,-1
EndSplineSet
EndChar
StartChar: quotedblright
Encoding: 8221 8221 119
Width: 263
Flags: W
Fore
171 251 m 1,0,-1
 171 265 l 1,1,2
 218 287 218 287 218 322 c 0,3,4
 218 340 218 340 209 340 c 0,5,6
 207 340 207 340 199 339 c 1,7,8
 190 336 190 336 188 336 c 0,9,10
 175 336 175 336 166.5 345 c 128,-1,11
 158 354 158 354 158 367 c 0,12,13
 158 381 158 381 168.5 390.5 c 128,-1,14
 179 400 179 400 196 400 c 0,15,16
 216 400 216 400 230.5 382.5 c 128,-1,17
 245 365 245 365 245 342 c 0,18,19
 245 274 245 274 171 251 c 1,0,-1
34 251 m 1,20,-1
 34 265 l 1,21,22
 67 283 67 283 74 296 c 128,-1,23
 81 309 81 309 81 325 c 0,24,25
 81 340 81 340 71 340 c 0,26,27
 69 340 69 340 60 339 c 1,28,29
 52 336 52 336 49 336 c 0,30,31
 18 336 18 336 18 365 c 0,32,33
 18 379 18 379 30 389.5 c 128,-1,34
 42 400 42 400 57 400 c 0,35,36
 78 400 78 400 93 382.5 c 128,-1,37
 108 365 108 365 108 342 c 0,38,39
 108 273 108 273 34 251 c 1,20,-1
EndSplineSet
EndChar
StartChar: bullet
Encoding: 8226 8226 120
Width: 378
Flags: W
Fore
96 238 m 256,0,1
 96 277 96 277 123 303.5 c 128,-1,2
 150 330 150 330 189 330 c 256,3,4
 228 330 228 330 255 303.5 c 128,-1,5
 282 277 282 277 282 238 c 256,6,7
 282 199 282 199 254.5 172 c 128,-1,8
 227 145 227 145 189 145 c 0,9,10
 150 145 150 145 123 172 c 128,-1,11
 96 199 96 199 96 238 c 256,0,1
EndSplineSet
EndChar
StartChar: endash
Encoding: 8211 8211 121
Width: 320
Flags: W
Fore
0 191 m 1,0,-1
 320 191 l 1,1,-1
 320 149 l 1,2,-1
 0 149 l 1,3,-1
 0 191 l 1,0,-1
EndSplineSet
EndChar
StartChar: emdash
Encoding: 8212 8212 122
Width: 640
Flags: W
Fore
0 191 m 1,0,-1
 640 191 l 1,1,-1
 640 149 l 1,2,-1
 0 149 l 1,3,-1
 0 191 l 1,0,-1
EndSplineSet
EndChar
StartChar: uni0E31.alt1
Encoding: 63248 63248 123
Width: 0
Flags: W
Fore
-65 586 m 1,0,1
 -80 561 -80 561 -98.5 538.5 c 128,-1,2
 -117 516 -117 516 -139.5 499 c 128,-1,3
 -162 482 -162 482 -188.5 472.5 c 128,-1,4
 -215 463 -215 463 -246 463 c 0,5,6
 -264 463 -264 463 -288 466.5 c 128,-1,7
 -312 470 -312 470 -333.5 479 c 128,-1,8
 -355 488 -355 488 -369.5 503.5 c 128,-1,9
 -384 519 -384 519 -384 543 c 0,10,11
 -384 572 -384 572 -362.5 584 c 128,-1,12
 -341 596 -341 596 -315 596 c 0,13,14
 -303 596 -303 596 -290.5 593.5 c 128,-1,15
 -278 591 -278 591 -267 585 c 128,-1,16
 -256 579 -256 579 -249 569 c 128,-1,17
 -242 559 -242 559 -242 545 c 256,18,19
 -242 531 -242 531 -249 517 c 128,-1,20
 -256 503 -256 503 -268 495 c 1,21,-1
 -254 494 l 2,22,23
 -236 494 -236 494 -218 503 c 128,-1,24
 -200 512 -200 512 -184 525.5 c 128,-1,25
 -168 539 -168 539 -155.5 555 c 128,-1,26
 -143 571 -143 571 -135 586 c 1,27,-1
 -65 586 l 1,28,-1
 -65 586 l 1,0,1
-286 544 m 0,29,30
 -286 556 -286 556 -292 564.5 c 128,-1,31
 -298 573 -298 573 -311 573 c 0,32,33
 -322 573 -322 573 -329 563.5 c 128,-1,34
 -336 554 -336 554 -336 544 c 0,35,36
 -336 531 -336 531 -330.5 518.5 c 128,-1,37
 -325 506 -325 506 -309 506 c 0,38,39
 -295 506 -295 506 -290.5 519.5 c 128,-1,40
 -286 533 -286 533 -286 544 c 0,29,30
EndSplineSet
EndChar
StartChar: uni0E4D.alt1
Encoding: 63249 63249 124
Width: 0
Flags: W
Fore
-159 521 m 256,0,1
 -159 489 -159 489 -181.5 466 c 128,-1,2
 -204 443 -204 443 -236 443 c 0,3,4
 -269 443 -269 443 -291.5 465.5 c 128,-1,5
 -314 488 -314 488 -314 521 c 0,6,7
 -314 553 -314 553 -291 575.5 c 128,-1,8
 -268 598 -268 598 -236 598 c 256,9,10
 -204 598 -204 598 -181.5 575.5 c 128,-1,11
 -159 553 -159 553 -159 521 c 256,0,1
-194 520 m 0,12,13
 -194 538 -194 538 -206 550 c 128,-1,14
 -218 562 -218 562 -236 562 c 0,15,16
 -253 562 -253 562 -266 550 c 128,-1,17
 -279 538 -279 538 -279 520 c 256,18,19
 -279 502 -279 502 -266.5 489.5 c 128,-1,20
 -254 477 -254 477 -236 477 c 256,21,22
 -218 477 -218 477 -206 490 c 128,-1,23
 -194 503 -194 503 -194 520 c 0,12,13
EndSplineSet
EndChar
StartChar: uni0E47.alt1
Encoding: 63250 63250 125
Width: 0
Flags: W
Fore
-128 661 m 1,0,1
 -128 642 -128 642 -136 621 c 0,2,3
 -150 588 -150 588 -174 581.5 c 128,-1,4
 -198 575 -198 575 -230 575 c 2,5,-1
 -286 578 l 2,6,7
 -306 578 -306 578 -322 566 c 128,-1,8
 -338 554 -338 554 -338 534 c 0,9,10
 -338 527 -338 527 -337.5 521.5 c 128,-1,11
 -337 516 -337 516 -332 505 c 1,12,13
 -321 512 -321 512 -308 522 c 128,-1,14
 -295 532 -295 532 -281 532 c 0,15,16
 -261 532 -261 532 -250 521.5 c 128,-1,17
 -239 511 -239 511 -225 500 c 0,18,19
 -217 494 -217 494 -209 493 c 128,-1,20
 -201 492 -201 492 -192 491 c 1,21,22
 -200 496 -200 496 -207.5 503 c 128,-1,23
 -215 510 -215 510 -215 521 c 0,24,25
 -215 539 -215 539 -206 546 c 128,-1,26
 -197 553 -197 553 -180 553 c 256,27,28
 -163 553 -163 553 -151 544.5 c 128,-1,29
 -139 536 -139 536 -139 518 c 0,30,31
 -139 492 -139 492 -159.5 477.5 c 128,-1,32
 -180 463 -180 463 -204 463 c 0,33,34
 -220 463 -220 463 -231.5 468.5 c 128,-1,35
 -243 474 -243 474 -252.5 481 c 128,-1,36
 -262 488 -262 488 -269 493.5 c 128,-1,37
 -276 499 -276 499 -283 499 c 0,38,39
 -292 499 -292 499 -297.5 493 c 128,-1,40
 -303 487 -303 487 -308.5 479.5 c 128,-1,41
 -314 472 -314 472 -320.5 465.5 c 128,-1,42
 -327 459 -327 459 -336 459 c 0,43,44
 -347 459 -347 459 -356.5 466 c 128,-1,45
 -366 473 -366 473 -372.5 483 c 128,-1,46
 -379 493 -379 493 -382.5 504.5 c 128,-1,47
 -386 516 -386 516 -386 526 c 0,48,49
 -386 546 -386 546 -378 560.5 c 128,-1,50
 -370 575 -370 575 -356.5 584 c 128,-1,51
 -343 593 -343 593 -326 597.5 c 128,-1,52
 -309 602 -309 602 -291 602 c 2,53,-1
 -224 597 l 2,54,55
 -209 597 -209 597 -201.5 603 c 128,-1,56
 -194 609 -194 609 -190 618 c 128,-1,57
 -186 627 -186 627 -184.5 638.5 c 128,-1,58
 -183 650 -183 650 -181 661 c 1,59,-1
 -128 661 l 1,60,-1
 -128 661 l 1,0,1
EndSplineSet
EndChar
StartChar: uni0E48.alt3
Encoding: 63251 63251 126
Width: 0
Flags: W
Fore
-179 641 m 1,0,-1
 -179 751 l 1,1,-1
 -130 751 l 1,2,-1
 -130 641 l 1,3,-1
 -179 641 l 1,0,-1
EndSplineSet
EndChar
StartChar: uni0E49.alt3
Encoding: 63252 63252 127
Width: 0
Flags: W
Fore
-70 774 m 1,0,1
 -72 760 -72 760 -75 747 c 128,-1,2
 -78 734 -78 734 -84 722 c 0,3,4
 -96 699 -96 699 -115.5 683.5 c 128,-1,5
 -135 668 -135 668 -159 658 c 128,-1,6
 -183 648 -183 648 -208.5 643.5 c 128,-1,7
 -234 639 -234 639 -258 637 c 1,8,-1
 -258 661 l 1,9,10
 -245 664 -245 664 -233.5 671 c 128,-1,11
 -222 678 -222 678 -219 692 c 1,12,13
 -224 691 -224 691 -234 691 c 0,14,15
 -254 691 -254 691 -268 702.5 c 128,-1,16
 -282 714 -282 714 -282 735 c 0,17,18
 -282 758 -282 758 -265 769 c 128,-1,19
 -248 780 -248 780 -228 780 c 0,20,21
 -205 780 -205 780 -191 766 c 128,-1,22
 -177 752 -177 752 -177 729 c 0,23,24
 -177 714 -177 714 -183 698.5 c 128,-1,25
 -189 683 -189 683 -197 671 c 1,26,27
 -157 682 -157 682 -140.5 708.5 c 128,-1,28
 -124 735 -124 735 -122 774 c 1,29,-1
 -70 774 l 1,30,-1
 -70 774 l 1,0,1
-209 737 m 256,31,32
 -209 747 -209 747 -214.5 755.5 c 128,-1,33
 -220 764 -220 764 -231 764 c 0,34,35
 -241 764 -241 764 -245 754 c 128,-1,36
 -249 744 -249 744 -249 736 c 0,37,38
 -249 727 -249 727 -243.5 718 c 128,-1,39
 -238 709 -238 709 -228 709 c 0,40,41
 -216 709 -216 709 -212.5 718 c 128,-1,42
 -209 727 -209 727 -209 737 c 256,31,32
EndSplineSet
EndChar
StartChar: uni0E4A.alt3
Encoding: 63253 63253 128
Width: 0
Flags: W
Fore
-63 764 m 1,0,1
 -63 752 -63 752 -66 736.5 c 128,-1,2
 -69 721 -69 721 -74 710 c 0,3,4
 -88 675 -88 675 -113 663 c 128,-1,5
 -138 651 -138 651 -171 643 c 1,6,-1
 -171 666 l 1,7,8
 -166 672 -166 672 -161.5 682.5 c 128,-1,9
 -157 693 -157 693 -157 701 c 0,10,11
 -157 710 -157 710 -160 721.5 c 128,-1,12
 -163 733 -163 733 -177 733 c 0,13,14
 -180 733 -180 733 -184 729.5 c 128,-1,15
 -192 722.5 l 128,-1,16
 -196 719 -196 719 -199.5 715.5 c 128,-1,17
 -203 712 -203 712 -205 712 c 0,18,19
 -212 712 -212 712 -218.5 722 c 128,-1,20
 -225 732 -225 732 -233 732 c 0,21,22
 -246 732 -246 732 -252 720 c 128,-1,23
 -258 708 -258 708 -258 699 c 0,24,25
 -258 689 -258 689 -254 681 c 128,-1,26
 -250 673 -250 673 -235 668 c 1,27,28
 -239 674 -239 674 -239 680 c 0,29,30
 -239 690 -239 690 -232 694.5 c 128,-1,31
 -225 699 -225 699 -216 699 c 256,32,33
 -207 699 -207 699 -200.5 692 c 128,-1,34
 -194 685 -194 685 -194 676 c 0,35,36
 -194 659 -194 659 -209 652.5 c 128,-1,37
 -224 646 -224 646 -238 646 c 0,38,39
 -263 646 -263 646 -279 660.5 c 128,-1,40
 -295 675 -295 675 -295 701 c 256,41,42
 -295 727 -295 727 -277 743 c 0,43,44
 -274 746 -274 746 -269 750 c 128,-1,45
 -264 754 -264 754 -258 757.5 c 128,-1,46
 -252 761 -252 761 -246 764 c 128,-1,47
 -240 767 -240 767 -237 767 c 0,48,49
 -236 767 -236 767 -231 763.5 c 128,-1,50
 -226 760 -226 760 -220.5 755.5 c 128,-1,51
 -215 751 -215 751 -210.5 747 c 128,-1,52
 -206 743 -206 743 -204 741 c 1,53,54
 -203 743 -203 743 -199 747 c 128,-1,55
 -195 751 -195 751 -190 755 c 128,-1,56
 -185 759 -185 759 -181 762.5 c 128,-1,57
 -177 766 -177 766 -175 766 c 0,58,59
 -166 766 -166 766 -157 761 c 128,-1,60
 -148 756 -148 756 -140.5 748.5 c 128,-1,61
 -133 741 -133 741 -128.5 731.5 c 128,-1,62
 -124 722 -124 722 -124 712 c 0,63,64
 -124 705 -124 705 -125.5 697 c 128,-1,65
 -127 689 -127 689 -130 683 c 1,66,67
 -114 691 -114 691 -110 709 c 128,-1,68
 -106 727 -106 727 -106 746 c 2,69,-1
 -107 773 l 1,70,-1
 -63 773 l 1,71,-1
 -63 764 l 1,72,-1
 -63 764 l 1,0,1
EndSplineSet
EndChar
StartChar: uni0E4B.alt3
Encoding: 63254 63254 129
Width: 0
Flags: W
Fore
-129 697 m 1,0,-1
 -129 651 l 1,1,-1
 -178 651 l 1,2,-1
 -178 697 l 1,3,-1
 -219 697 l 1,4,-1
 -219 724 l 1,5,-1
 -178 724 l 1,6,-1
 -178 770 l 1,7,-1
 -129 770 l 1,8,-1
 -129 724 l 1,9,-1
 -85 724 l 1,10,-1
 -85 697 l 1,11,-1
 -129 697 l 1,0,-1
EndSplineSet
EndChar
StartChar: uni0E4C.alt3
Encoding: 63255 63255 130
Width: 0
Flags: W
Fore
-37 759 m 1,0,1
 -40 727 -40 727 -58 705.5 c 128,-1,2
 -76 684 -76 684 -108 679 c 1,3,4
 -98 666 -98 666 -98 648 c 0,5,6
 -98 625 -98 625 -113 611 c 128,-1,7
 -128 597 -128 597 -151 597 c 256,8,9
 -174 597 -174 597 -190.5 609.5 c 128,-1,10
 -207 622 -207 622 -207 646 c 0,11,12
 -207 664 -207 664 -196 678 c 0,13,14
 -183 694 -183 694 -163.5 697.5 c 128,-1,15
 -144 701 -144 701 -126 704.5 c 128,-1,16
 -108 708 -108 708 -95.5 718.5 c 128,-1,17
 -83 729 -83 729 -83 759 c 1,18,-1
 -37 759 l 1,19,-1
 -37 759 l 1,0,1
-128 645 m 256,20,21
 -128 655 -128 655 -134 667 c 128,-1,22
 -140 679 -140 679 -151 679 c 0,23,24
 -164 679 -164 679 -170.5 667.5 c 128,-1,25
 -177 656 -177 656 -177 645 c 256,26,27
 -177 634 -177 634 -170 622.5 c 128,-1,28
 -163 611 -163 611 -151 611 c 0,29,30
 -140 611 -140 611 -134 623 c 128,-1,31
 -128 635 -128 635 -128 645 c 256,20,21
EndSplineSet
EndChar
StartChar: uni0E01
Encoding: 3585 3585 132
Width: 411
Flags: W
Fore
331 0 m 1,0,-1
 304 0 l 1,1,-1
 304 258 l 2,2,3
 304 304 304 304 276.5 329 c 128,-1,4
 249 354 249 354 204 354 c 0,5,6
 182 354 182 354 160.5 352 c 128,-1,7
 139 350 139 350 119 344 c 128,-1,8
 99 338 99 338 81.5 326.5 c 128,-1,9
 64 315 64 315 49 296 c 1,10,-1
 152 296 l 1,11,-1
 152 270 l 1,12,13
 132 259 132 259 118.5 246.5 c 128,-1,14
 105 234 105 234 105 208 c 2,15,-1
 105 0 l 1,16,-1
 45 0 l 1,17,-1
 45 204 l 2,18,19
 45 224 45 224 59.5 238.5 c 128,-1,20
 74 253 74 253 88 264 c 2,21,-1
 91 266 l 1,22,-1
 8 266 l 1,23,-1
 8 311 l 1,24,25
 52 347 52 347 95 366.5 c 128,-1,26
 138 386 138 386 196 386 c 0,27,28
 229 386 229 386 259.5 379 c 128,-1,29
 290 372 290 372 313.5 356 c 128,-1,30
 337 340 337 340 351 314.5 c 128,-1,31
 365 289 365 289 365 252 c 2,32,-1
 365 44 l 1,33,-1
 331 0 l 1,0,-1
EndSplineSet
EndChar
StartChar: uni0E02
Encoding: 3586 3586 133
Width: 375
Flags: W
Fore
329 61 m 1,0,1
 329 30 329 30 315 15 c 128,-1,2
 301 0 301 0 269 0 c 2,3,-1
 58 0 l 1,4,-1
 58 33 l 1,5,-1
 94 33 l 1,6,-1
 94 130 l 2,7,8
 94 153 94 153 106 171.5 c 128,-1,9
 118 190 118 190 133 209 c 128,-1,10
 148 228 148 228 160 248.5 c 128,-1,11
 172 269 172 269 172 294 c 0,12,13
 172 320 172 320 155 340 c 128,-1,14
 138 360 138 360 111 360 c 0,15,16
 94 360 94 360 74.5 349 c 128,-1,17
 55 338 55 338 49 321 c 1,18,19
 56 324 56 324 64 326.5 c 128,-1,20
 72 329 72 329 80 329 c 0,21,22
 103 329 103 329 119.5 316.5 c 128,-1,23
 136 304 136 304 136 279 c 0,24,25
 136 250 136 250 117.5 235.5 c 128,-1,26
 99 221 99 221 71 221 c 0,27,28
 45 221 45 221 24.5 236 c 128,-1,29
 4 251 4 251 4 280 c 0,30,31
 4 303 4 303 12.5 322 c 128,-1,32
 21 341 21 341 35.5 354.5 c 128,-1,33
 50 368 50 368 69.5 376 c 128,-1,34
 89 384 89 384 111 384 c 0,35,36
 132 384 132 384 153 378.5 c 128,-1,37
 174 373 174 373 191 361 c 128,-1,38
 208 349 208 349 218.5 331.5 c 128,-1,39
 229 314 229 314 229 290 c 0,40,41
 229 270 229 270 217.5 251.5 c 128,-1,42
 206 233 206 233 192.5 215 c 128,-1,43
 179 197 179 197 167.5 178.5 c 128,-1,44
 156 160 156 160 156 139 c 2,45,-1
 156 33 l 1,46,-1
 267 33 l 1,47,-1
 267 339 l 1,48,-1
 303 380 l 1,49,-1
 328 380 l 1,50,51
 328 311 328 311 328 241.5 c 128,-1,52
 328 172 328 172 329 102 c 2,53,-1
 329 61 l 1,54,-1
 329 61 l 1,0,1
101 277 m 0,55,56
 101 287 101 287 93 297.5 c 128,-1,57
 85 308 85 308 72 308 c 0,58,59
 58 308 58 308 50 299 c 128,-1,60
 42 290 42 290 42 276 c 0,61,62
 42 260 42 260 50.5 250 c 128,-1,63
 59 240 59 240 76 240 c 0,64,65
 89 240 89 240 95 253 c 128,-1,66
 101 266 101 266 101 277 c 0,55,56
EndSplineSet
EndChar
StartChar: uni0E03
Encoding: 3587 3587 134
Width: 380
Flags: W
Fore
332 49 m 1,0,1
 332 47 332 47 330.5 43 c 128,-1,2
 329 39 329 39 328 37 c 0,3,4
 320 20 320 20 305 10 c 128,-1,5
 290 0 290 0 272 0 c 2,6,-1
 59 0 l 1,7,-1
 59 34 l 1,8,-1
 98 34 l 1,9,-1
 98 129 l 2,10,11
 98 151 98 151 112.5 172 c 128,-1,12
 127 193 127 193 145 215.5 c 128,-1,13
 163 238 163 238 177.5 263.5 c 128,-1,14
 192 289 192 289 192 321 c 0,15,16
 192 331 192 331 189.5 340 c 128,-1,17
 187 349 187 349 175 349 c 0,18,19
 169 349 169 349 162.5 345 c 128,-1,20
 156 341 156 341 149.5 336.5 c 128,-1,21
 143 332 143 332 135.5 328 c 128,-1,22
 128 324 128 324 119 324 c 0,23,24
 105 324 105 324 90 333.5 c 128,-1,25
 75 343 75 343 67 354 c 1,26,27
 56 349 56 349 51 337 c 128,-1,28
 46 325 46 325 46 314 c 0,29,30
 46 310 46 310 46 305.5 c 128,-1,31
 46 301 46 301 47 297 c 1,32,33
 54 302 54 302 63.5 306.5 c 128,-1,34
 73 311 73 311 82 311 c 0,35,36
 107 311 107 311 121.5 298 c 128,-1,37
 136 285 136 285 136 260 c 0,38,39
 136 234 136 234 119 220.5 c 128,-1,40
 102 207 102 207 77 207 c 0,41,42
 57 207 57 207 43 215 c 128,-1,43
 29 223 29 223 20.5 236.5 c 128,-1,44
 12 250 12 250 8 267 c 128,-1,45
 4 284 4 284 4 301 c 0,46,47
 4 314 4 314 7.5 328 c 128,-1,48
 11 342 11 342 18 354 c 128,-1,49
 25 366 25 366 36.5 373.5 c 128,-1,50
 48 381 48 381 63 381 c 0,51,52
 81 381 81 381 94.5 371 c 128,-1,53
 108 361 108 361 122 350 c 1,54,55
 133 361 133 361 147 372 c 128,-1,56
 161 383 161 383 178 383 c 0,57,58
 210 383 210 383 227 364.5 c 128,-1,59
 244 346 244 346 244 315 c 256,60,61
 244 284 244 284 233 263 c 128,-1,62
 222 242 222 242 208 224 c 128,-1,63
 194 206 194 206 181 189 c 128,-1,64
 168 172 168 172 163 149 c 0,65,66
 161 139 161 139 160.5 129.5 c 128,-1,67
 160 120 160 120 160 111 c 2,68,-1
 160 34 l 1,69,-1
 271 34 l 1,70,-1
 271 344 l 1,71,-1
 306 380 l 1,72,-1
 332 380 l 1,73,-1
 332 49 l 1,74,-1
 332 49 l 1,0,1
105 259 m 256,75,76
 105 270 105 270 100 279.5 c 128,-1,77
 95 289 95 289 81 289 c 0,78,79
 69 289 69 289 60.5 280.5 c 128,-1,80
 52 272 52 272 52 260 c 0,81,82
 52 249 52 249 58.5 237 c 128,-1,83
 65 225 65 225 78 225 c 256,84,85
 91 225 91 225 98 236.5 c 128,-1,86
 105 248 105 248 105 259 c 256,75,76
EndSplineSet
EndChar
StartChar: uni0E04
Encoding: 3588 3588 135
Width: 415
Flags: W
Fore
120 0 m 1,0,-1
 62 0 l 1,1,-1
 62 131 l 2,2,3
 62 132 62 132 54.5 140.5 c 128,-1,4
 47 149 47 149 38 163.5 c 128,-1,5
 29 178 29 178 21.5 198.5 c 128,-1,6
 14 219 14 219 14 244 c 0,7,8
 14 278 14 278 31 304 c 128,-1,9
 48 330 48 330 74 347.5 c 128,-1,10
 100 365 100 365 131.5 374 c 128,-1,11
 163 383 163 383 193 383 c 256,12,13
 223 383 223 383 254 376.5 c 128,-1,14
 285 370 285 370 310.5 355 c 128,-1,15
 336 340 336 340 352.5 316 c 128,-1,16
 369 292 369 292 369 256 c 2,17,-1
 369 37 l 1,18,-1
 336 0 l 1,19,-1
 307 0 l 1,20,-1
 307 259 l 2,21,22
 307 307 307 307 276.5 331 c 128,-1,23
 246 355 246 355 201 355 c 0,24,25
 178 355 178 355 155.5 351.5 c 128,-1,26
 133 348 133 348 113.5 339 c 128,-1,27
 94 330 94 330 79 314 c 128,-1,28
 64 298 64 298 56 274 c 0,29,30
 54 267 54 267 53 259.5 c 128,-1,31
 52 252 52 252 52 245 c 0,32,33
 52 232 52 232 56.5 213.5 c 128,-1,34
 61 195 61 195 69 185 c 1,35,36
 72 205 72 205 76.5 222.5 c 128,-1,37
 81 240 81 240 90 253 c 128,-1,38
 99 266 99 266 114 274 c 128,-1,39
 129 282 129 282 152 282 c 0,40,41
 165 282 165 282 178 278 c 128,-1,42
 191 274 191 274 201.5 266.5 c 128,-1,43
 212 259 212 259 218.5 247.5 c 128,-1,44
 225 236 225 236 225 221 c 0,45,46
 225 186 225 186 206 167 c 128,-1,47
 187 148 187 148 155 148 c 0,48,49
 147 148 147 148 137.5 150 c 128,-1,50
 128 152 128 152 120 154 c 1,51,-1
 120 0 l 1,0,-1
186 218 m 0,52,53
 186 232 186 232 177.5 245.5 c 128,-1,54
 169 259 169 259 154 259 c 256,55,56
 139 259 139 259 127.5 245 c 128,-1,57
 116 231 116 231 116 216 c 0,58,59
 116 199 116 199 126 185 c 128,-1,60
 136 171 136 171 153 171 c 0,61,62
 168 171 168 171 177 187 c 128,-1,63
 186 203 186 203 186 218 c 0,52,53
EndSplineSet
EndChar
StartChar: uni0E05
Encoding: 3589 3589 136
Width: 425
Flags: W
Fore
149 0 m 1,0,-1
 90 0 l 1,1,-1
 90 139 l 2,2,3
 90 142 90 142 79.5 152.5 c 128,-1,4
 69 163 69 163 56.5 179 c 128,-1,5
 44 195 44 195 33.5 214.5 c 128,-1,6
 23 234 23 234 23 256 c 0,7,8
 23 277 23 277 31 300 c 128,-1,9
 39 323 39 323 53.5 341.5 c 128,-1,10
 68 360 68 360 87.5 372.5 c 128,-1,11
 107 385 107 385 130 385 c 0,12,13
 141 385 141 385 151 379.5 c 128,-1,14
 161 374 161 374 170 367.5 c 128,-1,15
 179 361 179 361 188 355.5 c 128,-1,16
 197 350 197 350 206 350 c 0,17,18
 217 350 217 350 227 355.5 c 128,-1,19
 237 361 237 361 246.5 367.5 c 128,-1,20
 256 374 256 374 265.5 379.5 c 128,-1,21
 275 385 275 385 285 385 c 0,22,23
 300 385 300 385 316 377 c 0,24,25
 351 360 351 360 365 330 c 128,-1,26
 379 300 379 300 379 263 c 2,27,-1
 379 37 l 1,28,-1
 344 0 l 1,29,-1
 318 0 l 1,30,-1
 318 274 l 2,31,32
 318 284 318 284 317 295 c 128,-1,33
 316 306 316 306 312.5 315.5 c 128,-1,34
 309 325 309 325 301.5 331.5 c 128,-1,35
 294 338 294 338 281 338 c 0,36,37
 271 338 271 338 262 334.5 c 128,-1,38
 244 327.5 l 128,-1,39
 235 324 235 324 226.5 320.5 c 128,-1,40
 218 317 218 317 208 317 c 0,41,42
 195 317 195 317 184 323 c 128,-1,43
 173 329 173 329 163 335.5 c 128,-1,44
 153 342 153 342 143 348 c 128,-1,45
 133 354 133 354 122 354 c 0,46,47
 114 354 114 354 107 349 c 128,-1,48
 100 344 100 344 94 339 c 0,49,50
 78 322 78 322 68.5 301.5 c 128,-1,51
 59 281 59 281 59 258 c 0,52,53
 59 240 59 240 70.5 223.5 c 128,-1,54
 82 207 82 207 94 193 c 2,55,-1
 97 189 l 1,56,-1
 101 211 l 2,57,58
 103 223 103 223 111 234 c 128,-1,59
 119 245 119 245 130 253.5 c 128,-1,60
 141 262 141 262 153.5 266.5 c 128,-1,61
 166 271 166 271 178 271 c 0,62,63
 209 271 209 271 229 254.5 c 128,-1,64
 249 238 249 238 249 211 c 0,65,66
 249 183 249 183 232.5 162.5 c 128,-1,67
 216 142 216 142 190 142 c 0,68,69
 180 142 180 142 170 143 c 128,-1,70
 160 144 160 144 149 151 c 1,71,-1
 149 0 l 1,0,-1
213 210 m 0,72,73
 213 224 213 224 204.5 237 c 128,-1,74
 196 250 196 250 181 250 c 256,75,76
 166 250 166 250 154.5 236.5 c 128,-1,77
 143 223 143 223 143 208 c 0,78,79
 143 191 143 191 153 177 c 128,-1,80
 163 163 163 163 180 163 c 0,81,82
 195 163 195 163 204 179 c 128,-1,83
 213 195 213 195 213 210 c 0,72,73
EndSplineSet
EndChar
StartChar: uni0E06
Encoding: 3590 3590 137
Width: 430
Flags: W
Fore
327 1 m 1,0,1
 291 32 291 32 252 58 c 128,-1,2
 213 84 213 84 175 112 c 1,3,-1
 175 65 l 2,4,5
 175 29 175 29 157.5 14.5 c 128,-1,6
 140 0 140 0 105 0 c 256,7,8
 70 0 70 0 53 19.5 c 128,-1,9
 36 39 36 39 36 73 c 0,10,11
 36 89 36 89 43.5 103 c 128,-1,12
 51 117 51 117 62.5 128 c 128,-1,13
 74 139 74 139 88.5 146.5 c 128,-1,14
 103 154 103 154 117 157 c 1,15,-1
 117 173 l 2,16,17
 117 187 117 187 130 201 c 128,-1,18
 143 215 143 215 159 232.5 c 128,-1,19
 175 250 175 250 188 271.5 c 128,-1,20
 201 293 201 293 201 323 c 0,21,22
 201 330 201 330 197 340 c 128,-1,23
 193 350 193 350 185 350 c 256,24,25
 177 350 177 350 170 345 c 128,-1,26
 163 340 163 340 156.5 334.5 c 128,-1,27
 150 329 150 329 143 324 c 128,-1,28
 136 319 136 319 127 319 c 0,29,30
 109 319 109 319 94 331 c 128,-1,31
 79 343 79 343 61 351 c 1,32,33
 48 330 48 330 46 302 c 1,34,35
 62 315 62 315 82 315 c 0,36,37
 106 315 106 315 120 303 c 128,-1,38
 134 291 134 291 134 266 c 0,39,40
 134 240 134 240 117 226.5 c 128,-1,41
 100 213 100 213 75 213 c 0,42,43
 43 213 43 213 25.5 232 c 128,-1,44
 8 251 8 251 8 283 c 0,45,46
 8 300 8 300 10 317.5 c 128,-1,47
 12 335 12 335 18.5 349.5 c 128,-1,48
 25 364 25 364 37.5 373.5 c 128,-1,49
 50 383 50 383 71 383 c 0,50,51
 76 383 76 383 83.5 379.5 c 128,-1,52
 91 376 91 376 99.5 371 c 128,-1,53
 108 366 108 366 115.5 361 c 128,-1,54
 123 356 123 356 127 353 c 1,55,56
 144 362 144 362 158.5 372 c 128,-1,57
 173 382 173 382 193 382 c 0,58,59
 225 382 225 382 238 361 c 128,-1,60
 251 340 251 340 251 311 c 0,61,62
 251 289 251 289 239.5 270.5 c 128,-1,63
 228 252 228 252 214 235.5 c 128,-1,64
 200 219 200 219 188.5 204 c 128,-1,65
 177 189 177 189 177 172 c 2,66,-1
 177 151 l 1,67,68
 214 128 214 128 250.5 105 c 128,-1,69
 287 82 287 82 322 57 c 1,70,-1
 322 347 l 1,71,-1
 358 380 l 1,72,-1
 384 380 l 1,73,-1
 384 1 l 1,74,-1
 327 1 l 1,0,1
98 261 m 0,75,76
 98 271 98 271 92 281.5 c 128,-1,77
 86 292 86 292 75 292 c 0,78,79
 48 292 48 292 48 264 c 0,80,81
 48 254 48 254 54.5 243.5 c 128,-1,82
 61 233 61 233 72 233 c 0,83,84
 98 233 98 233 98 261 c 0,75,76
117 127 m 1,85,86
 99 123 99 123 90.5 106 c 128,-1,87
 82 89 82 89 82 72 c 0,88,89
 82 66 82 66 83 58 c 128,-1,90
 84 50 84 50 86.5 42.5 c 128,-1,91
 89 35 89 35 94 29.5 c 128,-1,92
 99 24 99 24 107 24 c 0,93,94
 110 24 110 24 113.5 32.5 c 128,-1,95
 117 41 117 41 117 44 c 2,96,-1
 117 127 l 1,85,86
EndSplineSet
EndChar
StartChar: uni0E07
Encoding: 3591 3591 138
Width: 295
Flags: W
Fore
249 34 m 1,0,1
 249 31 249 31 246 25 c 128,-1,2
 243 19 243 19 239.5 13.5 c 128,-1,3
 236 8 236 8 231.5 3.5 c 128,-1,4
 227 -1 227 -1 224 -1 c 2,5,-1
 176 -1 l 1,6,-1
 11 194 l 1,7,-1
 59 194 l 1,8,-1
 189 48 l 1,9,-1
 189 246 l 1,10,11
 184 245 184 245 179.5 244 c 128,-1,12
 175 243 175 243 170 243 c 0,13,14
 136 243 136 243 114 262.5 c 128,-1,15
 92 282 92 282 92 317 c 256,16,17
 92 352 92 352 115 368.5 c 128,-1,18
 138 385 138 385 170 385 c 256,19,20
 202 385 202 385 225.5 365.5 c 128,-1,21
 249 346 249 346 249 312 c 2,22,-1
 249 34 l 1,23,-1
 249 34 l 1,0,1
201 318 m 0,24,25
 201 333 201 333 194 349.5 c 128,-1,26
 187 366 187 366 169 366 c 256,27,28
 151 366 151 366 141.5 350 c 128,-1,29
 132 334 132 334 132 318 c 0,30,31
 132 310 132 310 134 300.5 c 128,-1,32
 136 291 136 291 140.5 283 c 128,-1,33
 145 275 145 275 152 269.5 c 128,-1,34
 159 264 159 264 169 264 c 0,35,36
 178 264 178 264 184 270 c 128,-1,37
 190 276 190 276 194 284 c 128,-1,38
 198 292 198 292 199.5 301.5 c 128,-1,39
 201 311 201 311 201 318 c 0,24,25
EndSplineSet
EndChar
StartChar: uni0E08
Encoding: 3592 3592 139
Width: 347
Flags: W
Fore
293 2 m 1,0,-1
 179 2 l 1,1,-1
 145 143 l 1,2,3
 126 129 126 129 103 129 c 0,4,5
 71 129 71 129 52.5 147 c 128,-1,6
 34 165 34 165 34 197 c 256,7,8
 34 229 34 229 56.5 244.5 c 128,-1,9
 79 260 79 260 108 260 c 0,10,11
 126 260 126 260 139 254 c 128,-1,12
 152 248 152 248 163 233 c 0,13,14
 171 223 171 223 179.5 196 c 128,-1,15
 188 169 188 169 195.5 137.5 c 128,-1,16
 203 106 203 106 209 76.5 c 128,-1,17
 215 47 215 47 219 32 c 1,18,-1
 241 32 l 1,19,20
 243 86 243 86 246.5 139 c 128,-1,21
 250 192 250 192 250 246 c 0,22,23
 250 271 250 271 246 291.5 c 128,-1,24
 242 312 242 312 231.5 326.5 c 128,-1,25
 221 341 221 341 203 349 c 128,-1,26
 185 357 185 357 157 357 c 0,27,28
 133 357 133 357 111.5 348.5 c 128,-1,29
 90 340 90 340 71.5 326.5 c 128,-1,30
 53 313 53 313 37 296 c 128,-1,31
 21 279 21 279 6 261 c 1,32,-1
 6 330 l 1,33,34
 41 359 41 359 73 371.5 c 128,-1,35
 105 384 105 384 151 384 c 0,36,37
 193 384 193 384 223 377.5 c 128,-1,38
 253 371 253 371 271.5 354.5 c 128,-1,39
 290 338 290 338 298.5 309.5 c 128,-1,40
 307 281 307 281 307 237 c 2,41,-1
 293 2 l 1,0,-1
134 189 m 0,42,43
 134 195 134 195 132 203 c 128,-1,44
 130 211 130 211 126 218.5 c 128,-1,45
 122 226 122 226 116.5 231.5 c 128,-1,46
 111 237 111 237 104 237 c 0,47,48
 89 237 89 237 83 222.5 c 128,-1,49
 77 208 77 208 77 196 c 0,50,51
 77 182 77 182 85 168 c 128,-1,52
 93 154 93 154 108 154 c 0,53,54
 121 154 121 154 127.5 166 c 128,-1,55
 134 178 134 178 134 189 c 0,42,43
EndSplineSet
EndChar
StartChar: uni0E09
Encoding: 3593 3593 140
Width: 401
Flags: W
Fore
378 56 m 0,0,1
 378 25 378 25 362 11.5 c 128,-1,2
 346 -2 346 -2 318 -2 c 0,3,4
 280 -2 280 -2 263.5 11.5 c 128,-1,5
 247 25 247 25 247 61 c 0,6,7
 247 64 247 64 248.5 69.5 c 128,-1,8
 250 75 250 75 252 78 c 1,9,10
 242 72 242 72 228.5 63 c 128,-1,11
 215 54 215 54 202.5 44 c 128,-1,12
 190 34 190 34 179 22.5 c 128,-1,13
 168 11 168 11 163 0 c 1,14,-1
 107 0 l 1,15,-1
 107 122 l 1,16,17
 96 117 96 117 80 117 c 0,18,19
 57 117 57 117 37.5 131.5 c 128,-1,20
 18 146 18 146 18 171 c 0,21,22
 18 205 18 205 39.5 222 c 128,-1,23
 61 239 61 239 93 239 c 0,24,25
 135 239 135 239 150.5 218.5 c 128,-1,26
 166 198 166 198 166 159 c 2,27,-1
 166 60 l 1,28,29
 180 68 180 68 192.5 76.5 c 128,-1,30
 205 85 205 85 219 93 c 0,31,32
 228 98 228 98 241 104 c 128,-1,33
 254 110 254 110 266 117.5 c 128,-1,34
 278 125 278 125 286 135 c 128,-1,35
 294 145 294 145 294 158 c 2,36,-1
 294 253 l 2,37,38
 294 302 294 302 268.5 329 c 128,-1,39
 243 356 243 356 193 356 c 0,40,41
 167 356 167 356 141.5 347 c 128,-1,42
 116 338 116 338 92 324 c 128,-1,43
 68 310 68 310 46.5 292 c 128,-1,44
 25 274 25 274 8 257 c 1,45,-1
 8 325 l 1,46,47
 46 354 46 354 93.5 369.5 c 128,-1,48
 141 385 141 385 189 385 c 0,49,50
 224 385 224 385 254.5 380 c 128,-1,51
 285 375 285 375 307.5 361 c 128,-1,52
 330 347 330 347 342.5 321.5 c 128,-1,53
 355 296 355 296 355 255 c 2,54,-1
 355 159 l 2,55,56
 355 145 355 145 347 134 c 128,-1,57
 339 123 339 123 331 113 c 1,58,59
 353 108 353 108 365.5 93.5 c 128,-1,60
 378 79 378 79 378 56 c 0,0,1
335 59 m 0,61,62
 335 68 335 68 330 80 c 128,-1,63
 325 92 325 92 314 92 c 0,64,65
 300 92 300 92 295.5 79 c 128,-1,66
 291 66 291 66 291 55 c 0,67,68
 291 46 291 46 296.5 33.5 c 128,-1,69
 302 21 302 21 313 21 c 0,70,71
 326 21 326 21 330.5 35 c 128,-1,72
 335 49 335 49 335 59 c 0,61,62
115 176 m 0,73,74
 115 187 115 187 110 201 c 128,-1,75
 105 215 105 215 91 215 c 0,76,77
 76 215 76 215 68 203 c 128,-1,78
 60 191 60 191 60 177 c 0,79,80
 60 166 60 166 67.5 155 c 128,-1,81
 75 144 75 144 87 144 c 0,82,83
 102 144 102 144 108.5 153 c 128,-1,84
 115 162 115 162 115 176 c 0,73,74
EndSplineSet
EndChar
StartChar: uni0E0A
Encoding: 3594 3594 141
Width: 388
Flags: W
Fore
384 397 m 1,0,1
 364 364 364 364 340 338 c 128,-1,2
 316 312 316 312 281 293 c 1,3,4
 307 284 307 284 325.5 258.5 c 128,-1,5
 344 233 344 233 344 205 c 2,6,-1
 344 50 l 2,7,8
 344 48 344 48 343.5 38.5 c 128,-1,9
 343 29 343 29 339 24 c 0,10,11
 336 20 336 20 331 15.5 c 128,-1,12
 326 11 326 11 306 3 c 0,13,14
 302 1 302 1 295 0 c 128,-1,15
 288 -1 288 -1 284 -1 c 2,16,-1
 63 -1 l 1,17,-1
 63 34 l 1,18,-1
 103 34 l 1,19,-1
 103 125 l 2,20,21
 103 140 103 140 116 159.5 c 128,-1,22
 129 179 129 179 144.5 201.5 c 128,-1,23
 160 224 160 224 173 248 c 128,-1,24
 186 272 186 272 186 297 c 0,25,26
 186 323 186 323 168 341.5 c 128,-1,27
 150 360 150 360 124 360 c 0,28,29
 101 360 101 360 78 346.5 c 128,-1,30
 55 333 55 333 50 309 c 1,31,32
 60 318 60 318 70 321 c 128,-1,33
 80 324 80 324 91 324 c 0,34,35
 114 324 114 324 126.5 308.5 c 128,-1,36
 139 293 139 293 139 271 c 0,37,38
 139 244 139 244 122 230 c 128,-1,39
 105 216 105 216 79 216 c 0,40,41
 47 216 47 216 26.5 234 c 128,-1,42
 6 252 6 252 6 286 c 0,43,44
 6 309 6 309 16 327 c 128,-1,45
 26 345 26 345 42 357.5 c 128,-1,46
 58 370 58 370 78.5 376.5 c 128,-1,47
 99 383 99 383 120 383 c 0,48,49
 138 383 138 383 158 378.5 c 128,-1,50
 178 374 178 374 194.5 364.5 c 128,-1,51
 211 355 211 355 222 339.5 c 128,-1,52
 233 324 233 324 233 303 c 0,53,54
 233 275 233 275 222 252.5 c 128,-1,55
 211 230 211 230 198.5 208.5 c 128,-1,56
 186 187 186 187 175 166 c 128,-1,57
 164 145 164 145 164 120 c 2,58,-1
 164 34 l 1,59,-1
 282 34 l 1,60,-1
 282 203 l 2,61,62
 282 229 282 229 274.5 245.5 c 128,-1,63
 267 262 267 262 244 276 c 1,64,-1
 244 306 l 1,65,66
 271 319 271 319 292.5 344 c 128,-1,67
 314 369 314 369 324 397 c 1,68,-1
 384 397 l 1,69,-1
 384 397 l 1,0,1
101 266 m 0,70,71
 101 278 101 278 94 287 c 128,-1,72
 87 296 87 296 74 296 c 0,73,74
 62 296 62 296 56 287 c 128,-1,75
 50 278 50 278 50 267 c 256,76,77
 50 256 50 256 57.5 246.5 c 128,-1,78
 65 237 65 237 76 237 c 0,79,80
 88 237 88 237 94.5 246 c 128,-1,81
 101 255 101 255 101 266 c 0,70,71
EndSplineSet
EndChar
StartChar: uni0E0B
Encoding: 3595 3595 142
Width: 407
Flags: W
Fore
75 351 m 256,0,1
 64 351 64 351 61 337 c 128,-1,2
 58 323 58 323 58 311 c 0,3,4
 58 309 58 309 58 305 c 128,-1,5
 58 301 58 301 59 299 c 1,6,7
 65 306 65 306 76.5 310 c 128,-1,8
 88 314 88 314 97 314 c 0,9,10
 119 314 119 314 131.5 301.5 c 128,-1,11
 144 289 144 289 144 267 c 0,12,13
 144 241 144 241 126 227.5 c 128,-1,14
 108 214 108 214 84 214 c 0,15,16
 66 214 66 214 53 221.5 c 128,-1,17
 40 229 40 229 31.5 241 c 128,-1,18
 23 253 23 253 19 268.5 c 128,-1,19
 15 284 15 284 15 300 c 0,20,21
 15 314 15 314 18 328.5 c 128,-1,22
 21 343 21 343 28 355 c 128,-1,23
 35 367 35 367 46.5 374.5 c 128,-1,24
 58 382 58 382 75 382 c 256,25,26
 92 382 92 382 105.5 371 c 128,-1,27
 119 360 119 360 133 352 c 1,28,29
 141 355 141 355 147 360.5 c 128,-1,30
 159 371.5 l 128,-1,31
 165 377 165 377 172 380.5 c 128,-1,32
 179 384 179 384 189 384 c 0,33,34
 221 384 221 384 234.5 365.5 c 128,-1,35
 248 347 248 347 248 318 c 0,36,37
 248 288 248 288 237 263 c 128,-1,38
 226 238 226 238 213.5 215.5 c 128,-1,39
 201 193 201 193 190 172 c 128,-1,40
 179 151 179 151 179 131 c 2,41,-1
 179 33 l 1,42,-1
 297 33 l 1,43,-1
 297 218 l 2,44,45
 297 237 297 237 287.5 255 c 128,-1,46
 278 273 278 273 261 282 c 1,47,-1
 261 307 l 1,48,49
 286 324 286 324 307 346.5 c 128,-1,50
 328 369 328 369 340 397 c 1,51,-1
 403 397 l 1,52,53
 381 360 381 360 357.5 339.5 c 128,-1,54
 334 319 334 319 299 296 c 1,55,56
 325 282 325 282 341.5 261.5 c 128,-1,57
 358 241 358 241 358 211 c 2,58,-1
 358 49 l 2,59,60
 358 29 358 29 343 19 c 128,-1,61
 328 9 328 9 311 4 c 0,62,63
 308 3 308 3 303.5 1.5 c 128,-1,64
 299 0 299 0 296 0 c 2,65,-1
 71 0 l 1,66,-1
 71 33 l 1,67,-1
 117 33 l 1,68,-1
 117 128 l 2,69,70
 117 147 117 147 130.5 170 c 128,-1,71
 144 193 144 193 160.5 218.5 c 128,-1,72
 177 244 177 244 190.5 272 c 128,-1,73
 204 300 204 300 204 328 c 0,74,75
 204 339 204 339 199 345 c 128,-1,76
 194 351 194 351 180 351 c 0,77,78
 178 351 178 351 174 346 c 128,-1,79
 170 341 170 341 164 335.5 c 128,-1,80
 158 330 158 330 151 325 c 128,-1,81
 144 320 144 320 135 320 c 0,82,83
 125 320 125 320 119 323 c 128,-1,84
 113 326 113 326 105 332 c 1,85,-1
 102 335 l 1,86,-1
 100 337 l 2,87,88
 93 344 93 344 89.5 347.5 c 128,-1,89
 86 351 86 351 75 351 c 256,0,1
110 261 m 256,90,91
 110 272 110 272 105 280.5 c 128,-1,92
 100 289 100 289 88 289 c 0,93,94
 77 289 77 289 70 281 c 128,-1,95
 63 273 63 273 63 262 c 0,96,97
 63 252 63 252 67.5 241.5 c 128,-1,98
 72 231 72 231 84 231 c 256,99,100
 96 231 96 231 103 240.5 c 128,-1,101
 110 250 110 250 110 261 c 256,90,91
EndSplineSet
EndChar
StartChar: uni0E0C
Encoding: 3596 3596 143
Width: 563
Flags: W
Fore
463 1 m 1,0,1
 440 29 440 29 411 49.5 c 128,-1,2
 382 70 382 70 354 92 c 1,3,-1
 354 46 l 2,4,5
 354 22 354 22 335 10 c 0,6,7
 317 -2 317 -2 295 -2 c 0,8,9
 266 -2 266 -2 243.5 12.5 c 128,-1,10
 221 27 221 27 221 59 c 0,11,12
 221 76 221 76 227 88.5 c 128,-1,13
 233 101 233 101 243 110.5 c 128,-1,14
 253 120 253 120 266 126.5 c 128,-1,15
 279 133 279 133 294 138 c 1,16,-1
 294 272 l 2,17,18
 294 298 294 298 286 314 c 128,-1,19
 278 330 278 330 264 339.5 c 128,-1,20
 250 349 250 349 231 352.5 c 128,-1,21
 212 356 212 356 189 356 c 0,22,23
 152 356 152 356 115 342 c 128,-1,24
 78 328 78 328 54 299 c 1,25,-1
 151 299 l 1,26,-1
 151 275 l 1,27,28
 132 272 132 272 121.5 256.5 c 128,-1,29
 111 241 111 241 111 223 c 2,30,-1
 111 117 l 1,31,32
 117 120 117 120 124 122.5 c 128,-1,33
 131 125 131 125 138 125 c 0,34,35
 167 125 167 125 184 108.5 c 128,-1,36
 201 92 201 92 201 62 c 0,37,38
 201 33 201 33 179.5 15 c 128,-1,39
 158 -3 158 -3 131 -3 c 0,40,41
 98 -3 98 -3 74.5 21 c 128,-1,42
 51 45 51 45 51 78 c 2,43,-1
 51 210 l 2,44,45
 51 229 51 229 60.5 246 c 128,-1,46
 70 263 70 263 86 273 c 1,47,-1
 7 273 l 1,48,-1
 7 310 l 1,49,-1
 56 346 l 2,50,51
 91 371 91 371 124.5 378 c 128,-1,52
 158 385 158 385 197 385 c 0,53,54
 220 385 220 385 247 381 c 128,-1,55
 274 377 274 377 298 366.5 c 128,-1,56
 322 356 322 356 338 337.5 c 128,-1,57
 354 319 354 319 354 290 c 2,58,-1
 354 134 l 1,59,60
 407 101 407 101 456 65 c 1,61,-1
 456 351 l 1,62,-1
 494 380 l 1,63,-1
 517 380 l 1,64,-1
 517 1 l 1,65,-1
 463 1 l 1,0,1
298 108 m 1,66,67
 282 103 282 103 273 90.5 c 128,-1,68
 264 78 264 78 264 61 c 0,69,70
 264 56 264 56 265 49 c 128,-1,71
 266 42 266 42 268.5 35 c 128,-1,72
 271 28 271 28 275 23.5 c 128,-1,73
 279 19 279 19 286 19 c 0,74,75
 292 19 292 19 295 26 c 128,-1,76
 298 33 298 33 298 38 c 2,77,-1
 298 108 l 1,66,67
163 56 m 256,78,79
 163 70 163 70 156 85 c 128,-1,80
 149 100 149 100 132 100 c 0,81,82
 118 100 118 100 110.5 88 c 128,-1,83
 103 76 103 76 103 64 c 256,84,85
 103 52 103 52 111.5 37 c 128,-1,86
 120 22 120 22 134 22 c 256,87,88
 148 22 148 22 155.5 32 c 128,-1,89
 163 42 163 42 163 56 c 256,78,79
EndSplineSet
EndChar
StartChar: uni0E0D
Encoding: 3597 3597 144
Width: 556
Flags: W
Fore
271 0 m 1,0,-1
 271 252 l 2,1,2
 271 300 271 300 251.5 326 c 128,-1,3
 232 352 232 352 181 352 c 0,4,5
 165 352 165 352 146.5 348 c 128,-1,6
 128 344 128 344 110 337 c 128,-1,7
 92 330 92 330 76 320 c 128,-1,8
 60 310 60 310 49 298 c 1,9,-1
 151 298 l 1,10,-1
 151 270 l 1,11,12
 128 262 128 262 116 247.5 c 128,-1,13
 104 233 104 233 104 207 c 2,14,-1
 104 117 l 1,15,16
 112 120 112 120 121 123 c 128,-1,17
 130 126 130 126 139 126 c 0,18,19
 165 126 165 126 182 110 c 128,-1,20
 199 94 199 94 199 68 c 0,21,22
 199 31 199 31 179.5 14 c 128,-1,23
 160 -3 160 -3 125 -3 c 0,24,25
 93 -3 93 -3 68 17 c 128,-1,26
 43 37 43 37 43 70 c 2,27,-1
 43 198 l 2,28,29
 43 221 43 221 56.5 239.5 c 128,-1,30
 70 258 70 258 88 269 c 1,31,-1
 7 269 l 1,32,-1
 7 313 l 1,33,34
 27 326 27 326 48 339 c 128,-1,35
 69 352 69 352 91 362 c 128,-1,36
 113 372 113 372 136 378.5 c 128,-1,37
 159 385 159 385 184 385 c 0,38,39
 251 385 251 385 291.5 351.5 c 128,-1,40
 332 318 332 318 332 248 c 2,41,-1
 332 33 l 1,42,-1
 449 33 l 1,43,-1
 449 349 l 1,44,-1
 484 380 l 1,45,-1
 510 380 l 1,46,-1
 510 0 l 1,47,-1
 271 0 l 1,0,-1
507 -62 m 1,48,49
 507 -89 507 -89 491 -107.5 c 128,-1,50
 475 -126 475 -126 452 -137 c 128,-1,51
 429 -148 429 -148 402 -153 c 128,-1,52
 375 -158 375 -158 354 -158 c 0,53,54
 340 -158 340 -158 324.5 -155 c 128,-1,55
 309 -152 309 -152 296 -144.5 c 128,-1,56
 283 -137 283 -137 274.5 -125 c 128,-1,57
 266 -113 266 -113 266 -96 c 0,58,59
 266 -67 266 -67 282.5 -51 c 128,-1,60
 299 -35 299 -35 328 -35 c 0,61,62
 354 -35 354 -35 372.5 -45.5 c 128,-1,63
 391 -56 391 -56 391 -85 c 0,64,65
 391 -99 391 -99 386.5 -111 c 128,-1,66
 382 -123 382 -123 371 -132 c 1,67,-1
 378 -132 l 2,68,69
 404 -132 404 -132 425 -118.5 c 128,-1,70
 446 -105 446 -105 451 -78 c 0,71,72
 453 -70 453 -70 452.5 -62.5 c 128,-1,73
 452 -55 452 -55 453 -47 c 1,74,-1
 507 -47 l 1,75,-1
 507 -62 l 1,76,-1
 507 -62 l 1,48,49
351 -90 m 0,77,78
 351 -81 351 -81 348 -67.5 c 128,-1,79
 345 -54 345 -54 332 -54 c 0,80,81
 318 -54 318 -54 312.5 -68.5 c 128,-1,82
 307 -83 307 -83 307 -94 c 0,83,84
 307 -103 307 -103 311.5 -115.5 c 128,-1,85
 316 -128 316 -128 327 -128 c 0,86,87
 340 -128 340 -128 345.5 -114 c 128,-1,88
 351 -100 351 -100 351 -90 c 0,77,78
161 56 m 256,89,90
 161 70 161 70 154 85 c 128,-1,91
 147 100 147 100 130 100 c 0,92,93
 116 100 116 100 108.5 88 c 128,-1,94
 101 76 101 76 101 64 c 256,95,96
 101 52 101 52 109.5 37 c 128,-1,97
 118 22 118 22 132 22 c 256,98,99
 146 22 146 22 153.5 32 c 128,-1,100
 161 42 161 42 161 56 c 256,89,90
EndSplineSet
Substitution: 0 65534 'L019' uni0E0D.alt1
Substitution: 0 65534 'L019' uni0E0D.alt1
EndChar
StartChar: uni0E0E
Encoding: 3598 3598 145
Width: 445
Flags: W
Fore
197 301 m 1,0,-1
 197 274 l 1,1,2
 169 263 169 263 162.5 244.5 c 128,-1,3
 156 226 156 226 156 199 c 2,4,-1
 156 98 l 2,5,6
 156 76 156 76 153 58 c 128,-1,7
 150 40 150 40 142 26.5 c 128,-1,8
 134 13 134 13 118.5 5.5 c 128,-1,9
 103 -2 103 -2 78 -2 c 0,10,11
 47 -2 47 -2 26.5 11 c 128,-1,12
 6 24 6 24 6 59 c 0,13,14
 6 88 6 88 22.5 105.5 c 128,-1,15
 39 123 39 123 68 123 c 0,16,17
 83 123 83 123 96 115 c 1,18,-1
 96 202 l 2,19,20
 96 225 96 225 107 242.5 c 128,-1,21
 118 260 118 260 136 272 c 1,22,-1
 54 272 l 1,23,-1
 54 311 l 1,24,25
 68 328 68 328 88.5 341.5 c 128,-1,26
 109 355 109 355 133 364 c 128,-1,27
 157 373 157 373 181.5 378 c 128,-1,28
 206 383 206 383 227 383 c 0,29,30
 265 383 265 383 296.5 377 c 128,-1,31
 328 371 328 371 351 355.5 c 128,-1,32
 374 340 374 340 386.5 313 c 128,-1,33
 399 286 399 286 399 243 c 2,34,-1
 399 -167 l 1,35,-1
 339 -167 l 1,36,-1
 252 -116 l 1,37,38
 244 -142 244 -142 220.5 -154.5 c 128,-1,39
 197 -167 197 -167 171 -167 c 0,40,41
 159 -167 159 -167 145 -164 c 128,-1,42
 131 -161 131 -161 119 -154.5 c 128,-1,43
 107 -148 107 -148 99 -137.5 c 128,-1,44
 91 -127 91 -127 91 -112 c 0,45,46
 91 -82 91 -82 112 -67.5 c 128,-1,47
 133 -53 133 -53 162 -53 c 0,48,49
 173 -53 173 -53 183.5 -55.5 c 128,-1,50
 194 -58 194 -58 205 -61 c 1,51,-1
 205 -25 l 1,52,-1
 236 -6 l 1,53,-1
 261 -6 l 1,54,-1
 261 -41 l 2,55,56
 261 -59 l 128,-1,57
 261 -68 261 -68 259 -77 c 1,58,59
 279 -89 279 -89 298.5 -99.5 c 128,-1,60
 318 -110 318 -110 338 -121 c 1,61,-1
 338 247 l 2,62,63
 338 298 338 298 312.5 326 c 128,-1,64
 287 354 287 354 235 354 c 0,65,66
 198 354 198 354 158 340 c 128,-1,67
 118 326 118 326 96 301 c 1,68,-1
 142 301 l 1,69,-1
 197 301 l 1,0,-1
100 62 m 2,70,71
 100 72 100 72 93.5 84.5 c 128,-1,72
 87 97 87 97 76 97 c 0,73,74
 61 97 61 97 55 83 c 128,-1,75
 49 69 49 69 49 57 c 256,76,77
 49 45 49 45 56.5 31.5 c 128,-1,78
 64 18 64 18 78 18 c 256,79,80
 92 18 92 18 96 30.5 c 128,-1,81
 100 43 100 43 100 54 c 2,82,-1
 100 62 l 2,70,71
201 -99 m 0,83,84
 201 -96 201 -96 196.5 -93.5 c 128,-1,85
 192 -91 192 -91 186 -88.5 c 128,-1,86
 180 -86 180 -86 174.5 -85 c 128,-1,87
 169 -84 169 -84 166 -84 c 0,88,89
 155 -84 155 -84 147.5 -91.5 c 128,-1,90
 140 -99 140 -99 140 -111 c 0,91,92
 140 -124 140 -124 148 -131.5 c 128,-1,93
 156 -139 156 -139 168 -139 c 0,94,95
 187 -139 187 -139 194 -127.5 c 128,-1,96
 201 -116 201 -116 201 -99 c 0,83,84
EndSplineSet
Substitution: 0 65534 'L019' uni0E0E.alt1
Substitution: 0 65534 'L019' uni0E0E.alt1
EndChar
StartChar: uni0E0F
Encoding: 3599 3599 146
Width: 443
Flags: W
Fore
93 208 m 2,0,1
 93 228 93 228 103 244 c 128,-1,2
 113 260 113 260 129 271 c 1,3,-1
 53 271 l 1,4,-1
 53 314 l 1,5,6
 85 349 85 349 133.5 367.5 c 128,-1,7
 182 386 182 386 229 386 c 0,8,9
 248 386 248 386 270.5 383 c 128,-1,10
 293 380 293 380 315 373 c 128,-1,11
 337 366 337 366 355.5 354.5 c 128,-1,12
 374 343 374 343 384 325 c 0,13,14
 394 308 394 308 395.5 287 c 128,-1,15
 397 266 397 266 397 247 c 2,16,-1
 397 -165 l 1,17,-1
 333 -165 l 1,18,-1
 285 -120 l 1,19,-1
 250 -165 l 1,20,-1
 220 -165 l 1,21,22
 213 -156 213 -156 206 -148 c 128,-1,23
 199 -140 199 -140 191 -132 c 1,24,25
 177 -155 177 -155 152.5 -163.5 c 128,-1,26
 128 -172 128 -172 104 -172 c 0,27,28
 78 -172 78 -172 55.5 -157 c 128,-1,29
 33 -142 33 -142 33 -113 c 256,30,31
 33 -84 33 -84 53 -70.5 c 128,-1,32
 73 -57 73 -57 99 -57 c 0,33,34
 116 -57 116 -57 135 -62 c 128,-1,35
 154 -67 154 -67 169 -77 c 1,36,-1
 169 -37 l 1,37,-1
 203 -21 l 1,38,-1
 225 -21 l 1,39,-1
 225 -36 l 2,40,41
 225 -51 225 -51 220 -70.5 c 128,-1,42
 215 -90 215 -90 207 -103 c 1,43,-1
 225 -121 l 1,44,-1
 275 -64 l 1,45,-1
 335 -120 l 1,46,-1
 335 265 l 2,47,48
 335 289 335 289 326.5 306 c 128,-1,49
 318 323 318 323 303 333.5 c 128,-1,50
 288 344 288 344 268.5 349 c 128,-1,51
 249 354 249 354 228 354 c 0,52,53
 190 354 190 354 154.5 342.5 c 128,-1,54
 119 331 119 331 93 302 c 1,55,-1
 195 302 l 1,56,-1
 195 275 l 1,57,58
 170 264 170 264 162.5 241 c 128,-1,59
 155 218 155 218 155 194 c 2,60,-1
 155 97 l 2,61,62
 155 76 155 76 152 58 c 128,-1,63
 149 40 149 40 141 26.5 c 128,-1,64
 133 13 133 13 118 5.5 c 128,-1,65
 103 -2 103 -2 79 -2 c 0,66,67
 50 -2 50 -2 26.5 14 c 128,-1,68
 3 30 3 30 3 63 c 0,69,70
 3 95 3 95 25 109.5 c 128,-1,71
 47 124 47 124 79 124 c 1,72,-1
 93 119 l 1,73,-1
 93 208 l 2,0,1
100 62 m 2,74,75
 100 72 100 72 93.5 84.5 c 128,-1,76
 87 97 87 97 76 97 c 0,77,78
 61 97 61 97 55 83 c 128,-1,79
 49 69 49 69 49 57 c 256,80,81
 49 45 49 45 56.5 31.5 c 128,-1,82
 64 18 64 18 78 18 c 256,83,84
 92 18 92 18 96 30.5 c 128,-1,85
 100 43 100 43 100 54 c 2,86,-1
 100 62 l 2,74,75
160 -109 m 1,87,88
 148 -99 148 -99 135 -93.5 c 128,-1,89
 122 -88 122 -88 106 -88 c 0,90,91
 78 -88 78 -88 78 -116 c 0,92,93
 78 -130 78 -130 88 -135.5 c 128,-1,94
 98 -141 98 -141 110 -141 c 0,95,96
 128 -141 128 -141 139 -131.5 c 128,-1,97
 150 -122 150 -122 160 -109 c 1,87,88
EndSplineSet
Substitution: 0 65534 'L019' uni0E0F.alt1
Substitution: 0 65534 'L019' uni0E0F.alt1
EndChar
StartChar: uni0E10
Encoding: 3600 3600 147
Width: 374
Flags: W
Fore
354 315 m 1,0,1
 346 311 346 311 337 310 c 128,-1,2
 328 309 328 309 318 309 c 0,3,4
 292 309 292 309 267.5 315 c 128,-1,5
 243 321 243 321 220 331 c 0,6,7
 210 336 210 336 202.5 340.5 c 128,-1,8
 195 345 195 345 187.5 349 c 128,-1,9
 180 353 180 353 171 355 c 128,-1,10
 162 357 162 357 150 357 c 0,11,12
 127 357 127 357 108 338.5 c 128,-1,13
 89 320 89 320 81 300 c 1,14,-1
 93 300 l 2,15,16
 118 300 118 300 153 299 c 128,-1,17
 188 298 188 298 222 292.5 c 128,-1,18
 256 287 256 287 284.5 275.5 c 128,-1,19
 313 264 313 264 324 244 c 0,20,21
 329 234 329 234 330 224 c 128,-1,22
 331 214 331 214 331 203 c 0,23,24
 331 177 331 177 326.5 152 c 128,-1,25
 322 127 322 127 316.5 101.5 c 128,-1,26
 311 76 311 76 305.5 51 c 128,-1,27
 300 26 300 26 298 0 c 1,28,-1
 225 0 l 1,29,-1
 161 143 l 1,30,31
 153 131 153 131 141.5 122 c 128,-1,32
 130 113 130 113 115 113 c 0,33,34
 89 113 89 113 69.5 127 c 128,-1,35
 50 141 50 141 50 170 c 0,36,37
 50 202 50 202 70.5 217 c 128,-1,38
 91 232 91 232 121 232 c 0,39,40
 152 232 152 232 168.5 213.5 c 128,-1,41
 185 195 185 195 196 169 c 2,42,-1
 252 40 l 1,43,44
 261 82 261 82 268.5 121.5 c 128,-1,45
 276 161 276 161 276 203 c 0,46,47
 276 229 276 229 260 245 c 0,48,49
 252 254 252 254 227 258.5 c 128,-1,50
 202 263 202 263 173 265.5 c 128,-1,51
 144 268 144 268 116.5 268.5 c 128,-1,52
 89 269 89 269 77 269 c 0,53,54
 60 269 60 269 42.5 268 c 128,-1,55
 25 267 25 267 8 265 c 1,56,57
 25 323 25 323 57.5 355 c 128,-1,58
 90 387 90 387 153 387 c 0,59,60
 171 387 171 387 186.5 382 c 128,-1,61
 202 377 202 377 217 371 c 128,-1,62
 232 365 232 365 247 360 c 128,-1,63
 262 355 262 355 278 355 c 0,64,65
 298 355 298 355 317 362 c 128,-1,66
 336 369 336 369 354 378 c 1,67,-1
 354 315 l 1,68,-1
 354 315 l 1,0,1
142 173 m 256,69,70
 142 184 142 184 135 196 c 128,-1,71
 128 208 128 208 115 208 c 0,72,73
 101 208 101 208 96 196.5 c 128,-1,74
 91 185 91 185 91 174 c 256,75,76
 91 163 91 163 97 151 c 128,-1,77
 103 139 103 139 116 139 c 0,78,79
 128 139 128 139 135 150.5 c 128,-1,80
 142 162 142 162 142 173 c 256,69,70
315 -92 m 1,81,82
 315 -99 315 -99 314.5 -110 c 128,-1,83
 314 -121 314 -121 312 -132.5 c 128,-1,84
 310 -144 310 -144 305.5 -153 c 128,-1,85
 301 -162 301 -162 293 -165 c 0,86,87
 287 -167 287 -167 278.5 -168 c 128,-1,88
 270 -169 270 -169 262 -169 c 2,89,-1
 219 -169 l 1,90,-1
 185 -133 l 1,91,92
 176 -143 176 -143 170.5 -149 c 128,-1,93
 165 -155 165 -155 156 -166 c 1,94,-1
 124 -130 l 1,95,96
 117 -144 117 -144 98.5 -158.5 c 128,-1,97
 80 -173 80 -173 62 -173 c 0,98,99
 36 -173 36 -173 20 -156 c 128,-1,100
 4 -139 4 -139 4 -113 c 0,101,102
 4 -91 4 -91 18.5 -77 c 128,-1,103
 33 -63 33 -63 55 -63 c 0,104,105
 67 -63 67 -63 81.5 -67.5 c 128,-1,106
 96 -72 96 -72 104 -81 c 1,107,108
 105 -78 105 -78 105.5 -74.5 c 128,-1,109
 106 -71 106 -71 107 -68 c 0,110,111
 108 -66 108 -66 108 -62 c 128,-1,112
 108 -54 l 256,113,114
 108 -50 108 -50 109 -46 c 1,115,-1
 140 -28 l 1,116,-1
 159 -28 l 1,117,-1
 159 -33 l 2,118,119
 159 -47 159 -47 151 -68 c 128,-1,120
 143 -89 143 -89 136 -102 c 1,121,-1
 151 -117 l 1,122,123
 157 -109 157 -109 164.5 -101.5 c 128,-1,124
 172 -94 172 -94 179 -86 c 1,125,126
 182 -89 182 -89 190.5 -98 c 128,-1,127
 199 -107 199 -107 208.5 -116 c 128,-1,128
 218 -125 218 -125 226 -132.5 c 128,-1,129
 234 -140 234 -140 237 -140 c 2,130,-1
 251 -140 l 2,131,132
 263 -140 263 -140 268 -134 c 1,133,-1
 271 -115 l 1,134,135
 269 -115 269 -115 266 -115.5 c 128,-1,136
 263 -116 263 -116 261 -116 c 0,137,138
 241 -116 241 -116 224.5 -105.5 c 128,-1,139
 208 -95 208 -95 208 -72 c 256,140,141
 208 -49 208 -49 222.5 -40 c 128,-1,142
 237 -31 237 -31 257 -31 c 0,143,144
 275 -31 275 -31 295 -40.5 c 128,-1,145
 315 -50 315 -50 315 -71 c 2,146,-1
 315 -92 l 1,147,-1
 315 -92 l 1,81,82
279 -72 m 0,148,149
 279 -64 279 -64 275 -57 c 128,-1,150
 271 -50 271 -50 262 -50 c 0,151,152
 251 -50 251 -50 247 -57.5 c 128,-1,153
 243 -65 243 -65 243 -75 c 0,154,155
 243 -83 243 -83 248.5 -89 c 128,-1,156
 254 -95 254 -95 262 -95 c 256,157,158
 270 -95 270 -95 274.5 -88.5 c 128,-1,159
 279 -82 279 -82 279 -72 c 0,148,149
95 -116 m 0,160,161
 96 -111 96 -111 92.5 -107 c 128,-1,162
 89 -103 89 -103 83.5 -100 c 128,-1,163
 78 -97 78 -97 72 -95 c 128,-1,164
 66 -93 66 -93 62 -93 c 0,165,166
 52 -93 52 -93 45.5 -99.5 c 128,-1,167
 39 -106 39 -106 39 -116 c 0,168,169
 39 -127 39 -127 43.5 -136 c 128,-1,170
 48 -145 48 -145 64 -144 c 256,171,172
 80 -143 80 -143 86.5 -135 c 128,-1,173
 93 -127 93 -127 95 -116 c 0,160,161
EndSplineSet
Substitution: 0 65534 'L019' uni0E10.alt1
Substitution: 0 65534 'L019' uni0E10.alt1
EndChar
StartChar: uni0E11
Encoding: 3601 3601 148
Width: 492
Flags: W
Fore
278 210 m 0,0,1
 261 168 261 168 246.5 131.5 c 128,-1,2
 232 95 232 95 215 56 c 0,3,4
 213 52 213 52 209.5 44 c 128,-1,5
 206 36 206 36 202 27.5 c 128,-1,6
 198 19 198 19 195 11 c 128,-1,7
 192 3 192 3 192 0 c 1,8,-1
 130 0 l 1,9,-1
 130 151 l 2,10,11
 130 171 130 171 141 190 c 128,-1,12
 152 209 152 209 164.5 228.5 c 128,-1,13
 177 248 177 248 188 268.5 c 128,-1,14
 199 289 199 289 199 311 c 0,15,16
 199 320 199 320 196.5 333.5 c 128,-1,17
 194 347 194 347 182 347 c 0,18,19
 172 347 172 347 165 342 c 128,-1,20
 158 337 158 337 151.5 331 c 128,-1,21
 145 325 145 325 137.5 320 c 128,-1,22
 130 315 130 315 120 315 c 0,23,24
 113 315 113 315 104.5 319.5 c 128,-1,25
 96 324 96 324 87.5 330 c 128,-1,26
 79 336 79 336 71 342 c 128,-1,27
 63 348 63 348 57 352 c 1,28,29
 52 348 52 348 49 340.5 c 128,-1,30
 46 333 46 333 46 327 c 256,31,32
 46 321 46 321 46 316.5 c 128,-1,33
 46 312 46 312 47 304 c 0,34,35
 47 300 47 300 48.5 296 c 128,-1,36
 50 292 50 292 51 288 c 1,37,38
 59 299 59 299 68 302.5 c 128,-1,39
 77 306 77 306 91 306 c 0,40,41
 113 306 113 306 125.5 294.5 c 128,-1,42
 138 283 138 283 138 260 c 0,43,44
 138 207 138 207 85 207 c 0,45,46
 65 207 65 207 50.5 217 c 128,-1,47
 36 227 36 227 26.5 242 c 128,-1,48
 17 257 17 257 12.5 275.5 c 128,-1,49
 8 294 8 294 8 311 c 0,50,51
 8 339 8 339 19 361 c 128,-1,52
 30 383 30 383 62 383 c 0,53,54
 71 383 71 383 80 378 c 128,-1,55
 89 373 89 373 96.5 367.5 c 128,-1,56
 104 362 104 362 110 357 c 128,-1,57
 116 352 116 352 120 352 c 0,58,59
 122 352 122 352 128 357 c 128,-1,60
 134 362 134 362 142.5 367.5 c 128,-1,61
 151 373 151 373 161 378 c 128,-1,62
 171 383 171 383 181 383 c 0,63,64
 210 383 210 383 228.5 363 c 128,-1,65
 247 343 247 343 247 313 c 0,66,67
 247 294 247 294 238.5 275 c 128,-1,68
 230 256 230 256 219.5 236 c 128,-1,69
 209 216 209 216 200 194 c 128,-1,70
 191 172 191 172 191 147 c 2,71,-1
 191 76 l 1,72,73
 202 108 202 108 216 139 c 128,-1,74
 230 170 230 170 242 202 c 0,75,76
 255 237 255 237 269 272 c 128,-1,77
 283 307 283 307 297 341 c 2,78,-1
 302 353 l 2,79,80
 309 367 309 367 322 375 c 128,-1,81
 335 383 335 383 351 383 c 0,82,83
 368 383 368 383 385 380 c 128,-1,84
 402 377 402 377 415.5 369.5 c 128,-1,85
 429 362 429 362 437.5 348.5 c 128,-1,86
 446 335 446 335 446 315 c 2,87,-1
 446 33 l 1,88,-1
 413 0 l 1,89,-1
 384 0 l 1,90,-1
 384 308 l 2,91,92
 384 322 384 322 374 336.5 c 128,-1,93
 364 351 364 351 351 351 c 0,94,95
 339 351 339 351 329 333 c 0,96,97
 315 305 315 305 302 271 c 128,-1,98
 289 237 289 237 278 210 c 0,0,1
105 255 m 256,99,100
 105 266 105 266 100.5 274 c 128,-1,101
 96 282 96 282 83 282 c 0,102,103
 74 282 74 282 67.5 275 c 128,-1,104
 61 268 61 268 61 259 c 0,105,106
 61 248 61 248 66 237 c 128,-1,107
 71 226 71 226 84 226 c 0,108,109
 98 226 98 226 101.5 235 c 128,-1,110
 105 244 105 244 105 255 c 256,99,100
EndSplineSet
EndChar
StartChar: uni0E12
Encoding: 3602 3602 149
Width: 545
Flags: W
Fore
443 0 m 1,0,-1
 353 83 l 1,1,2
 353 67 353 67 352 51 c 128,-1,3
 351 35 351 35 346 22.5 c 128,-1,4
 341 10 341 10 329.5 2.5 c 128,-1,5
 318 -5 318 -5 297 -5 c 0,6,7
 264 -5 264 -5 245.5 7.5 c 128,-1,8
 227 20 227 20 227 56 c 0,9,10
 227 89 227 89 247.5 106 c 128,-1,11
 268 123 268 123 297 131 c 1,12,-1
 297 267 l 2,13,14
 297 278 297 278 295.5 290 c 128,-1,15
 294 302 294 302 290 312.5 c 128,-1,16
 286 323 286 323 278 331.5 c 128,-1,17
 270 340 270 340 258 343 c 1,18,19
 249 341 249 341 240.5 335 c 128,-1,20
 232 329 232 329 223 323 c 128,-1,21
 214 317 214 317 205.5 312.5 c 128,-1,22
 197 308 197 308 189 308 c 0,23,24
 177 308 177 308 166.5 314 c 128,-1,25
 156 320 156 320 146.5 327.5 c 128,-1,26
 137 335 137 335 128.5 341 c 128,-1,27
 120 347 120 347 111 347 c 0,28,29
 97 347 97 347 85 340 c 128,-1,30
 73 333 73 333 64.5 321.5 c 128,-1,31
 56 310 56 310 51.5 296.5 c 128,-1,32
 47 283 47 283 47 270 c 0,33,34
 47 241 47 241 56 222.5 c 128,-1,35
 65 204 65 204 77 188.5 c 128,-1,36
 89 173 89 173 99.5 156.5 c 128,-1,37
 110 140 110 140 113 116 c 1,38,-1
 114 116 l 1,39,40
 125 128 125 128 139 137.5 c 128,-1,41
 153 147 153 147 161 160 c 1,42,43
 138 162 138 162 122.5 180 c 128,-1,44
 107 198 107 198 107 220 c 0,45,46
 107 247 107 247 126.5 263 c 128,-1,47
 146 279 146 279 172 279 c 256,48,49
 198 279 198 279 217.5 265.5 c 128,-1,50
 237 252 237 252 237 223 c 0,51,52
 237 197 237 197 219 173.5 c 128,-1,53
 201 150 201 150 179 129 c 128,-1,54
 157 108 157 108 139 90 c 128,-1,55
 121 72 121 72 121 56 c 2,56,-1
 121 0 l 1,57,-1
 62 0 l 1,58,-1
 62 123 l 2,59,60
 62 128 62 128 57.5 136.5 c 128,-1,61
 53 145 53 145 47 154 c 128,-1,62
 41 163 41 163 35.5 171.5 c 128,-1,63
 30 180 30 180 27 186 c 0,64,65
 19 203 19 203 13.5 221 c 128,-1,66
 8 239 8 239 8 258 c 0,67,68
 8 279 8 279 15 301 c 128,-1,69
 22 323 22 323 35 341 c 128,-1,70
 48 359 48 359 66.5 370 c 128,-1,71
 85 381 85 381 109 381 c 0,72,73
 123 381 123 381 134.5 376 c 128,-1,74
 146 371 146 371 156 365 c 128,-1,75
 166 359 166 359 173.5 354 c 128,-1,76
 181 349 181 349 186 349 c 256,77,78
 191 349 191 349 199 353 c 128,-1,79
 207 357 207 357 215 362.5 c 128,-1,80
 223 368 223 368 230.5 373.5 c 128,-1,81
 238 379 238 379 242 382 c 1,82,83
 293 382 293 382 325 350.5 c 128,-1,84
 357 319 357 319 357 268 c 2,85,-1
 357 126 l 1,86,87
 377 109 377 109 397.5 92.5 c 128,-1,88
 418 76 418 76 438 59 c 1,89,-1
 438 347 l 1,90,-1
 475 380 l 1,91,-1
 499 380 l 1,92,-1
 499 0 l 1,93,-1
 443 0 l 1,0,-1
203 223 m 0,94,95
 203 237 203 237 194.5 246.5 c 128,-1,96
 186 256 186 256 172 256 c 256,97,98
 158 256 158 256 150.5 245 c 128,-1,99
 143 234 143 234 143 221 c 256,100,101
 143 208 143 208 151.5 196.5 c 128,-1,102
 160 185 160 185 174 185 c 256,103,104
 188 185 188 185 195.5 198 c 128,-1,105
 203 211 203 211 203 223 c 0,94,95
297 100 m 1,106,107
 279 92 279 92 272.5 83.5 c 128,-1,108
 266 75 266 75 266 55 c 0,109,110
 266 44 266 44 274 32 c 128,-1,111
 282 20 282 20 297 18 c 1,112,-1
 297 100 l 1,113,-1
 297 100 l 1,106,107
EndSplineSet
EndChar
StartChar: uni0E13
Encoding: 3603 3603 150
Width: 554
Flags: W
Fore
528 54 m 0,0,1
 528 25 528 25 510.5 11 c 128,-1,2
 493 -3 493 -3 466 -3 c 0,3,4
 440 -3 440 -3 421.5 10 c 128,-1,5
 403 23 403 23 403 51 c 0,6,7
 403 57 403 57 405 67 c 1,8,9
 396 62 396 62 384 54.5 c 128,-1,10
 372 47 372 47 360.5 38 c 128,-1,11
 349 29 349 29 340 19.5 c 128,-1,12
 331 10 331 10 327 0 c 1,13,-1
 274 0 l 1,14,-1
 274 253 l 2,15,16
 274 301 274 301 252.5 328 c 128,-1,17
 231 355 231 355 181 355 c 0,18,19
 142 355 142 355 107.5 340.5 c 128,-1,20
 73 326 73 326 44 300 c 1,21,-1
 146 300 l 1,22,-1
 146 275 l 1,23,24
 128 264 128 264 114.5 247 c 128,-1,25
 101 230 101 230 101 208 c 2,26,-1
 101 113 l 1,27,28
 109 115 109 115 116.5 118 c 128,-1,29
 124 121 124 121 132 121 c 0,30,31
 163 121 163 121 180.5 106 c 128,-1,32
 198 91 198 91 198 59 c 0,33,34
 198 23 198 23 176.5 10.5 c 128,-1,35
 155 -2 155 -2 124 -2 c 0,36,37
 112 -2 112 -2 97.5 2.5 c 128,-1,38
 83 7 83 7 70.5 15 c 128,-1,39
 58 23 58 23 49.5 34.5 c 128,-1,40
 41 46 41 46 41 60 c 2,41,-1
 41 188 l 2,42,43
 41 213 41 213 52 235.5 c 128,-1,44
 63 258 63 258 84 272 c 1,45,-1
 8 272 l 1,46,-1
 8 318 l 1,47,48
 31 334 31 334 51.5 346.5 c 128,-1,49
 72 359 72 359 93 368 c 128,-1,50
 114 377 114 377 137 381.5 c 128,-1,51
 160 386 160 386 189 386 c 256,52,53
 218 386 218 386 244 380 c 128,-1,54
 270 374 270 374 290 360.5 c 128,-1,55
 310 347 310 347 322 324.5 c 128,-1,56
 334 302 334 302 334 270 c 2,57,-1
 334 63 l 1,58,59
 349 74 349 74 364.5 83 c 128,-1,60
 380 92 380 92 397 100 c 0,61,62
 406 104 406 104 416 108 c 128,-1,63
 426 112 426 112 433 119 c 0,64,65
 441 127 441 127 443.5 136.5 c 128,-1,66
 446 146 446 146 446 157 c 2,67,-1
 446 350 l 1,68,-1
 480 380 l 1,69,-1
 506 380 l 1,70,-1
 506 145 l 2,71,72
 506 134 506 134 500 125.5 c 128,-1,73
 494 117 494 117 486 110 c 1,74,75
 528 96 528 96 528 54 c 0,0,1
492 51 m 0,76,77
 492 61 492 61 488.5 73.5 c 128,-1,78
 485 86 485 86 472 86 c 0,79,80
 455 86 455 86 449.5 75 c 128,-1,81
 444 64 444 64 444 50 c 0,82,83
 444 40 444 40 451 29 c 128,-1,84
 458 18 458 18 469 18 c 0,85,86
 479 18 479 18 485.5 30.5 c 128,-1,87
 492 43 492 43 492 51 c 0,76,77
158 56 m 0,88,89
 158 68 158 68 150.5 81 c 128,-1,90
 143 94 143 94 129 94 c 256,91,92
 115 94 115 94 105 84 c 128,-1,93
 95 74 95 74 95 60 c 256,94,95
 95 46 95 46 103.5 33.5 c 128,-1,96
 112 21 112 21 128 21 c 0,97,98
 142 21 142 21 150 32 c 128,-1,99
 158 43 158 43 158 56 c 0,88,89
EndSplineSet
EndChar
StartChar: uni0E14
Encoding: 3604 3604 151
Width: 399
Flags: W
Fore
320 0 m 1,0,-1
 292 0 l 1,1,-1
 292 260 l 2,2,3
 292 287 292 287 282 305.5 c 128,-1,4
 272 324 272 324 255.5 334.5 c 128,-1,5
 239 345 239 345 217.5 349.5 c 128,-1,6
 196 354 196 354 172 354 c 0,7,8
 149 354 149 354 128 347.5 c 128,-1,9
 107 341 107 341 90.5 328.5 c 128,-1,10
 74 316 74 316 64 297 c 128,-1,11
 54 278 54 278 54 254 c 2,12,-1
 54 239 l 2,13,14
 54 226 54 226 63 211 c 128,-1,15
 72 196 72 196 82.5 181 c 128,-1,16
 93 166 93 166 102 151 c 128,-1,17
 111 136 111 136 111 123 c 0,18,19
 111 118 111 118 110 115 c 1,20,21
 121 125 121 125 135.5 136.5 c 128,-1,22
 150 148 150 148 159 160 c 1,23,24
 136 162 136 162 120.5 180.5 c 128,-1,25
 105 199 105 199 105 221 c 0,26,27
 105 249 105 249 126 265 c 128,-1,28
 147 281 147 281 173 281 c 0,29,30
 200 281 200 281 218 265.5 c 128,-1,31
 236 250 236 250 236 222 c 0,32,33
 236 197 236 197 217.5 173 c 128,-1,34
 199 149 199 149 177.5 127.5 c 128,-1,35
 156 106 156 106 137.5 87.5 c 128,-1,36
 119 69 119 69 119 53 c 2,37,-1
 119 0 l 1,38,-1
 60 0 l 1,39,-1
 60 124 l 2,40,41
 60 129 60 129 56 137 c 128,-1,42
 52 145 52 145 47 153.5 c 128,-1,43
 42 162 42 162 37 170 c 128,-1,44
 32 178 32 178 29 184 c 0,45,46
 22 200 22 200 18 217 c 128,-1,47
 14 234 14 234 14 251 c 0,48,49
 14 283 14 283 28 307.5 c 128,-1,50
 42 332 42 332 64.5 348.5 c 128,-1,51
 87 365 87 365 115.5 373.5 c 128,-1,52
 144 382 144 382 172 382 c 0,53,54
 204 382 204 382 236 377.5 c 128,-1,55
 268 373 268 373 294 360 c 128,-1,56
 320 347 320 347 336.5 322.5 c 128,-1,57
 353 298 353 298 353 259 c 2,58,-1
 353 30 l 1,59,-1
 320 0 l 1,0,-1
201 223 m 0,60,61
 201 238 201 238 194.5 249 c 128,-1,62
 188 260 188 260 171 260 c 0,63,64
 157 260 157 260 148.5 247 c 128,-1,65
 140 234 140 234 140 221 c 256,66,67
 140 208 140 208 149.5 195.5 c 128,-1,68
 159 183 159 183 173 183 c 256,69,70
 187 183 187 183 194 197 c 128,-1,71
 201 211 201 211 201 223 c 0,60,61
EndSplineSet
EndChar
StartChar: uni0E15
Encoding: 3605 3605 152
Width: 418
Flags: W
Fore
337 0 m 1,0,-1
 311 0 l 1,1,-1
 311 261 l 2,2,3
 311 273 311 273 310 287 c 128,-1,4
 309 301 309 301 304.5 313 c 128,-1,5
 300 325 300 325 291 333 c 128,-1,6
 282 341 282 341 266 341 c 1,7,-1
 261 338 l 1,8,9
 258 335 258 335 256 334 c 2,10,-1
 252 331 l 1,11,12
 241 325 241 325 231 320.5 c 128,-1,13
 221 316 221 316 209 316 c 0,14,15
 196 316 196 316 186 321 c 128,-1,16
 176 326 176 326 167.5 332 c 128,-1,17
 159 338 159 338 150.5 343 c 128,-1,18
 142 348 142 348 132 348 c 0,19,20
 128 348 128 348 122 344.5 c 128,-1,21
 116 341 116 341 113 339 c 0,22,23
 95 326 95 326 81 308 c 128,-1,24
 67 290 67 290 67 267 c 0,25,26
 67 238 67 238 75 220 c 128,-1,27
 83 202 83 202 93 187 c 128,-1,28
 103 172 103 172 112.5 156 c 128,-1,29
 122 140 122 140 125 116 c 1,30,-1
 126 116 l 1,31,32
 130 121 130 121 137.5 127 c 128,-1,33
 145 133 145 133 153 139 c 128,-1,34
 161 145 161 145 167.5 150.5 c 128,-1,35
 174 156 174 156 176 160 c 1,36,37
 153 162 153 162 136 180 c 128,-1,38
 119 198 119 198 119 221 c 0,39,40
 119 249 119 249 138.5 264.5 c 128,-1,41
 158 280 158 280 184 280 c 0,42,43
 211 280 211 280 230 266 c 128,-1,44
 249 252 249 252 249 223 c 0,45,46
 249 198 249 198 231 174.5 c 128,-1,47
 213 151 213 151 191 130 c 128,-1,48
 169 109 169 109 151 90.5 c 128,-1,49
 133 72 133 72 133 56 c 2,50,-1
 133 0 l 1,51,-1
 74 0 l 1,52,-1
 74 124 l 2,53,54
 74 129 74 129 70.5 137.5 c 128,-1,55
 67 146 67 146 62.5 155 c 128,-1,56
 58 164 58 164 53 172 c 128,-1,57
 48 180 48 180 46 186 c 0,58,59
 39 203 39 203 34.5 222 c 128,-1,60
 30 241 30 241 30 260 c 0,61,62
 30 298 30 298 54 327.5 c 128,-1,63
 78 357 78 357 112 371 c 0,64,65
 115 373 115 373 126 376.5 c 128,-1,66
 137 380 137 380 139 380 c 0,67,68
 149 380 149 380 157.5 376 c 128,-1,69
 166 372 166 372 174 366.5 c 128,-1,70
 182 361 182 361 190 357 c 128,-1,71
 198 353 198 353 207 353 c 0,72,73
 221 353 221 353 232 358 c 128,-1,74
 243 363 243 363 251.5 369.5 c 128,-1,75
 260 376 260 376 266.5 381 c 128,-1,76
 273 386 273 386 279 386 c 0,77,78
 287 386 287 386 294.5 383 c 128,-1,79
 302 380 302 380 309 375 c 0,80,81
 343 354 343 354 357.5 328.5 c 128,-1,82
 372 303 372 303 372 263 c 2,83,-1
 372 32 l 1,84,-1
 337 0 l 1,0,-1
215 223 m 0,85,86
 215 237 215 237 207.5 248.5 c 128,-1,87
 200 260 200 260 185 260 c 0,88,89
 171 260 171 260 162.5 247 c 128,-1,90
 154 234 154 234 154 221 c 256,91,92
 154 208 154 208 163 195.5 c 128,-1,93
 172 183 172 183 186 183 c 256,94,95
 200 183 200 183 207.5 197 c 128,-1,96
 215 211 215 211 215 223 c 0,85,86
EndSplineSet
EndChar
StartChar: uni0E16
Encoding: 3606 3606 153
Width: 416
Flags: W
Fore
339 0 m 1,0,-1
 310 0 l 1,1,-1
 310 263 l 2,2,3
 310 286 310 286 301.5 303 c 128,-1,4
 293 320 293 320 278 331 c 128,-1,5
 263 342 263 342 244 347.5 c 128,-1,6
 225 353 225 353 204 353 c 0,7,8
 185 353 185 353 163.5 350 c 128,-1,9
 142 347 142 347 121 340.5 c 128,-1,10
 100 334 100 334 81.5 323 c 128,-1,11
 63 312 63 312 51 296 c 1,12,-1
 152 296 l 1,13,-1
 152 270 l 1,14,15
 132 258 132 258 119 246 c 128,-1,16
 106 234 106 234 106 208 c 2,17,-1
 106 116 l 1,18,19
 121 127 121 127 143 127 c 0,20,21
 170 127 170 127 186 108 c 128,-1,22
 202 89 202 89 202 63 c 0,23,24
 202 25 202 25 181 11.5 c 128,-1,25
 160 -2 160 -2 127 -2 c 0,26,27
 112 -2 112 -2 97.5 3.5 c 128,-1,28
 83 9 83 9 71.5 18.5 c 128,-1,29
 60 28 60 28 53 41 c 128,-1,30
 46 54 46 54 46 69 c 2,31,-1
 46 204 l 2,32,33
 46 224 46 224 60 239.5 c 128,-1,34
 74 255 74 255 88 266 c 1,35,-1
 8 266 l 1,36,-1
 8 312 l 1,37,38
 18 320 18 320 27 327.5 c 128,-1,39
 36 335 36 335 47 342 c 0,40,41
 79 362 79 362 118.5 374 c 128,-1,42
 158 386 158 386 196 386 c 0,43,44
 216 386 216 386 239 383 c 128,-1,45
 262 380 262 380 284.5 373.5 c 128,-1,46
 307 367 307 367 326.5 355 c 128,-1,47
 346 343 346 343 357 325 c 0,48,49
 365 311 365 311 367.5 295 c 128,-1,50
 370 279 370 279 370 264 c 2,51,-1
 370 35 l 1,52,-1
 339 0 l 1,0,-1
162 65 m 0,53,54
 162 80 162 80 154.5 90 c 128,-1,55
 147 100 147 100 131 100 c 0,56,57
 117 100 117 100 109 87 c 128,-1,58
 101 74 101 74 101 61 c 0,59,60
 101 47 101 47 108 34 c 128,-1,61
 115 21 115 21 131 21 c 0,62,63
 150 21 150 21 156 35 c 128,-1,64
 162 49 162 49 162 65 c 0,53,54
EndSplineSet
EndChar
StartChar: uni0E17
Encoding: 3607 3607 154
Width: 456
Flags: W
Fore
379 0 m 1,0,-1
 349 0 l 1,1,-1
 349 312 l 2,2,3
 349 325 349 325 343.5 338 c 128,-1,4
 338 351 338 351 321 351 c 0,5,6
 313 351 313 351 308.5 346.5 c 128,-1,7
 304 342 304 342 301 337 c 1,8,-1
 301 336 l 1,9,10
 295 325 295 325 292 317.5 c 128,-1,11
 289 310 289 310 285 302 c 0,12,13
 275 279 275 279 267 259.5 c 128,-1,14
 259 240 259 240 251 220 c 0,15,16
 228 165 228 165 205.5 111 c 128,-1,17
 183 57 183 57 163 0 c 1,18,-1
 100 0 l 1,19,-1
 100 253 l 1,20,21
 95 252 95 252 91 251.5 c 128,-1,22
 87 251 87 251 82 251 c 0,23,24
 52 251 52 251 29 266 c 128,-1,25
 6 281 6 281 6 315 c 0,26,27
 6 353 6 353 31.5 368 c 128,-1,28
 57 383 57 383 90 383 c 0,29,30
 114 383 114 383 128 374 c 128,-1,31
 142 365 142 365 149 350 c 128,-1,32
 156 335 156 335 158 316 c 128,-1,33
 160 297 160 297 160 278 c 2,34,-1
 160 86 l 1,35,36
 170 108 170 108 178.5 130.5 c 128,-1,37
 187 153 187 153 195 174 c 0,38,39
 212 218 212 218 229 259.5 c 128,-1,40
 246 301 246 301 264 346 c 0,41,42
 266 351 266 351 270 358.5 c 128,-1,43
 274 366 274 366 276 368 c 0,44,45
 284 377 284 377 295 380 c 128,-1,46
 306 383 306 383 317 383 c 0,47,48
 334 383 334 383 351 380 c 128,-1,49
 368 377 368 377 381 369 c 128,-1,50
 394 361 394 361 402 347.5 c 128,-1,51
 410 334 410 334 410 314 c 2,52,-1
 410 39 l 1,53,-1
 379 0 l 1,0,-1
112 319 m 0,54,55
 112 333 112 333 105 347 c 128,-1,56
 98 361 98 361 81 361 c 0,57,58
 62 361 62 361 55.5 345.5 c 128,-1,59
 49 330 49 330 49 314 c 0,60,61
 49 301 49 301 56.5 288 c 128,-1,62
 64 275 64 275 79 275 c 0,63,64
 97 275 97 275 104.5 289.5 c 128,-1,65
 112 304 112 304 112 319 c 0,54,55
EndSplineSet
EndChar
StartChar: uni0E18
Encoding: 3608 3608 155
Width: 371
Flags: W
Fore
347 307 m 1,0,1
 344 306 344 306 340.5 305 c 128,-1,2
 337 304 337 304 333 304 c 0,3,4
 301 304 301 304 270 312 c 128,-1,5
 239 320 239 320 210 331 c 0,6,7
 200 335 200 335 193 339 c 128,-1,8
 186 343 186 343 179.5 346.5 c 128,-1,9
 173 350 173 350 165 352 c 128,-1,10
 157 354 157 354 146 354 c 0,11,12
 117 354 117 354 96.5 335 c 128,-1,13
 76 316 76 316 70 289 c 1,14,15
 88 289 88 289 121 287 c 128,-1,16
 154 285 154 285 188.5 280.5 c 128,-1,17
 223 276 223 276 253.5 269 c 128,-1,18
 284 262 284 262 297 251 c 0,19,20
 314 238 314 238 319 221 c 128,-1,21
 324 204 324 204 324 184 c 2,22,-1
 324 41 l 2,23,24
 324 33 324 33 317 25.5 c 128,-1,25
 310 18 310 18 300.5 12.5 c 128,-1,26
 291 7 291 7 280.5 3.5 c 128,-1,27
 270 0 270 0 263 0 c 2,28,-1
 41 0 l 1,29,-1
 41 187 l 1,30,-1
 76 215 l 1,31,-1
 102 215 l 1,32,-1
 102 34 l 1,33,-1
 263 34 l 1,34,-1
 263 178 l 2,35,36
 263 194 263 194 261 207 c 128,-1,37
 259 220 259 220 245 231 c 0,38,39
 235 239 235 239 209 244.5 c 128,-1,40
 183 250 183 250 150.5 253 c 128,-1,41
 118 256 118 256 85.5 257.5 c 128,-1,42
 53 259 53 259 30 259 c 2,43,-1
 8 259 l 1,44,45
 12 320 12 320 47 351.5 c 128,-1,46
 82 383 82 383 142 383 c 0,47,48
 162 383 162 383 180 378.5 c 128,-1,49
 198 374 198 374 215.5 368 c 128,-1,50
 233 362 233 362 250 357.5 c 128,-1,51
 267 353 267 353 286 353 c 0,52,53
 301 353 301 353 318 361 c 128,-1,54
 335 369 335 369 347 377 c 1,55,-1
 347 307 l 1,56,-1
 347 307 l 1,0,1
EndSplineSet
EndChar
StartChar: uni0E19
Encoding: 3609 3609 156
Width: 457
Flags: W
Fore
431 60 m 0,0,1
 431 28 431 28 414 11.5 c 128,-1,2
 397 -5 397 -5 365 -5 c 256,3,4
 333 -5 333 -5 311 8 c 128,-1,5
 289 21 289 21 289 56 c 0,6,7
 289 68 289 68 294 83 c 1,8,9
 262 62 262 62 228.5 43.5 c 128,-1,10
 195 25 195 25 166 0 c 1,11,-1
 108 0 l 1,12,-1
 108 260 l 1,13,14
 92 253 92 253 78 253 c 0,15,16
 46 253 46 253 27 268.5 c 128,-1,17
 8 284 8 284 8 317 c 0,18,19
 8 349 8 349 31 366 c 128,-1,20
 54 383 54 383 83 383 c 0,21,22
 113 383 113 383 137 371 c 0,23,24
 160 358 160 358 164 338 c 128,-1,25
 168 318 168 318 168 295 c 2,26,-1
 168 46 l 1,27,28
 206 70 206 70 243 91 c 0,29,30
 251 95 251 95 264.5 102.5 c 128,-1,31
 278 110 278 110 292 118.5 c 128,-1,32
 306 127 306 127 318 136 c 128,-1,33
 330 145 330 145 334 151 c 0,34,35
 341 162 341 162 342.5 171 c 128,-1,36
 344 180 344 180 344 191 c 2,37,-1
 344 351 l 1,38,-1
 381 380 l 1,39,-1
 405 380 l 1,40,-1
 405 192 l 2,41,42
 405 175 405 175 394.5 160.5 c 128,-1,43
 384 146 384 146 374 133 c 1,44,45
 400 127 400 127 415.5 107 c 128,-1,46
 431 87 431 87 431 60 c 0,0,1
388 58 m 0,47,48
 388 65 388 65 386.5 74 c 128,-1,49
 385 83 385 83 381.5 91 c 128,-1,50
 378 99 378 99 371.5 104.5 c 128,-1,51
 365 110 365 110 356 110 c 0,52,53
 348 110 348 110 343 104 c 128,-1,54
 338 98 338 98 335.5 90 c 128,-1,55
 333 82 333 82 332 73 c 128,-1,56
 331 64 331 64 331 58 c 0,57,58
 331 53 331 53 333 45.5 c 128,-1,59
 335 38 335 38 338.5 31.5 c 128,-1,60
 342 25 342 25 347 20.5 c 128,-1,61
 352 16 352 16 358 16 c 0,62,63
 373 16 373 16 380.5 30.5 c 128,-1,64
 388 45 388 45 388 58 c 0,47,48
115 320 m 0,65,66
 115 334 115 334 108 348 c 128,-1,67
 101 362 101 362 84 362 c 0,68,69
 65 362 65 362 58.5 346.5 c 128,-1,70
 52 331 52 331 52 315 c 0,71,72
 52 302 52 302 59.5 289 c 128,-1,73
 67 276 67 276 82 276 c 0,74,75
 100 276 100 276 107.5 290.5 c 128,-1,76
 115 305 115 305 115 320 c 0,65,66
EndSplineSet
EndChar
StartChar: uni0E1A
Encoding: 3610 3610 157
Width: 454
Flags: W
Fore
408 45 m 1,0,1
 408 43 408 43 406.5 40 c 128,-1,2
 405 37 405 37 404 35 c 0,3,4
 396 21 396 21 387 15.5 c 128,-1,5
 378 10 378 10 364 5 c 0,6,7
 362 4 362 4 355.5 2.5 c 128,-1,8
 349 1 349 1 347 1 c 2,9,-1
 68 1 l 1,10,-1
 68 35 l 1,11,-1
 107 35 l 1,12,-1
 107 263 l 1,13,14
 96 256 96 256 79 256 c 0,15,16
 50 256 50 256 29 272.5 c 128,-1,17
 8 289 8 289 8 320 c 0,18,19
 8 336 8 336 15 348 c 128,-1,20
 22 360 22 360 33.5 367.5 c 128,-1,21
 45 375 45 375 59 378.5 c 128,-1,22
 73 382 73 382 87 382 c 0,23,24
 121 382 121 382 144.5 364 c 128,-1,25
 168 346 168 346 168 310 c 2,26,-1
 168 35 l 1,27,-1
 347 35 l 1,28,-1
 347 348 l 1,29,-1
 380 380 l 1,30,-1
 408 380 l 1,31,-1
 408 45 l 1,32,-1
 408 45 l 1,0,1
115 322 m 0,33,34
 115 335 115 335 109 348 c 128,-1,35
 103 361 103 361 87 361 c 0,36,37
 70 361 70 361 60.5 349 c 128,-1,38
 51 337 51 337 51 320 c 256,39,40
 51 303 51 303 61 293.5 c 128,-1,41
 71 284 71 284 88 284 c 0,42,43
 101 284 101 284 108 297.5 c 128,-1,44
 115 311 115 311 115 322 c 0,33,34
EndSplineSet
EndChar
StartChar: uni0E1B
Encoding: 3611 3611 158
Width: 454
Flags: W
Fore
408 46 m 1,0,1
 408 44 408 44 406.5 40.5 c 128,-1,2
 405 37 405 37 404 35 c 0,3,4
 396 22 396 22 380 11.5 c 128,-1,5
 364 1 364 1 349 1 c 2,6,-1
 68 1 l 1,7,-1
 68 35 l 1,8,-1
 107 35 l 1,9,-1
 107 263 l 1,10,11
 96 256 96 256 79 256 c 0,12,13
 50 256 50 256 29 272.5 c 128,-1,14
 8 289 8 289 8 320 c 0,15,16
 8 336 8 336 15 348 c 128,-1,17
 22 360 22 360 33.5 367.5 c 128,-1,18
 45 375 45 375 59 378.5 c 128,-1,19
 73 382 73 382 87 382 c 0,20,21
 121 382 121 382 144.5 364 c 128,-1,22
 168 346 168 346 168 310 c 2,23,-1
 168 35 l 1,24,-1
 347 35 l 1,25,-1
 347 488 l 1,26,-1
 380 520 l 1,27,-1
 408 520 l 1,28,-1
 408 46 l 1,29,-1
 408 46 l 1,0,1
115 322 m 0,30,31
 115 335 115 335 109 348 c 128,-1,32
 103 361 103 361 87 361 c 0,33,34
 70 361 70 361 60.5 349 c 128,-1,35
 51 337 51 337 51 320 c 256,36,37
 51 303 51 303 61 293.5 c 128,-1,38
 71 284 71 284 88 284 c 0,39,40
 101 284 101 284 108 297.5 c 128,-1,41
 115 311 115 311 115 322 c 0,30,31
EndSplineSet
EndChar
StartChar: uni0E1C
Encoding: 3612 3612 159
Width: 417
Flags: W
Fore
285 0 m 1,0,-1
 198 148 l 1,1,2
 174 111 174 111 149.5 74.5 c 128,-1,3
 125 38 125 38 103 0 c 1,4,-1
 24 0 l 1,5,-1
 24 316 l 2,6,7
 24 332 24 332 32.5 344 c 128,-1,8
 41 356 41 356 54 364.5 c 128,-1,9
 67 373 67 373 82.5 377.5 c 128,-1,10
 98 382 98 382 111 382 c 0,11,12
 143 382 143 382 165 367 c 128,-1,13
 187 352 187 352 187 317 c 0,14,15
 187 283 187 283 165.5 268.5 c 128,-1,16
 144 254 144 254 113 254 c 0,17,18
 96 254 96 254 85 261 c 1,19,-1
 85 32 l 1,20,21
 111 74 111 74 138 113.5 c 128,-1,22
 165 153 165 153 191 195 c 1,23,-1
 220 195 l 1,24,-1
 313 38 l 1,25,-1
 313 349 l 1,26,-1
 345 379 l 1,27,-1
 371 379 l 1,28,-1
 371 0 l 1,29,-1
 285 0 l 1,0,-1
145 318 m 0,30,31
 145 335 145 335 137 346 c 128,-1,32
 129 357 129 357 111 357 c 0,33,34
 92 357 92 357 85.5 345.5 c 128,-1,35
 79 334 79 334 79 317 c 0,36,37
 79 302 79 302 87 290 c 128,-1,38
 95 278 95 278 112 278 c 256,39,40
 129 278 129 278 137 290 c 128,-1,41
 145 302 145 302 145 318 c 0,30,31
EndSplineSet
EndChar
StartChar: uni0E1D
Encoding: 3613 3613 160
Width: 417
Flags: W
Fore
285 1 m 1,0,-1
 198 149 l 1,1,2
 174 112 174 112 149.5 75.5 c 128,-1,3
 125 39 125 39 103 1 c 1,4,-1
 24 1 l 1,5,-1
 24 317 l 2,6,7
 24 333 24 333 32.5 345 c 128,-1,8
 41 357 41 357 54 365.5 c 128,-1,9
 67 374 67 374 82.5 378.5 c 128,-1,10
 98 383 98 383 111 383 c 0,11,12
 143 383 143 383 165 368 c 128,-1,13
 187 353 187 353 187 318 c 0,14,15
 187 284 187 284 165.5 269.5 c 128,-1,16
 144 255 144 255 113 255 c 0,17,18
 96 255 96 255 85 262 c 1,19,-1
 85 33 l 1,20,21
 111 75 111 75 138 114.5 c 128,-1,22
 165 154 165 154 191 196 c 1,23,-1
 219 196 l 1,24,-1
 313 39 l 1,25,-1
 313 503 l 1,26,-1
 345 533 l 1,27,-1
 371 533 l 1,28,-1
 371 1 l 1,29,-1
 285 1 l 1,0,-1
145 319 m 0,30,31
 145 336 145 336 137 347 c 128,-1,32
 129 358 129 358 111 358 c 0,33,34
 92 358 92 358 85.5 346.5 c 128,-1,35
 79 335 79 335 79 318 c 0,36,37
 79 303 79 303 87 291 c 128,-1,38
 95 279 95 279 112 279 c 256,39,40
 129 279 129 279 137 291 c 128,-1,41
 145 303 145 303 145 319 c 0,30,31
EndSplineSet
EndChar
StartChar: uni0E1E
Encoding: 3614 3614 161
Width: 504
Flags: W
Fore
366 1 m 1,0,-1
 271 313 l 1,1,2
 246 235 246 235 220.5 157.5 c 128,-1,3
 195 80 195 80 172 1 c 1,4,-1
 105 1 l 1,5,-1
 105 258 l 1,6,7
 95 255 95 255 83 255 c 0,8,9
 51 255 51 255 29.5 270 c 128,-1,10
 8 285 8 285 8 320 c 0,11,12
 8 338 8 338 15 350 c 128,-1,13
 22 362 22 362 33.5 369.5 c 128,-1,14
 45 377 45 377 60 380 c 128,-1,15
 75 383 75 383 90 383 c 0,16,17
 125 383 125 383 145 361 c 128,-1,18
 165 339 165 339 165 304 c 2,19,-1
 165 79 l 1,20,21
 188 152 188 152 212.5 224 c 128,-1,22
 237 296 237 296 259 370 c 1,23,-1
 298 370 l 1,24,-1
 399 57 l 1,25,-1
 399 348 l 1,26,-1
 434 380 l 1,27,-1
 458 380 l 1,28,-1
 458 1 l 1,29,-1
 366 1 l 1,0,-1
115 315 m 0,30,31
 115 321 115 321 113.5 329.5 c 128,-1,32
 112 338 112 338 109 345 c 128,-1,33
 106 352 106 352 101 357 c 128,-1,34
 96 362 96 362 88 362 c 0,35,36
 70 362 70 362 61.5 348.5 c 128,-1,37
 53 335 53 335 53 319 c 256,38,39
 53 303 53 303 61.5 291.5 c 128,-1,40
 70 280 70 280 87 280 c 256,41,42
 104 280 104 280 109.5 290.5 c 128,-1,43
 115 301 115 301 115 315 c 0,30,31
EndSplineSet
EndChar
StartChar: uni0E1F
Encoding: 3615 3615 162
Width: 504
Flags: W
Fore
366 1 m 1,0,-1
 271 312 l 1,1,2
 246 234 246 234 220.5 156.5 c 128,-1,3
 195 79 195 79 172 1 c 1,4,-1
 105 1 l 1,5,-1
 105 258 l 1,6,7
 95 255 95 255 83 255 c 0,8,9
 51 255 51 255 29.5 270 c 128,-1,10
 8 285 8 285 8 320 c 0,11,12
 8 338 8 338 15 350 c 128,-1,13
 22 362 22 362 33.5 369.5 c 128,-1,14
 45 377 45 377 60 380 c 128,-1,15
 75 383 75 383 90 383 c 0,16,17
 125 383 125 383 145 361 c 128,-1,18
 165 339 165 339 165 304 c 2,19,-1
 165 79 l 1,20,21
 188 152 188 152 212.5 223.5 c 128,-1,22
 237 295 237 295 259 369 c 1,23,-1
 298 369 l 1,24,-1
 399 56 l 1,25,-1
 399 489 l 1,26,-1
 434 521 l 1,27,-1
 458 521 l 1,28,-1
 458 1 l 1,29,-1
 366 1 l 1,0,-1
115 315 m 0,30,31
 115 321 115 321 113.5 329.5 c 128,-1,32
 112 338 112 338 109 345 c 128,-1,33
 106 352 106 352 101 357 c 128,-1,34
 96 362 96 362 88 362 c 0,35,36
 70 362 70 362 61.5 348.5 c 128,-1,37
 53 335 53 335 53 319 c 256,38,39
 53 303 53 303 61.5 291.5 c 128,-1,40
 70 280 70 280 87 280 c 256,41,42
 104 280 104 280 109.5 290.5 c 128,-1,43
 115 301 115 301 115 315 c 0,30,31
EndSplineSet
EndChar
StartChar: uni0E20
Encoding: 3616 3616 163
Width: 456
Flags: W
Fore
381 0 m 1,0,-1
 349 0 l 1,1,-1
 349 254 l 2,2,3
 349 294 349 294 337.5 316 c 128,-1,4
 326 338 326 338 286 349 c 0,5,6
 264 356 264 356 238 356 c 0,7,8
 222 356 222 356 201.5 353.5 c 128,-1,9
 181 351 181 351 161 344.5 c 128,-1,10
 141 338 141 338 124.5 327.5 c 128,-1,11
 108 317 108 317 99 301 c 1,12,-1
 200 301 l 1,13,-1
 200 276 l 1,14,15
 158 253 158 253 158 207 c 2,16,-1
 158 69 l 2,17,18
 158 35 158 35 138 17 c 128,-1,19
 118 -1 118 -1 85 -1 c 0,20,21
 53 -1 53 -1 32.5 13.5 c 128,-1,22
 12 28 12 28 12 63 c 0,23,24
 12 93 12 93 30.5 108.5 c 128,-1,25
 49 124 49 124 78 124 c 0,26,27
 87 124 87 124 99 119 c 1,28,-1
 99 206 l 2,29,30
 99 226 99 226 112 244 c 128,-1,31
 125 262 125 262 141 273 c 1,32,-1
 58 273 l 1,33,-1
 58 311 l 1,34,35
 91 348 91 348 140 366.5 c 128,-1,36
 189 385 189 385 239 385 c 0,37,38
 256 385 256 385 277.5 382 c 128,-1,39
 299 379 299 379 320.5 372.5 c 128,-1,40
 342 366 342 366 361 356 c 128,-1,41
 380 346 380 346 390 332 c 0,42,43
 404 312 404 312 407 286 c 128,-1,44
 410 260 410 260 410 237 c 2,45,-1
 410 32 l 1,46,-1
 381 0 l 1,0,-1
110 59 m 0,47,48
 110 73 110 73 104 86 c 128,-1,49
 98 99 98 99 81 99 c 0,50,51
 66 99 66 99 59.5 85 c 128,-1,52
 53 71 53 71 53 59 c 0,53,54
 53 45 53 45 60 32.5 c 128,-1,55
 67 20 67 20 84 20 c 0,56,57
 98 20 98 20 104 33.5 c 128,-1,58
 110 47 110 47 110 59 c 0,47,48
EndSplineSet
EndChar
StartChar: uni0E21
Encoding: 3617 3617 164
Width: 419
Flags: W
Fore
321 0 m 1,0,1
 284 32 284 32 245.5 62 c 128,-1,2
 207 92 207 92 168 121 c 1,3,-1
 168 83 l 2,4,5
 168 44 168 44 154.5 21 c 128,-1,6
 141 -2 141 -2 95 -2 c 0,7,8
 60 -2 60 -2 42.5 19 c 128,-1,9
 25 40 25 40 25 75 c 0,10,11
 25 93 25 93 32 108.5 c 128,-1,12
 39 124 39 124 51 136 c 128,-1,13
 63 148 63 148 78.5 156 c 128,-1,14
 94 164 94 164 111 165 c 1,15,-1
 111 262 l 1,16,17
 99 255 99 255 87 255 c 0,18,19
 56 255 56 255 34 267.5 c 128,-1,20
 12 280 12 280 12 315 c 0,21,22
 12 352 12 352 37.5 367 c 128,-1,23
 63 382 63 382 95 382 c 0,24,25
 131 382 131 382 150.5 366 c 128,-1,26
 170 350 170 350 170 312 c 2,27,-1
 170 162 l 1,28,29
 206 136 206 136 242 110.5 c 128,-1,30
 278 85 278 85 313 58 c 1,31,-1
 313 350 l 1,32,-1
 345 380 l 1,33,-1
 373 380 l 1,34,-1
 373 0 l 1,35,-1
 321 0 l 1,0,1
120 322 m 0,36,37
 120 336 120 336 112.5 349 c 128,-1,38
 105 362 105 362 89 362 c 0,39,40
 71 362 71 362 63 349.5 c 128,-1,41
 55 337 55 337 55 320 c 256,42,43
 55 303 55 303 63 291.5 c 128,-1,44
 71 280 71 280 90 280 c 0,45,46
 108 280 108 280 114 293.5 c 128,-1,47
 120 307 120 307 120 322 c 0,36,37
111 136 m 1,48,49
 88 132 88 132 80 113.5 c 128,-1,50
 72 95 72 95 72 75 c 0,51,52
 72 70 72 70 73 61 c 128,-1,53
 74 52 74 52 77 43 c 128,-1,54
 80 34 80 34 84.5 27.5 c 128,-1,55
 89 21 89 21 96 21 c 0,56,57
 104 21 104 21 107.5 31.5 c 128,-1,58
 111 42 111 42 111 48 c 2,59,-1
 111 136 l 1,48,49
EndSplineSet
EndChar
StartChar: uni0E22
Encoding: 3618 3618 165
Width: 401
Flags: W
Fore
355 45 m 1,0,1
 355 38 355 38 349 30 c 128,-1,2
 343 22 343 22 334 15.5 c 128,-1,3
 325 9 325 9 315.5 4.5 c 128,-1,4
 306 0 306 0 299 0 c 2,5,-1
 41 0 l 1,6,-1
 41 112 l 2,7,8
 41 144 41 144 57 162.5 c 128,-1,9
 73 181 73 181 100 195 c 1,10,11
 84 198 84 198 68.5 205 c 128,-1,12
 53 212 53 212 41 222.5 c 128,-1,13
 29 233 29 233 21.5 247.5 c 128,-1,14
 14 262 14 262 14 280 c 0,15,16
 14 307 14 307 25 326.5 c 128,-1,17
 36 346 36 346 53.5 358.5 c 128,-1,18
 71 371 71 371 94 377 c 128,-1,19
 117 383 117 383 141 383 c 0,20,21
 156 383 156 383 171.5 380.5 c 128,-1,22
 187 378 187 378 199.5 371.5 c 128,-1,23
 212 365 212 365 220 353 c 128,-1,24
 228 341 228 341 228 322 c 0,25,26
 228 291 228 291 209.5 275.5 c 128,-1,27
 191 260 191 260 162 260 c 0,28,29
 134 260 134 260 114.5 277.5 c 128,-1,30
 95 295 95 295 95 324 c 0,31,32
 95 329 95 329 95.5 333 c 128,-1,33
 96 337 96 337 97 342 c 1,34,35
 76 330 76 330 71.5 315 c 128,-1,36
 67 300 67 300 67 278 c 0,37,38
 67 267 67 267 73 256.5 c 128,-1,39
 79 246 79 246 87 240 c 1,40,41
 104 223 104 223 126 219 c 128,-1,42
 148 215 148 215 171 215 c 2,43,-1
 219 215 l 1,44,-1
 219 183 l 1,45,-1
 164 183 l 2,46,47
 133 183 133 183 116 160 c 0,48,49
 100 138 100 138 100 110 c 2,50,-1
 100 34 l 1,51,-1
 296 34 l 1,52,-1
 296 350 l 1,53,-1
 331 380 l 1,54,-1
 355 380 l 1,55,-1
 355 45 l 1,56,-1
 355 45 l 1,0,1
191 320 m 0,57,58
 191 335 191 335 183 347.5 c 128,-1,59
 175 360 175 360 158 360 c 0,60,61
 145 360 145 360 138.5 347.5 c 128,-1,62
 132 335 132 335 132 324 c 0,63,64
 132 312 132 312 139.5 295.5 c 128,-1,65
 147 279 147 279 161 279 c 0,66,67
 177 279 177 279 184 292.5 c 128,-1,68
 191 306 191 306 191 320 c 0,57,58
EndSplineSet
EndChar
StartChar: uni0E23
Encoding: 3619 3619 166
Width: 340
Flags: W
Fore
320 328 m 1,0,1
 307 321 307 321 292 319.5 c 128,-1,2
 277 318 277 318 263 318 c 2,3,-1
 259 318 l 2,4,5
 240 318 240 318 222.5 324 c 128,-1,6
 205 330 205 330 189 337 c 128,-1,7
 173 344 173 344 158 349.5 c 128,-1,8
 143 355 143 355 129 355 c 0,9,10
 106 355 106 355 91.5 337 c 128,-1,11
 77 319 77 319 72 299 c 1,12,13
 80 297 80 297 89 296.5 c 128,-1,14
 98 296 98 296 106 295 c 2,15,-1
 156 287 l 2,16,17
 171 284 171 284 187 281 c 128,-1,18
 203 278 203 278 219 273.5 c 128,-1,19
 235 269 235 269 248.5 262.5 c 128,-1,20
 262 256 262 256 271 247 c 0,21,22
 283 235 283 235 289 218.5 c 128,-1,23
 295 202 295 202 295 185 c 2,24,-1
 295 67 l 2,25,26
 295 35 295 35 270 16.5 c 128,-1,27
 245 -2 245 -2 215 -2 c 0,28,29
 183 -2 183 -2 161 12 c 128,-1,30
 139 26 139 26 139 61 c 0,31,32
 139 92 139 92 157.5 106.5 c 128,-1,33
 176 121 176 121 205 121 c 0,34,35
 222 121 222 121 236 113 c 1,36,-1
 236 188 l 2,37,38
 236 207 236 207 222.5 220.5 c 128,-1,39
 209 234 209 234 188 243.5 c 128,-1,40
 167 253 167 253 141 259 c 128,-1,41
 115 265 115 265 89.5 268 c 128,-1,42
 64 271 64 271 41.5 272 c 128,-1,43
 19 273 19 273 6 273 c 1,44,45
 12 324 12 324 41.5 353.5 c 128,-1,46
 71 383 71 383 123 383 c 0,47,48
 131 383 131 383 147 380 c 128,-1,49
 163 377 163 377 181.5 373 c 128,-1,50
 200 369 200 369 217.5 365.5 c 128,-1,51
 235 362 235 362 246 362 c 0,52,53
 265 362 265 362 285.5 372.5 c 128,-1,54
 306 383 306 383 320 394 c 1,55,-1
 320 328 l 1,0,1
242 55 m 0,56,57
 242 70 242 70 235.5 82.5 c 128,-1,58
 229 95 229 95 211 95 c 0,59,60
 194 95 194 95 189 83 c 128,-1,61
 184 71 184 71 184 57 c 256,62,63
 184 43 184 43 193 32 c 128,-1,64
 202 21 202 21 216 21 c 256,65,66
 230 21 230 21 236 32 c 128,-1,67
 242 43 242 43 242 55 c 0,56,57
EndSplineSet
EndChar
StartChar: uni0E24
Encoding: 3620 3620 167
Width: 416
Flags: W
Fore
339 -144 m 1,0,-1
 310 -144 l 1,1,-1
 310 261 l 2,2,3
 310 284 310 284 301.5 301 c 128,-1,4
 293 318 293 318 278 329 c 128,-1,5
 263 340 263 340 244 345.5 c 128,-1,6
 225 351 225 351 204 351 c 0,7,8
 185 351 185 351 163.5 348 c 128,-1,9
 142 345 142 345 121 338.5 c 128,-1,10
 100 332 100 332 81.5 321 c 128,-1,11
 63 310 63 310 51 294 c 1,12,-1
 152 294 l 1,13,-1
 152 268 l 1,14,15
 132 256 132 256 119 244 c 128,-1,16
 106 232 106 232 106 206 c 2,17,-1
 106 115 l 1,18,19
 121 126 121 126 143 126 c 0,20,21
 170 126 170 126 186 107 c 128,-1,22
 202 88 202 88 202 62 c 0,23,24
 202 24 202 24 180 11 c 128,-1,25
 158 -2 158 -2 125 -2 c 0,26,27
 110 -2 110 -2 96 3 c 128,-1,28
 82 8 82 8 71 17.5 c 128,-1,29
 60 27 60 27 53 40 c 128,-1,30
 46 53 46 53 46 68 c 2,31,-1
 46 202 l 2,32,33
 46 222 46 222 60 237.5 c 128,-1,34
 74 253 74 253 88 264 c 1,35,-1
 8 264 l 1,36,-1
 8 310 l 1,37,38
 18 318 18 318 27 325.5 c 128,-1,39
 36 333 36 333 47 340 c 0,40,41
 79 360 79 360 118.5 372 c 128,-1,42
 158 384 158 384 196 384 c 0,43,44
 216 384 216 384 239 381 c 128,-1,45
 262 378 262 378 284.5 371.5 c 128,-1,46
 307 365 307 365 326.5 353 c 128,-1,47
 346 341 346 341 357 323 c 0,48,49
 365 309 365 309 367.5 293 c 128,-1,50
 370 277 370 277 370 262 c 2,51,-1
 370 -109 l 1,52,-1
 339 -144 l 1,0,-1
162 64 m 0,53,54
 162 79 162 79 154.5 89 c 128,-1,55
 147 99 147 99 131 99 c 0,56,57
 117 99 117 99 109 86 c 128,-1,58
 101 73 101 73 101 60 c 0,59,60
 101 46 101 46 108 33.5 c 128,-1,61
 115 21 115 21 131 21 c 0,62,63
 150 21 150 21 156 34.5 c 128,-1,64
 162 48 162 48 162 64 c 0,53,54
EndSplineSet
EndChar
StartChar: uni0E25
Encoding: 3621 3621 168
Width: 398
Flags: W
Fore
119 -4 m 0,0,1
 105 -4 105 -4 90 -0.5 c 128,-1,2
 75 3 75 3 62.5 10.5 c 128,-1,3
 50 18 50 18 42 30 c 128,-1,4
 34 42 34 42 34 58 c 2,5,-1
 34 143 l 2,6,7
 34 203 34 203 68.5 231.5 c 128,-1,8
 103 260 103 260 160 260 c 0,9,10
 201 260 201 260 239 237.5 c 128,-1,11
 277 215 277 215 297 180 c 1,12,-1
 297 248 l 2,13,14
 297 307 297 307 265 331 c 128,-1,15
 233 355 233 355 178 355 c 0,16,17
 150 355 150 355 128.5 349 c 128,-1,18
 107 343 107 343 90 331.5 c 128,-1,19
 73 320 73 320 57.5 304.5 c 128,-1,20
 42 289 42 289 25 270 c 2,21,-1
 16 260 l 1,22,-1
 16 329 l 1,23,24
 21 334 21 334 25.5 337 c 128,-1,25
 30 340 30 340 35 344 c 0,26,27
 69 367 69 367 98.5 375.5 c 128,-1,28
 128 384 128 384 169 384 c 0,29,30
 195 384 195 384 226.5 379 c 128,-1,31
 258 374 258 374 286 361 c 128,-1,32
 314 348 314 348 333 327 c 128,-1,33
 352 306 352 306 352 273 c 2,34,-1
 352 24 l 1,35,-1
 321 0 l 1,36,-1
 295 0 l 1,37,-1
 295 65 l 2,38,39
 295 91 295 91 283.5 120 c 128,-1,40
 272 149 272 149 252.5 174.5 c 128,-1,41
 233 200 233 200 208 216.5 c 128,-1,42
 183 233 183 233 155 233 c 0,43,44
 122 233 122 233 106.5 210 c 128,-1,45
 91 187 91 187 91 157 c 2,46,-1
 91 107 l 1,47,48
 106 117 106 117 128 117 c 0,49,50
 157 117 157 117 171 98.5 c 128,-1,51
 185 80 185 80 185 56 c 0,52,53
 185 26 185 26 165 11 c 128,-1,54
 145 -4 145 -4 119 -4 c 0,0,1
148 57 m 0,55,56
 148 70 148 70 141.5 81 c 128,-1,57
 135 92 135 92 120 92 c 0,58,59
 103 92 103 92 95 80 c 128,-1,60
 87 68 87 68 87 52 c 0,61,62
 87 38 87 38 97 27.5 c 128,-1,63
 107 17 107 17 121 17 c 256,64,65
 135 17 135 17 141.5 31 c 128,-1,66
 148 45 148 45 148 57 c 0,55,56
EndSplineSet
EndChar
StartChar: uni0E26
Encoding: 3622 3622 169
Width: 457
Flags: W
Fore
382 -144 m 1,0,-1
 350 -144 l 1,1,-1
 350 252 l 2,2,3
 350 292 350 292 338.5 313.5 c 128,-1,4
 327 335 327 335 287 346 c 0,5,6
 261 354 261 354 239 354 c 0,7,8
 223 354 223 354 202.5 351.5 c 128,-1,9
 182 349 182 349 162 342.5 c 128,-1,10
 142 336 142 336 125.5 325.5 c 128,-1,11
 109 315 109 315 100 299 c 1,12,-1
 201 299 l 1,13,-1
 201 274 l 1,14,15
 159 251 159 251 159 205 c 2,16,-1
 159 68 l 2,17,18
 159 34 159 34 139 16 c 128,-1,19
 119 -2 119 -2 86 -2 c 0,20,21
 54 -2 54 -2 33.5 12.5 c 128,-1,22
 13 27 13 27 13 62 c 0,23,24
 13 92 13 92 31.5 107.5 c 128,-1,25
 50 123 50 123 79 123 c 0,26,27
 88 123 88 123 100 118 c 1,28,-1
 100 204 l 2,29,30
 100 224 100 224 113 242 c 128,-1,31
 126 260 126 260 142 271 c 1,32,-1
 59 271 l 1,33,-1
 59 309 l 1,34,35
 92 346 92 346 136.5 365 c 128,-1,36
 181 384 181 384 231 384 c 0,37,38
 248 384 248 384 271 381 c 128,-1,39
 294 378 294 378 317.5 371.5 c 128,-1,40
 341 365 341 365 361 354.5 c 128,-1,41
 381 344 381 344 391 330 c 0,42,43
 405 310 405 310 408 284 c 128,-1,44
 411 258 411 258 411 235 c 2,45,-1
 411 -112 l 1,46,-1
 382 -144 l 1,0,-1
111 58 m 0,47,48
 111 72 111 72 105 85 c 128,-1,49
 99 98 99 98 82 98 c 0,50,51
 67 98 67 98 60.5 84 c 128,-1,52
 54 70 54 70 54 58 c 0,53,54
 54 44 54 44 61 31.5 c 128,-1,55
 68 19 68 19 85 19 c 0,56,57
 99 19 99 19 105 32.5 c 128,-1,58
 111 46 111 46 111 58 c 0,47,48
EndSplineSet
EndChar
StartChar: uni0E27
Encoding: 3623 3623 170
Width: 342
Flags: W
Fore
296 68 m 1,0,1
 296 38 296 38 275 18 c 128,-1,2
 254 -2 254 -2 225 -2 c 0,3,4
 210 -2 210 -2 195.5 1 c 128,-1,5
 181 4 181 4 169 10.5 c 128,-1,6
 157 17 157 17 149.5 28.5 c 128,-1,7
 142 40 142 40 142 58 c 0,8,9
 142 90 142 90 162 107.5 c 128,-1,10
 182 125 182 125 213 125 c 0,11,12
 224 125 224 125 230 122 c 0,13,14
 234 120 234 120 237 118 c 1,15,-1
 237 267 l 2,16,17
 237 309 237 309 221 332 c 128,-1,18
 205 355 205 355 160 355 c 0,19,20
 136 355 136 355 114.5 346 c 128,-1,21
 93 337 93 337 74 323 c 128,-1,22
 55 309 55 309 38.5 292 c 128,-1,23
 22 275 22 275 8 258 c 1,24,-1
 8 326 l 1,25,26
 40 355 40 355 74 369.5 c 128,-1,27
 108 384 108 384 152 384 c 0,28,29
 178 384 178 384 203.5 378.5 c 128,-1,30
 229 373 229 373 249.5 360.5 c 128,-1,31
 270 348 270 348 283 327.5 c 128,-1,32
 296 307 296 307 296 277 c 2,33,-1
 296 68 l 1,34,-1
 296 68 l 1,0,1
243 57 m 0,35,36
 243 70 243 70 238 84 c 128,-1,37
 233 98 233 98 216 98 c 256,38,39
 199 98 199 98 193 85 c 128,-1,40
 187 72 187 72 187 58 c 256,41,42
 187 44 187 44 195 32 c 128,-1,43
 203 20 203 20 219 20 c 0,44,45
 224 20 224 20 228.5 24 c 128,-1,46
 233 28 233 28 236 34 c 128,-1,47
 239 40 239 40 241 46.5 c 128,-1,48
 243 53 243 53 243 57 c 0,35,36
EndSplineSet
EndChar
StartChar: uni0E28
Encoding: 3624 3624 171
Width: 399
Flags: W
Fore
362 25 m 1,0,-1
 327 0 l 1,1,-1
 303 0 l 1,2,-1
 362 25 l 1,0,-1
136 0 m 1,3,-1
 78 0 l 1,4,-1
 78 138 l 2,5,6
 78 141 78 141 69 148.5 c 128,-1,7
 60 156 60 156 49.5 170 c 128,-1,8
 39 184 39 184 30 204.5 c 128,-1,9
 21 225 21 225 21 252 c 0,10,11
 21 285 21 285 36.5 309.5 c 128,-1,12
 52 334 52 334 76 350 c 128,-1,13
 100 366 100 366 129.5 374 c 128,-1,14
 159 382 159 382 188 382 c 2,15,-1
 196 382 l 2,16,17
 226 382 226 382 247.5 376.5 c 128,-1,18
 269 371 269 371 294 360 c 1,19,20
 300 367 300 367 310 379.5 c 128,-1,21
 320 392 320 392 328 403 c 1,22,-1
 386 403 l 1,23,24
 374 386 374 386 360 371.5 c 128,-1,25
 346 357 346 357 331 342 c 1,26,27
 347 332 347 332 354.5 314.5 c 128,-1,28
 362 297 362 297 362 278 c 2,29,-1
 362 25 l 1,30,-1
 327 0 l 1,31,-1
 303 0 l 1,32,-1
 303 286 l 2,33,34
 303 294 303 294 302.5 303.5 c 128,-1,35
 302 313 302 313 298 320 c 1,36,37
 280 304 280 304 262.5 288.5 c 128,-1,38
 245 273 245 273 227 258 c 1,39,40
 239 243 239 243 239 222 c 0,41,42
 239 210 239 210 234 197 c 128,-1,43
 229 184 229 184 220.5 174 c 128,-1,44
 212 164 212 164 200.5 157.5 c 128,-1,45
 189 151 189 151 175 151 c 0,46,47
 165 151 165 151 154.5 152.5 c 128,-1,48
 144 154 144 154 136 159 c 1,49,-1
 136 0 l 1,3,-1
167 285 m 0,50,51
 175 285 175 285 185.5 282 c 128,-1,52
 196 279 196 279 203 275 c 1,53,54
 222 289 222 289 239 304 c 128,-1,55
 256 319 256 319 273 336 c 1,56,57
 267 341 267 341 257 344.5 c 128,-1,58
 247 348 247 348 235.5 351 c 128,-1,59
 224 354 224 354 213 355.5 c 128,-1,60
 202 357 202 357 195 357 c 0,61,62
 170 357 170 357 146.5 352 c 128,-1,63
 123 347 123 347 104 335.5 c 128,-1,64
 85 324 85 324 73.5 304.5 c 128,-1,65
 62 285 62 285 62 256 c 0,66,67
 62 238 62 238 68 220 c 128,-1,68
 74 202 74 202 87 188 c 1,69,70
 87 203 87 203 90.5 220 c 128,-1,71
 94 237 94 237 101 251 c 0,72,73
 109 268 109 268 129 276.5 c 128,-1,74
 149 285 149 285 167 285 c 0,50,51
201 222 m 0,75,76
 201 238 201 238 192.5 248.5 c 128,-1,77
 184 259 184 259 168 259 c 256,78,79
 152 259 152 259 142 246 c 128,-1,80
 132 233 132 233 132 219 c 0,81,82
 132 204 132 204 141 190 c 128,-1,83
 150 176 150 176 167 176 c 0,84,85
 187 176 187 176 194 190.5 c 128,-1,86
 201 205 201 205 201 222 c 0,75,76
EndSplineSet
EndChar
StartChar: uni0E29
Encoding: 3625 3625 172
Width: 451
Flags: W
Fore
403 126 m 1,0,-1
 403 45 l 2,1,2
 403 39 403 39 396.5 30 c 128,-1,3
 390 21 390 21 385 17 c 0,4,5
 379 12 379 12 367 6.5 c 128,-1,6
 355 1 355 1 347 1 c 2,7,-1
 58 1 l 1,8,-1
 58 35 l 1,9,-1
 103 35 l 1,10,-1
 103 254 l 1,11,12
 96 251 96 251 86 251 c 0,13,14
 54 251 54 251 31 266.5 c 128,-1,15
 8 282 8 282 8 317 c 0,16,17
 8 334 8 334 15 346.5 c 128,-1,18
 22 359 22 359 34 366.5 c 128,-1,19
 46 374 46 374 60.5 377.5 c 128,-1,20
 75 381 75 381 90 381 c 0,21,22
 132 381 132 381 148 358.5 c 128,-1,23
 164 336 164 336 164 298 c 2,24,-1
 164 35 l 1,25,-1
 345 35 l 1,26,-1
 345 120 l 1,27,28
 326 120 326 120 301 122.5 c 128,-1,29
 276 125 276 125 254.5 133 c 128,-1,30
 233 141 233 141 218 156.5 c 128,-1,31
 203 172 203 172 203 198 c 0,32,33
 203 227 203 227 220 238.5 c 128,-1,34
 237 250 237 250 263 250 c 256,35,36
 289 250 289 250 306 239.5 c 128,-1,37
 323 229 323 229 323 200 c 0,38,39
 323 173 323 173 306 151 c 1,40,-1
 309 150 l 1,41,42
 318 150 318 150 327 152.5 c 128,-1,43
 336 155 336 155 345 157 c 1,44,-1
 345 353 l 1,45,-1
 384 380 l 1,46,-1
 404 380 l 1,47,-1
 404 171 l 1,48,49
 423 182 423 182 441 200 c 1,50,-1
 441 143 l 1,51,-1
 403 126 l 1,0,-1
286 196 m 0,52,53
 286 208 286 208 282 221 c 128,-1,54
 278 234 278 234 263 234 c 0,55,56
 251 234 251 234 245.5 220.5 c 128,-1,57
 240 207 240 207 240 197 c 0,58,59
 240 186 240 186 245 172.5 c 128,-1,60
 250 159 250 159 264 159 c 0,61,62
 275 159 275 159 280.5 173 c 128,-1,63
 286 187 286 187 286 196 c 0,52,53
114 317 m 0,64,65
 114 330 114 330 107.5 344 c 128,-1,66
 101 358 101 358 86 358 c 0,67,68
 69 358 69 358 60.5 344.5 c 128,-1,69
 52 331 52 331 52 316 c 0,70,71
 52 300 52 300 60 288 c 128,-1,72
 68 276 68 276 85 276 c 0,73,74
 98 276 98 276 106 291 c 128,-1,75
 114 306 114 306 114 317 c 0,64,65
EndSplineSet
EndChar
StartChar: uni0E2A
Encoding: 3626 3626 173
Width: 393
Flags: W
Fore
385 405 m 1,0,1
 370 388 370 388 352 374.5 c 128,-1,2
 334 361 334 361 317 348 c 1,3,4
 327 340 327 340 337 321.5 c 128,-1,5
 347 303 347 303 347 280 c 2,6,-1
 347 23 l 1,7,-1
 314 1 l 1,8,-1
 289 1 l 1,9,-1
 289 85 l 2,10,11
 289 113 289 113 279 140.5 c 128,-1,12
 269 168 269 168 251.5 189.5 c 128,-1,13
 234 211 234 211 209 224 c 128,-1,14
 184 237 184 237 154 237 c 0,15,16
 132 237 132 237 120 226.5 c 128,-1,17
 108 216 108 216 102.5 200 c 128,-1,18
 97 184 97 184 96 165 c 128,-1,19
 95 146 95 146 95 130 c 2,20,-1
 95 121 l 1,21,22
 107 126 107 126 118 126 c 0,23,24
 147 126 147 126 167 110 c 128,-1,25
 187 94 187 94 187 63 c 0,26,27
 187 26 187 26 164.5 11.5 c 128,-1,28
 142 -3 142 -3 110 -3 c 0,29,30
 81 -3 81 -3 57.5 14.5 c 128,-1,31
 34 32 34 32 34 64 c 2,32,-1
 34 148 l 2,33,34
 34 178 34 178 45.5 200.5 c 128,-1,35
 57 223 57 223 76 238.5 c 128,-1,36
 95 254 95 254 120.5 262 c 128,-1,37
 146 270 146 270 173 271 c 1,38,39
 193 288 193 288 215 306 c 128,-1,40
 237 324 237 324 258 341 c 1,41,42
 242 349 242 349 223.5 352 c 128,-1,43
 205 355 205 355 189 355 c 0,44,45
 159 355 159 355 134.5 347 c 128,-1,46
 110 339 110 339 89 325 c 128,-1,47
 68 311 68 311 49 292 c 128,-1,48
 30 273 30 273 12 252 c 1,49,-1
 12 323 l 1,50,51
 50 358 50 358 88.5 371 c 128,-1,52
 127 384 127 384 178 384 c 0,53,54
 210 384 210 384 232.5 379 c 128,-1,55
 255 374 255 374 285 364 c 1,56,57
 293 372 293 372 303 382.5 c 128,-1,58
 313 393 313 393 322 405 c 1,59,-1
 385 405 l 1,60,-1
 385 405 l 1,0,1
291 300 m 2,61,62
 291 308 291 308 289 312 c 128,-1,63
 287 316 287 316 281 322 c 1,64,-1
 205 261 l 1,65,66
 238 249 238 249 255.5 233.5 c 128,-1,67
 273 218 273 218 287 201 c 2,68,-1
 291 196 l 1,69,-1
 291 300 l 2,61,62
146 61 m 0,70,71
 146 73 146 73 139 87 c 128,-1,72
 132 101 132 101 118 101 c 0,73,74
 102 101 102 101 94.5 87.5 c 128,-1,75
 87 74 87 74 87 60 c 256,76,77
 87 46 87 46 94 32.5 c 128,-1,78
 101 19 101 19 117 19 c 0,79,80
 132 19 132 19 139 33.5 c 128,-1,81
 146 48 146 48 146 61 c 0,70,71
EndSplineSet
EndChar
StartChar: uni0E2B
Encoding: 3627 3627 174
Width: 449
Flags: W
Fore
370 -1 m 1,0,-1
 344 -1 l 1,1,-1
 344 236 l 2,2,3
 344 241 344 241 341 246 c 128,-1,4
 338 251 338 251 336 256 c 1,5,6
 291 191 291 191 246.5 128.5 c 128,-1,7
 202 66 202 66 157 0 c 1,8,-1
 95 0 l 1,9,-1
 95 261 l 1,10,11
 92 260 92 260 88.5 260 c 128,-1,12
 85 260 85 260 82 260 c 0,13,14
 69 260 69 260 55.5 263.5 c 128,-1,15
 42 267 42 267 31.5 274 c 128,-1,16
 21 281 21 281 14.5 292 c 128,-1,17
 8 303 8 303 8 318 c 0,18,19
 8 350 8 350 29 366.5 c 128,-1,20
 50 383 50 383 80 383 c 0,21,22
 107 383 107 383 121.5 375.5 c 128,-1,23
 136 368 136 368 143 355.5 c 128,-1,24
 150 343 150 343 151.5 325.5 c 128,-1,25
 153 308 153 308 153 287 c 2,26,-1
 153 55 l 1,27,28
 167 74 167 74 180 91.5 c 128,-1,29
 193 109 193 109 205 126 c 2,30,-1
 258 201 l 2,31,32
 273 222 273 222 286 239 c 128,-1,33
 299 256 299 256 313 276 c 1,34,35
 306 280 306 280 298 286 c 128,-1,36
 290 292 290 292 283 299 c 128,-1,37
 276 306 276 306 271 314 c 128,-1,38
 266 322 266 322 266 331 c 0,39,40
 266 362 266 362 286.5 372.5 c 128,-1,41
 307 383 307 383 333 383 c 0,42,43
 344 383 344 383 355 381.5 c 128,-1,44
 366 380 366 380 375 375.5 c 128,-1,45
 384 371 384 371 389.5 362.5 c 128,-1,46
 395 354 395 354 395 340 c 0,47,48
 395 322 395 322 384.5 309 c 128,-1,49
 374 296 374 296 363 283 c 1,50,51
 370 276 370 276 377 270 c 128,-1,52
 384 264 384 264 390 258 c 128,-1,53
 396 252 396 252 399.5 244 c 128,-1,54
 403 236 403 236 403 225 c 2,55,-1
 403 27 l 1,56,-1
 370 -1 l 1,0,-1
358 344 m 0,57,58
 358 355 358 355 350.5 360.5 c 128,-1,59
 343 366 343 366 332 366 c 0,60,61
 320 366 320 366 312 359 c 128,-1,62
 304 352 304 352 304 340 c 0,63,64
 304 327 304 327 310 314 c 128,-1,65
 316 301 316 301 331 301 c 0,66,67
 336 301 336 301 340.5 306.5 c 128,-1,68
 345 312 345 312 349 319 c 128,-1,69
 353 326 353 326 355.5 333 c 128,-1,70
 358 340 358 340 358 344 c 0,57,58
103 321 m 0,71,72
 103 326 103 326 102 333.5 c 128,-1,73
 101 341 101 341 99 347.5 c 128,-1,74
 97 354 97 354 92.5 358.5 c 128,-1,75
 88 363 88 363 81 363 c 0,76,77
 62 363 62 363 54 350 c 128,-1,78
 46 337 46 337 46 320 c 0,79,80
 46 304 46 304 55 294 c 128,-1,81
 64 284 64 284 80 284 c 0,82,83
 94 284 94 284 98.5 297 c 128,-1,84
 103 310 103 310 103 321 c 0,71,72
EndSplineSet
EndChar
StartChar: uni0E2C
Encoding: 3628 3628 175
Width: 496
Flags: W
Fore
494 387 m 1,0,1
 492 368 492 368 477.5 353 c 128,-1,2
 463 338 463 338 449 327 c 1,3,-1
 450 315 l 1,4,-1
 450 1 l 1,5,-1
 369 1 l 1,6,-1
 263 203 l 1,7,8
 237 152 237 152 212.5 102 c 128,-1,9
 188 52 188 52 164 1 c 1,10,-1
 98 1 l 1,11,-1
 98 263 l 1,12,13
 88 258 88 258 83 258 c 0,14,15
 52 258 52 258 30 270.5 c 128,-1,16
 8 283 8 283 8 318 c 0,17,18
 8 350 8 350 31 366.5 c 128,-1,19
 54 383 54 383 83 383 c 0,20,21
 113 383 113 383 135 366 c 128,-1,22
 157 349 157 349 157 317 c 2,23,-1
 157 51 l 1,24,-1
 252 240 l 1,25,-1
 287 240 l 1,26,-1
 392 47 l 1,27,-1
 392 293 l 1,28,29
 380 288 380 288 368 287 c 128,-1,30
 356 286 356 286 343 286 c 0,31,32
 317 286 317 286 296 297.5 c 128,-1,33
 275 309 275 309 275 338 c 0,34,35
 275 353 275 353 283 362 c 128,-1,36
 291 371 291 371 303 376.5 c 128,-1,37
 315 382 315 382 328.5 384 c 128,-1,38
 342 386 342 386 353 386 c 0,39,40
 373 386 373 386 392.5 378.5 c 128,-1,41
 412 371 412 371 426 357 c 1,42,43
 431 364 431 364 433 371 c 128,-1,44
 435 378 435 378 437 386 c 1,45,-1
 437 387 l 1,46,-1
 494 387 l 1,47,-1
 494 387 l 1,0,1
395 332 m 1,48,49
 382 364 382 364 348 364 c 0,50,51
 337 364 337 364 325.5 358 c 128,-1,52
 314 352 314 352 314 339 c 0,53,54
 314 325 314 325 327 318.5 c 128,-1,55
 340 312 340 312 352 312 c 0,56,57
 369 312 369 312 377 315.5 c 128,-1,58
 385 319 385 319 395 332 c 1,48,49
107 323 m 0,59,60
 107 337 107 337 102 349.5 c 128,-1,61
 97 362 97 362 80 362 c 0,62,63
 64 362 64 362 56 348.5 c 128,-1,64
 48 335 48 335 48 321 c 0,65,66
 48 304 48 304 57.5 293.5 c 128,-1,67
 67 283 67 283 84 283 c 0,68,69
 91 283 91 283 95.5 287.5 c 128,-1,70
 100 292 100 292 102.5 298 c 128,-1,71
 105 304 105 304 106 311 c 128,-1,72
 107 318 107 318 107 323 c 0,59,60
EndSplineSet
Substitution: 0 65534 'L019' uni0E2C.alt1
Substitution: 0 65534 'L019' uni0E2C.alt1
EndChar
StartChar: uni0E2D
Encoding: 3629 3629 176
Width: 386
Flags: W
Fore
340 45 m 1,0,1
 340 42 340 42 338.5 38.5 c 128,-1,2
 337 35 337 35 335 33 c 2,3,4
 326 19 326 19 311.5 10 c 128,-1,5
 297 1 297 1 280 1 c 2,6,-1
 42 1 l 1,7,-1
 42 194 l 2,8,9
 42 209 42 209 49.5 220.5 c 128,-1,10
 57 232 57 232 68 240.5 c 128,-1,11
 79 249 79 249 93 253.5 c 128,-1,12
 107 258 107 258 120 258 c 0,13,14
 149 258 149 258 169 244 c 128,-1,15
 189 230 189 230 189 198 c 0,16,17
 189 172 189 172 171 155.5 c 128,-1,18
 153 139 153 139 127 139 c 0,19,20
 114 139 114 139 101 144 c 1,21,-1
 101 34 l 1,22,-1
 280 34 l 1,23,-1
 280 251 l 2,24,25
 280 308 280 308 249.5 331 c 128,-1,26
 219 354 219 354 165 354 c 0,27,28
 141 354 141 354 119.5 345 c 128,-1,29
 98 336 98 336 79 322 c 128,-1,30
 60 308 60 308 42.5 291.5 c 128,-1,31
 25 275 25 275 8 260 c 1,32,-1
 8 324 l 1,33,34
 43 359 43 359 80.5 372 c 128,-1,35
 118 385 118 385 167 385 c 0,36,37
 200 385 200 385 231.5 378.5 c 128,-1,38
 263 372 263 372 287 357 c 128,-1,39
 311 342 311 342 325.5 316.5 c 128,-1,40
 340 291 340 291 340 252 c 2,41,-1
 340 45 l 1,42,-1
 340 45 l 1,0,1
152 201 m 256,43,44
 152 214 152 214 144.5 225.5 c 128,-1,45
 137 237 137 237 123 237 c 0,46,47
 106 237 106 237 100 224.5 c 128,-1,48
 94 212 94 212 94 198 c 0,49,50
 94 185 94 185 102 173.5 c 128,-1,51
 110 162 110 162 124 162 c 0,52,53
 139 162 139 162 145.5 175 c 128,-1,54
 152 188 152 188 152 201 c 256,43,44
EndSplineSet
EndChar
StartChar: uni0E2E
Encoding: 3630 3630 177
Width: 360
Flags: W
Fore
358 390 m 1,0,1
 353 367 353 367 339 351.5 c 128,-1,2
 325 336 325 336 308 322 c 1,3,4
 316 314 316 314 318.5 302 c 128,-1,5
 321 290 321 290 321 279 c 2,6,-1
 321 44 l 2,7,8
 321 38 321 38 318 33 c 0,9,10
 309 19 309 19 301.5 13.5 c 128,-1,11
 294 8 294 8 278 3 c 0,12,13
 276 2 276 2 269.5 1 c 128,-1,14
 263 0 263 0 261 0 c 2,15,-1
 20 0 l 1,16,-1
 20 158 l 2,17,18
 20 191 20 191 42.5 211 c 128,-1,19
 65 231 65 231 97 231 c 256,20,21
 129 231 129 231 147 219 c 128,-1,22
 165 207 165 207 165 172 c 0,23,24
 165 143 165 143 150 127 c 128,-1,25
 135 111 135 111 106 111 c 0,26,27
 91 111 91 111 79 115 c 1,28,-1
 79 34 l 1,29,-1
 262 34 l 1,30,-1
 262 289 l 1,31,32
 232 270 232 270 197 262.5 c 128,-1,33
 162 255 162 255 127 255 c 0,34,35
 112 255 112 255 93 257 c 128,-1,36
 74 259 74 259 57.5 265.5 c 128,-1,37
 41 272 41 272 29.5 284 c 128,-1,38
 18 296 18 296 18 316 c 0,39,40
 18 339 18 339 33 352.5 c 128,-1,41
 48 366 48 366 69.5 373 c 128,-1,42
 91 380 91 380 114.5 382 c 128,-1,43
 138 384 138 384 155 384 c 0,44,45
 220 384 220 384 275 347 c 1,46,47
 283 357 283 357 290 368 c 128,-1,48
 297 379 297 379 302 390 c 1,49,-1
 358 390 l 1,50,-1
 358 390 l 1,0,1
251 324 m 1,51,52
 228 342 228 342 202 350.5 c 128,-1,53
 176 359 176 359 147 359 c 0,54,55
 138 359 138 359 125 357 c 128,-1,56
 112 355 112 355 99 350 c 128,-1,57
 86 345 86 345 77 337.5 c 128,-1,58
 68 330 68 330 68 318 c 0,59,60
 68 309 68 309 74 302.5 c 128,-1,61
 80 296 80 296 88 291.5 c 128,-1,62
 96 287 96 287 105.5 285 c 128,-1,63
 115 283 115 283 122 283 c 0,64,65
 136 283 136 283 154.5 285 c 128,-1,66
 173 287 173 287 192 291.5 c 128,-1,67
 211 296 211 296 227 304 c 128,-1,68
 243 312 243 312 251 324 c 1,51,52
130 171 m 0,69,70
 130 184 130 184 123.5 198 c 128,-1,71
 117 212 117 212 101 212 c 0,72,73
 86 212 86 212 80 198 c 128,-1,74
 74 184 74 184 74 172 c 0,75,76
 74 158 74 158 81 146 c 128,-1,77
 88 134 88 134 104 134 c 0,78,79
 118 134 118 134 124 146.5 c 128,-1,80
 130 159 130 159 130 171 c 0,69,70
EndSplineSet
EndChar
StartChar: uni0E2F
Encoding: 3631 3631 178
Width: 353
Flags: W
Fore
276 0 m 1,0,-1
 251 0 l 1,1,-1
 251 326 l 1,2,-1
 238 317 l 2,3,4
 208 295 208 295 174.5 276 c 128,-1,5
 141 257 141 257 103 257 c 0,6,7
 78 257 78 257 57.5 263 c 128,-1,8
 37 269 37 269 23 292 c 0,9,10
 12 308 12 308 12 328 c 0,11,12
 12 357 12 357 32.5 370 c 128,-1,13
 53 383 53 383 79 383 c 0,14,15
 107 383 107 383 128 370.5 c 128,-1,16
 149 358 149 358 149 326 c 0,17,18
 149 318 149 318 146.5 310 c 128,-1,19
 144 302 144 302 141 294 c 1,20,21
 177 309 177 309 202 330.5 c 128,-1,22
 227 352 227 352 254 379 c 1,23,-1
 309 379 l 1,24,-1
 309 25 l 1,25,-1
 276 0 l 1,0,-1
110 327 m 0,26,27
 110 339 110 339 103 351.5 c 128,-1,28
 96 364 96 364 82 364 c 0,29,30
 63 364 63 364 57 351.5 c 128,-1,31
 51 339 51 339 51 323 c 0,32,33
 51 310 51 310 59.5 298.5 c 128,-1,34
 68 287 68 287 82 287 c 256,35,36
 96 287 96 287 103 301.5 c 128,-1,37
 110 316 110 316 110 327 c 0,26,27
EndSplineSet
EndChar
StartChar: uni0E30
Encoding: 3632 3632 179
Width: 332
Flags: W
Fore
304 351 m 1,0,1
 299 325 299 325 283.5 304 c 128,-1,2
 268 283 268 283 246.5 268 c 128,-1,3
 225 253 225 253 199 245 c 128,-1,4
 173 237 173 237 148 237 c 0,5,6
 129 237 129 237 105 241 c 128,-1,7
 81 245 81 245 59.5 254.5 c 128,-1,8
 38 264 38 264 23 280 c 128,-1,9
 8 296 8 296 8 320 c 0,10,11
 8 349 8 349 28.5 362 c 128,-1,12
 49 375 49 375 75 375 c 0,13,14
 87 375 87 375 99.5 372 c 128,-1,15
 112 369 112 369 122.5 363 c 128,-1,16
 133 357 133 357 139.5 347 c 128,-1,17
 146 337 146 337 146 323 c 0,18,19
 146 306 146 306 139 293.5 c 128,-1,20
 132 281 132 281 119 270 c 1,21,22
 131 267 131 267 143 267 c 0,23,24
 161 267 161 267 176.5 274 c 128,-1,25
 192 281 192 281 204.5 293 c 128,-1,26
 217 305 217 305 226.5 320 c 128,-1,27
 236 335 236 335 242 351 c 1,28,-1
 304 351 l 1,29,-1
 304 351 l 1,0,1
305 119 m 1,30,31
 300 93 300 93 284.5 72 c 128,-1,32
 269 51 269 51 247.5 36 c 128,-1,33
 226 21 226 21 200 13 c 128,-1,34
 174 5 174 5 149 5 c 0,35,36
 130 5 130 5 106 9 c 128,-1,37
 82 13 82 13 60.5 22.5 c 128,-1,38
 39 32 39 32 24 48 c 128,-1,39
 9 64 9 64 9 88 c 0,40,41
 9 117 9 117 29.5 130 c 128,-1,42
 50 143 50 143 76 143 c 0,43,44
 88 143 88 143 100.5 140 c 128,-1,45
 113 137 113 137 123.5 131 c 128,-1,46
 134 125 134 125 140.5 115 c 128,-1,47
 147 105 147 105 147 91 c 0,48,49
 147 55 147 55 118 37 c 1,50,51
 124 35 124 35 130.5 34.5 c 128,-1,52
 137 34 137 34 144 34 c 0,53,54
 163 34 163 34 178.5 41 c 128,-1,55
 194 48 194 48 206.5 60 c 128,-1,56
 219 72 219 72 228 87.5 c 128,-1,57
 237 103 237 103 243 119 c 1,58,-1
 305 119 l 1,59,-1
 305 119 l 1,30,31
108 322 m 0,60,61
 108 335 108 335 100.5 346 c 128,-1,62
 93 357 93 357 79 357 c 256,63,64
 65 357 65 357 58 345.5 c 128,-1,65
 51 334 51 334 51 322 c 0,66,67
 51 306 51 306 57 291.5 c 128,-1,68
 63 277 63 277 82 277 c 0,69,70
 88 277 88 277 93 282 c 128,-1,71
 98 287 98 287 101.5 294.5 c 128,-1,72
 105 302 105 302 106.5 309.5 c 128,-1,73
 108 317 108 317 108 322 c 0,60,61
107 92 m 0,74,75
 107 104 107 104 99.5 115 c 128,-1,76
 92 126 92 126 79 126 c 0,77,78
 64 126 64 126 57 115 c 128,-1,79
 50 104 50 104 50 90 c 256,80,81
 50 76 50 76 57.5 62 c 128,-1,82
 65 48 65 48 81 48 c 0,83,84
 87 48 87 48 92 53 c 128,-1,85
 97 58 97 58 100.5 65 c 128,-1,86
 104 72 104 72 105.5 79.5 c 128,-1,87
 107 87 107 87 107 92 c 0,74,75
EndSplineSet
EndChar
StartChar: uni0E31
Encoding: 3633 3633 180
Width: 0
Flags: W
Fore
65 585 m 1,0,1
 50 560 50 560 31.5 537.5 c 128,-1,2
 13 515 13 515 -9.5 498 c 128,-1,3
 -32 481 -32 481 -58.5 471.5 c 128,-1,4
 -85 462 -85 462 -116 462 c 0,5,6
 -134 462 -134 462 -158 465.5 c 128,-1,7
 -182 469 -182 469 -203 478 c 128,-1,8
 -224 487 -224 487 -238.5 502.5 c 128,-1,9
 -253 518 -253 518 -253 542 c 0,10,11
 -253 571 -253 571 -232 583 c 128,-1,12
 -211 595 -211 595 -185 595 c 0,13,14
 -173 595 -173 595 -160.5 592.5 c 128,-1,15
 -148 590 -148 590 -137.5 584 c 128,-1,16
 -127 578 -127 578 -120.5 568 c 128,-1,17
 -114 558 -114 558 -114 544 c 256,18,19
 -114 530 -114 530 -120 516.5 c 128,-1,20
 -126 503 -126 503 -138 495 c 1,21,22
 -133 494 -133 494 -129.5 493.5 c 128,-1,23
 -126 493 -126 493 -121 493 c 0,24,25
 -102 493 -102 493 -84 502 c 128,-1,26
 -66 511 -66 511 -50.5 524.5 c 128,-1,27
 -35 538 -35 538 -22.5 554 c 128,-1,28
 -10 570 -10 570 -1 585 c 1,29,-1
 65 585 l 1,30,-1
 65 585 l 1,0,1
-157 543 m 256,31,32
 -157 554 -157 554 -163.5 562.5 c 128,-1,33
 -170 571 -170 571 -181 571 c 256,34,35
 -192 571 -192 571 -198.5 562 c 128,-1,36
 -205 553 -205 553 -205 543 c 0,37,38
 -205 532 -205 532 -200 520.5 c 128,-1,39
 -195 509 -195 509 -181 509 c 0,40,41
 -169 509 -169 509 -163 520.5 c 128,-1,42
 -157 532 -157 532 -157 543 c 256,31,32
EndSplineSet
Substitution: 0 65534 'L019' uni0E31.alt1
Substitution: 0 65534 'L019' uni0E31.alt1
EndChar
StartChar: uni0E32
Encoding: 3634 3634 181
Width: 333
Flags: W
Fore
254 -1 m 1,0,-1
 228 -1 l 1,1,-1
 228 272 l 2,2,3
 228 319 228 319 209 337.5 c 128,-1,4
 190 356 190 356 144 356 c 0,5,6
 123 356 123 356 104 346.5 c 128,-1,7
 85 337 85 337 67.5 322.5 c 128,-1,8
 50 308 50 308 35.5 291 c 128,-1,9
 21 274 21 274 9 259 c 1,10,-1
 9 334 l 1,11,12
 35 360 35 360 72.5 372.5 c 128,-1,13
 110 385 110 385 145 385 c 0,14,15
 165 385 165 385 187.5 381 c 128,-1,16
 210 377 210 377 230 367.5 c 128,-1,17
 250 358 250 358 265.5 343 c 128,-1,18
 281 328 281 328 285 306 c 0,19,20
 287 297 287 297 287 288 c 128,-1,21
 287 279 287 279 287 269 c 2,22,-1
 287 27 l 1,23,-1
 254 -1 l 1,0,-1
EndSplineSet
EndChar
StartChar: uni0E33
Encoding: 3635 3635 182
Width: 333
Flags: W
Fore
-26 501 m 0,0,1
 -26 472 -26 472 -46 452.5 c 128,-1,2
 -66 433 -66 433 -95 433 c 256,3,4
 -124 433 -124 433 -145 450.5 c 128,-1,5
 -166 468 -166 468 -166 499 c 0,6,7
 -166 528 -166 528 -145.5 547.5 c 128,-1,8
 -125 567 -125 567 -96 567 c 256,9,10
 -67 567 -67 567 -46.5 549 c 128,-1,11
 -26 531 -26 531 -26 501 c 0,0,1
252 -1 m 1,12,-1
 228 -1 l 1,13,14
 228 56 228 56 228 112 c 128,-1,15
 228 168 228 168 229 225 c 2,16,-1
 229 276 l 2,17,18
 229 321 229 321 208 338.5 c 128,-1,19
 187 356 187 356 144 356 c 0,20,21
 123 356 123 356 104 346.5 c 128,-1,22
 85 337 85 337 67.5 322.5 c 128,-1,23
 50 308 50 308 35.5 291 c 128,-1,24
 21 274 21 274 9 259 c 1,25,-1
 9 334 l 1,26,27
 35 360 35 360 72.5 372.5 c 128,-1,28
 110 385 110 385 145 385 c 0,29,30
 165 385 165 385 190 380 c 128,-1,31
 215 375 215 375 236.5 364 c 128,-1,32
 258 353 258 353 272.5 335.5 c 128,-1,33
 287 318 287 318 287 293 c 2,34,-1
 287 26 l 1,35,-1
 252 -1 l 1,12,-1
-62 498 m 256,36,37
 -62 505 -62 505 -64 514 c 128,-1,38
 -66 523 -66 523 -70 531 c 128,-1,39
 -74 539 -74 539 -80.5 544.5 c 128,-1,40
 -87 550 -87 550 -95 550 c 0,41,42
 -104 550 -104 550 -110 544.5 c 128,-1,43
 -116 539 -116 539 -119.5 531 c 128,-1,44
 -123 523 -123 523 -125 514 c 128,-1,45
 -127 505 -127 505 -127 498 c 256,46,47
 -127 491 -127 491 -124.5 483 c 128,-1,48
 -122 475 -122 475 -117.5 467.5 c 128,-1,49
 -113 460 -113 460 -107 455 c 128,-1,50
 -101 450 -101 450 -93 450 c 0,51,52
 -84 450 -84 450 -78 455 c 128,-1,53
 -72 460 -72 460 -68.5 467 c 128,-1,54
 -65 474 -65 474 -63.5 482.5 c 128,-1,55
 -62 491 -62 491 -62 498 c 256,36,37
EndSplineSet
Substitution: 0 65534 'L019' uni0E33.alt1
Substitution: 0 65534 'L019' uni0E33.alt1
EndChar
StartChar: uni0E34
Encoding: 3636 3636 183
Width: 0
Flags: W
Fore
-377 488 m 1,0,1
 -376 490 l 2,2,3
 -373 496 -373 496 -364.5 511 c 128,-1,4
 -356 526 -356 526 -338.5 541.5 c 128,-1,5
 -321 557 -321 557 -293.5 569.5 c 128,-1,6
 -266 582 -266 582 -225 582 c 0,7,8
 -158 582 -158 582 -116 546.5 c 128,-1,9
 -74 511 -74 511 -50 451 c 1,10,-1
 -74 452 l 1,11,12
 -95 457 -95 457 -116.5 461.5 c 128,-1,13
 -138 466 -138 466 -156 469.5 c 128,-1,14
 -174 473 -174 473 -186 475 c 128,-1,15
 -198 477 -198 477 -200 477 c 0,16,17
 -219 480 -219 480 -242 481.5 c 128,-1,18
 -265 483 -265 483 -288.5 484.5 c 128,-1,19
 -312 486 -312 486 -335 487 c 128,-1,20
 -358 488 -358 488 -377 488 c 1,0,1
-113 487 m 1,21,22
 -135 512 -135 512 -163.5 532 c 128,-1,23
 -192 552 -192 552 -227 552 c 0,24,25
 -237 552 -237 552 -249.5 548.5 c 128,-1,26
 -262 545 -262 545 -274 539.5 c 128,-1,27
 -286 534 -286 534 -296 526.5 c 128,-1,28
 -306 519 -306 519 -312 510 c 1,29,30
 -262 510 -262 510 -212 504.5 c 128,-1,31
 -162 499 -162 499 -113 487 c 1,21,22
EndSplineSet
Substitution: 0 65534 'L019' uni0E34.alt1
Substitution: 0 65534 'L019' uni0E34.alt1
EndChar
StartChar: uni0E35
Encoding: 3637 3637 184
Width: 0
Flags: W
Fore
-44 457 m 1,0,-1
 -66 457 l 1,1,2
 -104 466 -104 466 -143.5 473 c 128,-1,3
 -183 480 -183 480 -220 484.5 c 128,-1,4
 -257 489 -257 489 -289.5 491 c 128,-1,5
 -322 493 -322 493 -347 493 c 2,6,-1
 -374 493 l 1,7,8
 -345 535 -345 535 -306 561 c 128,-1,9
 -267 587 -267 587 -214 587 c 0,10,11
 -188 587 -188 587 -158.5 579.5 c 128,-1,12
 -129 572 -129 572 -109 555 c 1,13,-1
 -109 602 l 1,14,-1
 -44 602 l 1,15,-1
 -44 457 l 1,0,-1
-92 490 m 1,16,17
 -113 521 -113 521 -145.5 539.5 c 128,-1,18
 -178 558 -178 558 -216 558 c 0,19,20
 -239 558 -239 558 -263 546 c 128,-1,21
 -287 534 -287 534 -301 517 c 1,22,23
 -253 513 l 128,-1,24
 -229 511 -229 511 -205 508 c 0,25,26
 -176 504 -176 504 -148.5 499.5 c 128,-1,27
 -121 495 -121 495 -92 490 c 1,16,17
EndSplineSet
Substitution: 0 65534 'L019' uni0E35.alt1
Substitution: 0 65534 'L019' uni0E35.alt1
EndChar
StartChar: uni0E36
Encoding: 3638 3638 185
Width: 0
Flags: W
Fore
-37 561 m 0,0,1
 -37 538 -37 538 -51 526 c 128,-1,2
 -65 514 -65 514 -87 512 c 1,3,4
 -76 497 -76 497 -64.5 480.5 c 128,-1,5
 -53 464 -53 464 -47 447 c 1,6,7
 -63 453 -63 453 -79 456.5 c 128,-1,8
 -95 460 -95 460 -112 464 c 2,9,-1
 -116 465 l 2,10,11
 -182 479 -182 479 -246.5 485 c 128,-1,12
 -311 491 -311 491 -377 491 c 1,13,14
 -354 537 -354 537 -319 561.5 c 128,-1,15
 -284 586 -284 586 -232 586 c 0,16,17
 -214 586 -214 586 -194.5 581.5 c 128,-1,18
 -175 577 -175 577 -158 570 c 1,19,20
 -155 592 -155 592 -138 602.5 c 128,-1,21
 -121 613 -121 613 -101 613 c 0,22,23
 -75 613 -75 613 -56 601.5 c 128,-1,24
 -37 590 -37 590 -37 561 c 0,0,1
-70 561 m 0,25,26
 -70 575 -70 575 -78 584 c 128,-1,27
 -86 593 -86 593 -100 593 c 0,28,29
 -113 593 -113 593 -118.5 582.5 c 128,-1,30
 -124 572 -124 572 -124 561 c 0,31,32
 -124 552 -124 552 -117.5 541.5 c 128,-1,33
 -111 531 -111 531 -100 531 c 0,34,35
 -87 531 -87 531 -78.5 539.5 c 128,-1,36
 -70 548 -70 548 -70 561 c 0,25,26
-110 489 m 1,37,38
 -130 515 -130 515 -163 535 c 128,-1,39
 -196 555 -196 555 -230 555 c 0,40,41
 -253 555 -253 555 -273.5 545 c 128,-1,42
 -294 535 -294 535 -308 518 c 1,43,-1
 -282 516 l 2,44,45
 -240 512 -240 512 -197.5 506.5 c 128,-1,46
 -155 501 -155 501 -110 489 c 1,37,38
EndSplineSet
Substitution: 0 65534 'L019' uni0E36.alt1
Substitution: 0 65534 'L019' uni0E36.alt1
EndChar
StartChar: uni0E37
Encoding: 3639 3639 186
Width: 0
Flags: W
Fore
-45 458 m 1,0,1
 -128 473 -128 473 -210 484 c 128,-1,2
 -292 495 -292 495 -377 497 c 1,3,4
 -374 505 -374 505 -369 511.5 c 128,-1,5
 -364 518 -364 518 -359 524 c 0,6,7
 -330 559 -330 559 -295.5 575 c 128,-1,8
 -261 591 -261 591 -216 591 c 0,9,10
 -204 591 l 128,-1,11
 -198 591 -198 591 -192 589 c 1,12,-1
 -192 612 l 1,13,-1
 -132 612 l 1,14,-1
 -132 574 l 1,15,-1
 -105 559 l 1,16,-1
 -105 611 l 1,17,-1
 -45 611 l 1,18,-1
 -45 458 l 1,19,-1
 -45 458 l 1,0,1
-82 492 m 1,20,21
 -105 521 -105 521 -141 542 c 128,-1,22
 -177 563 -177 563 -215 563 c 0,23,24
 -244 563 -244 563 -267.5 551 c 128,-1,25
 -291 539 -291 539 -311 519 c 1,26,-1
 -261 516 l 2,27,28
 -243 514 -243 514 -229.5 512.5 c 128,-1,29
 -216 511 -216 511 -201 509 c 2,30,-1
 -195 508 l 2,31,32
 -165 503 -165 503 -138 500 c 128,-1,33
 -111 497 -111 497 -82 492 c 1,20,21
EndSplineSet
Substitution: 0 65534 'L019' uni0E37.alt1
Substitution: 0 65534 'L019' uni0E37.alt1
EndChar
